<?xml version="1.0" standalone="no"?>
<!DOCTYPE svg PUBLIC "-//W3C//DTD SVG 1.1//EN" "http://www.w3.org/Graphics/SVG/1.1/DTD/svg11.dtd" >
<svg xmlns="http://www.w3.org/2000/svg" xmlns:xlink="http://www.w3.org/1999/xlink" version="1.1">
<metadata>
Created by FontForge 20170731 at Thu Mar 29 22:24:58 2018
 By Aleksey,,,
Copyright (c) 2018 Schick Toikka. All rights reserved. Scto Grotesk A is a trademark of Schick Toikka. Unauthorised copying or modification of any of its data is illegal.
</metadata>
<defs>
<font id="SctoGroteskA-Regular" horiz-adv-x="825" >
  <font-face 
    font-family="Scto Grotesk A Regular"
    font-weight="400"
    font-stretch="normal"
    units-per-em="1000"
    panose-1="2 11 5 5 3 1 1 1 1 1"
    ascent="800"
    descent="-200"
    x-height="491"
    cap-height="694"
    bbox="-200 -221 1214 935"
    underline-thickness="39"
    underline-position="-251"
    unicode-range="U+0020-FB02"
  />
<missing-glyph horiz-adv-x="630" 
d="M575 694v-869h-520v869h520zM338 261l195 -351v703zM314 217l-194 -350h388zM289 261l-192 348v-695zM122 652l192 -347l192 347h-384z" />
    <glyph glyph-name="fi" unicode="fi" horiz-adv-x="597" 
d="M328 696v-68q-27 6 -58 6q-41 0 -61.5 -21.5t-20.5 -69.5v-52h140v-66h-140v-425h-75v425h-81v66h81v55q0 76 40.5 116t111.5 40q36 0 63 -6zM439 491h75v-491h-75v491zM431 583v91h91v-91h-91z" />
    <glyph glyph-name="fl" unicode="fl" horiz-adv-x="597" 
d="M328 696v-68q-27 6 -58 6q-41 0 -61.5 -21.5t-20.5 -69.5v-52h140v-66h-140v-425h-75v425h-81v66h81v55q0 76 40.5 116t111.5 40q36 0 63 -6zM439 694h75v-694h-75v694z" />
    <glyph glyph-name=".notdef" horiz-adv-x="630" 
d="M575 694v-869h-520v869h520zM338 261l195 -351v703zM314 217l-194 -350h388zM289 261l-192 348v-695zM122 652l192 -347l192 347h-384z" />
    <glyph glyph-name=".null" horiz-adv-x="0" 
 />
    <glyph glyph-name="nonmarkingreturn" horiz-adv-x="333" 
 />
    <glyph glyph-name="space" unicode=" " horiz-adv-x="225" 
 />
    <glyph glyph-name="exclam" unicode="!" horiz-adv-x="277" 
d="M162 232h-47l-17 330v132h81v-132zM85 0v107h107v-107h-107z" />
    <glyph glyph-name="quotedbl" unicode="&#x22;" horiz-adv-x="390" 
d="M150 694l-15 -236h-60l-15 236h90zM330 694l-15 -236h-60l-15 236h90z" />
    <glyph glyph-name="numbersign" unicode="#" horiz-adv-x="708" 
d="M95 438v61h132l27 175h65l-27 -175h160l27 175h65l-27 -175h136v-61h-145l-28 -182h133v-61h-143l-26 -174h-65l26 174h-160l-26 -174h-65l26 174h-125v61h135l28 182h-123zM283 438l-28 -182h160l28 182h-160z" />
    <glyph glyph-name="dollar" unicode="$" horiz-adv-x="608" 
d="M84 507q0 77 53 128t138 59v106h61v-106q88 -9 144 -62t57 -135h-79q-10 113 -122 130v-247l69 -18q67 -18 105 -62t38 -110q0 -81 -57.5 -133.5t-154.5 -58.5v-104h-61v105q-98 8 -156 60t-63 144h78q4 -57 42 -92.5t99 -43.5v254l-48 13q-67 18 -105 62.5t-38 110.5z
M384 293l-48 12v-240q63 5 100 36.5t37 83.5q0 84 -89 108zM159 511q0 -84 89 -108l27 -7v231q-54 -6 -85 -36.5t-31 -79.5z" />
    <glyph glyph-name="percent" unicode="%" horiz-adv-x="865" 
d="M272 0h-77l396 694h77zM118 528q0 -54 25.5 -85t68.5 -31t68.5 31t25.5 85t-25.5 85t-68.5 31t-68.5 -31t-25.5 -85zM379 528q0 -84 -49.5 -130.5t-117.5 -46.5t-117.5 46.5t-49.5 130.5t49.5 130.5t117.5 46.5t117.5 -46.5t49.5 -130.5zM559 166q0 -54 25.5 -85
t68.5 -31t68.5 31t25.5 85t-25.5 85t-68.5 31t-68.5 -31t-25.5 -85zM820 166q0 -84 -49.5 -130.5t-117.5 -46.5t-117.5 46.5t-49.5 130.5t49.5 130.5t117.5 46.5t117.5 -46.5t49.5 -130.5z" />
    <glyph glyph-name="ampersand" unicode="&#x26;" horiz-adv-x="694" 
d="M582 0l-72 73q-89 -84 -226 -84q-106 0 -171 50.5t-65 137.5q0 62 44 108t123 86q-86 91 -86 170q0 67 49.5 115.5t130.5 48.5q84 0 130 -46.5t46 -112.5q0 -62 -42 -106.5t-116 -82.5l178 -180q44 76 44 191h71q0 -145 -65 -242l124 -126h-97zM286 56q108 0 176 66
l-200 202q-72 -35 -103.5 -69.5t-31.5 -81.5q0 -54 43 -85.5t116 -31.5zM206 541q0 -60 75 -138q70 35 100 67t30 76q0 41 -27.5 67.5t-73.5 26.5q-49 0 -76.5 -28.5t-27.5 -70.5z" />
    <glyph glyph-name="quotesingle" unicode="'" horiz-adv-x="210" 
d="M150 694l-15 -236h-60l-15 236h90z" />
    <glyph glyph-name="parenleft" unicode="(" horiz-adv-x="303" 
d="M135 305q4 -217 148 -406h-80q-65 87 -104 194t-39 212t39 212t104 194h80q-144 -189 -148 -406z" />
    <glyph glyph-name="parenright" unicode=")" horiz-adv-x="303" 
d="M168 305q-4 217 -148 406h80q65 -87 104 -194t39 -212t-39 -212t-104 -194h-80q144 189 148 406z" />
    <glyph glyph-name="asterisk" unicode="*" horiz-adv-x="442" 
d="M146 368l-50 36l80 105l-126 38l19 59l124 -44l-2 132h62l-4 -132l124 44l19 -59l-126 -38l80 -105l-50 -36l-75 108z" />
    <glyph glyph-name="plus" unicode="+" horiz-adv-x="650" 
d="M92 288v69h198v198h69v-198h199v-69h-199v-199h-69v199h-198z" />
    <glyph glyph-name="comma" unicode="," horiz-adv-x="267" 
d="M187 107v-133q0 -60 -33.5 -92t-94.5 -32v52q71 0 71 67v31h-50v107h107z" />
    <glyph glyph-name="hyphen" unicode="-" horiz-adv-x="384" 
d="M60 231v73h264v-73h-264z" />
    <glyph glyph-name="period" unicode="." horiz-adv-x="267" 
d="M80 0v107h107v-107h-107z" />
    <glyph glyph-name="slash" unicode="/" horiz-adv-x="430" 
d="M400 711l-297 -812h-73l297 812h73z" />
    <glyph glyph-name="zero" unicode="0" horiz-adv-x="620" 
d="M310 -11q-114 0 -181 88.5t-67 269.5t67 269.5t181 88.5t181 -88.5t67 -269.5t-67 -269.5t-181 -88.5zM310 59q79 0 122.5 71.5t43.5 216.5t-43.5 216.5t-122.5 71.5t-122.5 -71.5t-43.5 -216.5t43.5 -216.5t122.5 -71.5z" />
    <glyph glyph-name="one" unicode="1" horiz-adv-x="415" 
d="M290 0h-78v602l-162 -117v87l167 122h73v-694z" />
    <glyph glyph-name="two" unicode="2" horiz-adv-x="566" 
d="M72 0v74l260 274q88 92 88 169q0 53 -37.5 85.5t-96.5 32.5q-65 0 -104.5 -39.5t-39.5 -114.5h-82q1 106 62.5 165t163.5 59q98 0 156 -55t58 -133q0 -96 -116 -220l-213 -224h340v-73h-439z" />
    <glyph glyph-name="three" unicode="3" horiz-adv-x="587" 
d="M292 -11q-106 0 -169.5 55.5t-65.5 149.5h82q3 -61 43 -98.5t110 -37.5q68 0 109.5 37.5t41.5 96.5q0 127 -168 127h-25v70h17q79 0 119 37.5t40 91.5q0 53 -37.5 85.5t-96.5 32.5q-63 0 -101.5 -37t-41.5 -99h-82q5 94 64 149.5t163 55.5q97 0 154.5 -54.5t57.5 -132.5
q0 -53 -31.5 -96.5t-81.5 -62.5q54 -11 92 -54t38 -113q0 -89 -63 -146t-168 -57z" />
    <glyph glyph-name="four" unicode="4" horiz-adv-x="631" 
d="M476 0h-76v162h-350v70l328 462h98v-462h100v-70h-100v-162zM400 232v370l-263 -370h263z" />
    <glyph glyph-name="five" unicode="5" horiz-adv-x="572" 
d="M286 -11q-106 0 -169 55t-65 150h82q3 -61 42.5 -98.5t109.5 -37.5q72 0 115.5 45t43.5 117q0 71 -42.5 116.5t-105.5 45.5q-50 0 -86 -23.5t-54 -64.5h-78l44 400h358v-73h-296l-26 -232q23 28 64 45t88 17q86 0 150 -64.5t64 -166.5t-64.5 -166.5t-174.5 -64.5z" />
    <glyph glyph-name="six" unicode="6" horiz-adv-x="605" 
d="M309 -11q-113 0 -180 87.5t-67 276.5q0 184 71.5 268t180.5 84q92 0 149 -50.5t59 -126.5h-81q-5 49 -38.5 78.5t-90.5 29.5q-171 0 -175 -298q24 55 73.5 84.5t111.5 29.5q94 0 157.5 -62t63.5 -165q0 -110 -66 -173t-168 -63zM307 58q72 0 114 45t42 120q0 72 -42 116
t-107 44q-68 0 -111 -47t-43 -113q0 -75 40 -120t107 -45z" />
    <glyph glyph-name="seven" unicode="7" horiz-adv-x="537" 
d="M50 620v74h437v-69l-272 -625h-85l270 620h-350z" />
    <glyph glyph-name="eight" unicode="8" horiz-adv-x="608" 
d="M304 -11q-110 0 -174.5 54t-64.5 144q0 58 35 106t91 65q-48 22 -75 66t-27 90q0 81 59.5 136t155.5 55t155.5 -55t59.5 -136q0 -46 -27 -90t-75 -66q56 -17 91 -65t35 -106q0 -90 -64.5 -144t-174.5 -54zM304 57q73 0 115.5 37.5t42.5 95.5t-42.5 95.5t-115.5 37.5
t-115.5 -37.5t-42.5 -95.5t42.5 -95.5t115.5 -37.5zM304 390q61 0 98.5 35.5t37.5 90.5q0 53 -37.5 87t-98.5 34t-98.5 -34t-37.5 -87q0 -55 37.5 -90.5t98.5 -35.5z" />
    <glyph glyph-name="nine" unicode="9" horiz-adv-x="605" 
d="M296 705q113 0 180 -87.5t67 -276.5q0 -184 -71.5 -268t-180.5 -84q-92 0 -149 50.5t-59 126.5h81q5 -49 38.5 -78.5t90.5 -29.5q171 0 175 298q-24 -55 -73.5 -84.5t-111.5 -29.5q-94 0 -157.5 62t-63.5 165q0 110 66 173t168 63zM298 636q-72 0 -114 -45t-42 -120
q0 -72 42 -116t107 -44q68 0 111 47t43 113q0 75 -40 120t-107 45z" />
    <glyph glyph-name="colon" unicode=":" horiz-adv-x="277" 
d="M85 0v107h107v-107h-107zM85 384v107h107v-107h-107z" />
    <glyph glyph-name="semicolon" unicode=";" horiz-adv-x="277" 
d="M85 384v107h107v-107h-107zM192 107v-133q0 -60 -33.5 -92t-94.5 -32v52q71 0 71 67v31h-50v107h107z" />
    <glyph glyph-name="less" unicode="&#x3c;" horiz-adv-x="650" 
d="M90 289v68l432 203v-78l-347 -159l347 -159v-78z" />
    <glyph glyph-name="equal" unicode="=" horiz-adv-x="650" 
d="M92 179v69h466v-69h-466zM92 397v69h466v-69h-466z" />
    <glyph glyph-name="greater" unicode="&#x3e;" horiz-adv-x="650" 
d="M560 357v-68l-432 -203v78l347 159l-347 159v78z" />
    <glyph glyph-name="question" unicode="?" horiz-adv-x="481" 
d="M453 525q0 -45 -19.5 -79.5t-47.5 -55.5t-56 -40t-47.5 -44t-19.5 -57v-17h-68v17q0 44 18.5 78t45 54.5t53 39.5t45 45t18.5 59q0 45 -35.5 77.5t-92.5 32.5q-62 0 -99.5 -35t-40.5 -94h-79q5 91 61.5 145t157.5 54q90 0 148 -51.5t58 -128.5zM176 0v107h107v-107h-107z
" />
    <glyph glyph-name="at" unicode="@" horiz-adv-x="942" 
d="M449 14q-85 0 -142.5 62t-57.5 170q0 107 57.5 169t140.5 62q103 0 153 -74v66h67v-339q0 -57 38 -57q50 0 82.5 61t32.5 160q0 134 -91.5 226t-248.5 92t-256.5 -106t-99.5 -262q0 -155 98.5 -255t249.5 -100q86 0 159 25v-57q-73 -21 -160 -21q-124 0 -219 56.5
t-143.5 148.5t-48.5 202q0 186 120 304.5t300 118.5q182 0 290.5 -108t108.5 -261q0 -130 -51 -206.5t-123 -76.5q-42 0 -69.5 19.5t-33.5 55.5q-53 -75 -153 -75zM463 76q67 0 104 47t37 123t-37 122.5t-104 46.5t-103.5 -46.5t-36.5 -122.5t37 -123t103 -47z" />
    <glyph glyph-name="A" unicode="A" horiz-adv-x="715" 
d="M601 0l-80 200h-331l-80 -200h-83l282 694h96l283 -694h-87zM356 617l-138 -346h275z" />
    <glyph glyph-name="B" unicode="B" horiz-adv-x="682" 
d="M93 0v694h269q110 0 169.5 -48.5t59.5 -139.5q0 -47 -26 -86.5t-67 -55.5q53 -11 90.5 -56t37.5 -112q0 -90 -59.5 -143t-173.5 -53h-300zM507 506q0 116 -145 116h-188v-231h188q145 0 145 115zM542 196q0 126 -152 126h-216v-251h214q154 0 154 125z" />
    <glyph glyph-name="C" unicode="C" horiz-adv-x="725" 
d="M137 347q0 -129 69 -207.5t173 -78.5q78 0 135.5 46.5t72.5 125.5h86q-15 -110 -95 -177t-199 -67q-145 0 -236 99t-91 259t91 259t236 99q119 0 199 -67t95 -177h-86q-15 79 -72.5 125.5t-135.5 46.5q-104 0 -173 -78.5t-69 -207.5z" />
    <glyph glyph-name="D" unicode="D" horiz-adv-x="728" 
d="M676 347q0 -156 -90.5 -251.5t-247.5 -95.5h-246v694h246q157 0 247.5 -96t90.5 -251zM591 347q0 124 -68 199.5t-188 75.5h-162v-550h162q120 0 188 75.5t68 199.5z" />
    <glyph glyph-name="E" unicode="E" horiz-adv-x="644" 
d="M93 0v694h487v-72h-406v-230h370v-72h-370v-247h411v-73h-492z" />
    <glyph glyph-name="F" unicode="F" horiz-adv-x="589" 
d="M93 0v694h461v-72h-380v-230h332v-72h-332v-320h-81z" />
    <glyph glyph-name="G" unicode="G" horiz-adv-x="766" 
d="M389 283v72h294v-355h-72v117q-74 -128 -241 -128q-144 0 -231 101t-87 257q0 159 90.5 258.5t236.5 99.5q116 0 199 -64.5t100 -179.5h-86q-14 79 -74 125.5t-138 46.5q-107 0 -175 -79.5t-68 -206.5q0 -128 66.5 -207.5t171.5 -79.5q92 0 160.5 57.5t72.5 165.5h-219z
" />
    <glyph glyph-name="H" unicode="H" horiz-adv-x="744" 
d="M93 0v694h81v-294h396v294h81v-694h-81v327h-396v-327h-81z" />
    <glyph glyph-name="I" unicode="I" horiz-adv-x="267" 
d="M93 0v694h81v-694h-81z" />
    <glyph glyph-name="J" unicode="J" horiz-adv-x="594" 
d="M277 61q73 0 114.5 44.5t41.5 127.5v461h81v-461q0 -107 -58.5 -175.5t-178.5 -68.5t-178.5 68.5t-58.5 175.5v23h81v-23q0 -83 41.5 -127.5t114.5 -44.5z" />
    <glyph glyph-name="K" unicode="K" horiz-adv-x="671" 
d="M93 0v694h81v-362l370 362h107l-298 -292l294 -402h-100l-255 349l-118 -115v-234h-81z" />
    <glyph glyph-name="L" unicode="L" horiz-adv-x="585" 
d="M93 0v694h81v-620h374v-74h-455z" />
    <glyph glyph-name="M" unicode="M" horiz-adv-x="907" 
d="M404 0l-233 611v-611h-79v694h126l236 -618l236 618h125v-694h-79v611l-233 -611h-99z" />
    <glyph glyph-name="N" unicode="N" horiz-adv-x="756" 
d="M663 694v-694h-109l-383 605v-605h-78v694h109l383 -605v605h78z" />
    <glyph glyph-name="O" unicode="O" horiz-adv-x="766" 
d="M714 347q0 -161 -91.5 -259.5t-239.5 -98.5t-239.5 98.5t-91.5 259.5t91.5 259.5t239.5 98.5t239.5 -98.5t91.5 -259.5zM629 347q0 132 -70 209t-176 77t-176 -77t-70 -209t70 -209t176 -77t176 77t70 209z" />
    <glyph glyph-name="P" unicode="P" horiz-adv-x="645" 
d="M608 484q0 -210 -250 -210h-184v-274h-81v694h265q250 0 250 -210zM524 484q0 72 -39.5 105t-126.5 33h-184v-276h184q87 0 126.5 33t39.5 105z" />
    <glyph glyph-name="Q" unicode="Q" horiz-adv-x="766" 
d="M383 -11q-148 0 -239.5 98.5t-91.5 259.5t91.5 259.5t239.5 98.5t239.5 -98.5t91.5 -259.5q0 -103 -38.5 -182t-108.5 -124l139 -167h-101l-111 132q-53 -17 -111 -17zM383 61q106 0 176 77t70 209t-70 209t-176 77t-176 -77t-70 -209t70 -209t176 -77z" />
    <glyph glyph-name="R" unicode="R" horiz-adv-x="699" 
d="M93 0v694h292q114 0 177.5 -51.5t63.5 -147.5q0 -152 -159 -189l190 -306h-94l-184 297h-205v-297h-81zM174 368h208q160 0 160 127t-160 127h-208v-254z" />
    <glyph glyph-name="S" unicode="S" horiz-adv-x="651" 
d="M330 -11q-125 0 -200.5 55.5t-79.5 158.5h84q6 -67 60.5 -105.5t137.5 -38.5q82 0 132.5 35t50.5 91q0 81 -98 104l-192 45q-73 17 -113 62.5t-40 117.5q0 84 70 137.5t177 53.5q111 0 184 -56.5t74 -150.5h-84q-6 68 -53 102.5t-120 34.5q-74 0 -121 -33.5t-47 -87.5
q0 -82 98 -104l192 -45q73 -17 113 -63t40 -118q0 -87 -71.5 -141t-193.5 -54z" />
    <glyph glyph-name="T" unicode="T" horiz-adv-x="633" 
d="M30 620v74h573v-74h-246v-620h-81v620h-246z" />
    <glyph glyph-name="U" unicode="U" horiz-adv-x="702" 
d="M351 -11q-123 0 -198.5 71t-75.5 205v429h81v-429q0 -96 52 -150t141 -54t141 54t52 150v429h81v-429q0 -134 -75.5 -205t-198.5 -71z" />
    <glyph glyph-name="V" unicode="V" horiz-adv-x="663" 
d="M111 694l220 -610l224 610h83l-258 -694h-101l-254 694h86z" />
    <glyph glyph-name="W" unicode="W" horiz-adv-x="1008" 
d="M788 0h-110l-174 619l-174 -619h-110l-189 694h84l164 -616l174 616h104l174 -616l164 616h82z" />
    <glyph glyph-name="X" unicode="X" horiz-adv-x="660" 
d="M121 0h-96l257 346l-257 348h100l205 -286l209 286h96l-257 -347l257 -347h-100l-205 285z" />
    <glyph glyph-name="Y" unicode="Y" horiz-adv-x="636" 
d="M277 0v267l-274 427h96l220 -349l221 349h93l-275 -427v-267h-81z" />
    <glyph glyph-name="Z" unicode="Z" horiz-adv-x="623" 
d="M74 694h495v-62l-424 -559h438v-73h-543v62l424 559h-390v73z" />
    <glyph glyph-name="bracketleft" unicode="[" horiz-adv-x="325" 
d="M295 646h-134v-682h134v-65h-205v812h205v-65z" />
    <glyph glyph-name="backslash" unicode="\" horiz-adv-x="430" 
d="M327 -101l-297 812h73l297 -812h-73z" />
    <glyph glyph-name="bracketright" unicode="]" horiz-adv-x="325" 
d="M235 -101h-205v65h134v682h-134v65h205v-812z" />
    <glyph glyph-name="asciicircum" unicode="^" horiz-adv-x="457" 
d="M35 444l162 250h63l162 -250h-76l-118 181l-117 -181h-76z" />
    <glyph glyph-name="underscore" unicode="_" horiz-adv-x="500" 
d="M40 -100v66h420v-66h-420z" />
    <glyph glyph-name="grave" unicode="`" horiz-adv-x="283" 
d="M25 694h97l73 -139h-62z" />
    <glyph glyph-name="a" unicode="a" horiz-adv-x="547" 
d="M470 0h-70v76q-56 -85 -182 -85q-70 0 -117.5 36.5t-47.5 102.5q0 63 43.5 99t113.5 48l187 32v26q0 100 -128 100q-55 0 -87 -21.5t-34 -63.5h-78q3 74 60.5 112t138.5 38q92 0 146.5 -40.5t54.5 -124.5v-335zM228 55q71 0 120 39t49 115v38l-170 -29q-97 -17 -97 -89
q0 -34 25.5 -54t72.5 -20z" />
    <glyph glyph-name="b" unicode="b" horiz-adv-x="593" 
d="M323 500q93 0 156.5 -68t63.5 -187q0 -118 -63.5 -186t-154.5 -68q-116 0 -170 81v-72h-72v694h75v-274q57 80 165 80zM307 434q-74 0 -115.5 -52.5t-41.5 -136.5t41 -136t116 -52t116 52t41 136t-41.5 136.5t-115.5 52.5z" />
    <glyph glyph-name="c" unicode="c" horiz-adv-x="549" 
d="M128 246q0 -84 41.5 -136.5t115.5 -52.5q52 0 88.5 29t43.5 80h78q-9 -80 -66 -127.5t-144 -47.5q-105 0 -170.5 69t-65.5 186t65.5 185.5t170.5 68.5q87 0 144 -47.5t66 -127.5h-78q-7 51 -43.5 80t-88.5 29q-75 0 -116 -52t-41 -136z" />
    <glyph glyph-name="d" unicode="d" horiz-adv-x="593" 
d="M270 500q108 0 165 -80v274h75v-694h-72v72q-54 -81 -170 -81q-91 0 -154.5 68t-63.5 186q0 119 63.5 187t156.5 68zM286 434q-74 0 -115.5 -52.5t-41.5 -136.5t41 -136t116 -52t116 52t41 136t-41.5 136.5t-115.5 52.5z" />
    <glyph glyph-name="e" unicode="e" horiz-adv-x="558" 
d="M49 246q0 115 65 184.5t168 69.5q100 0 162 -65t62 -186q0 -17 -1 -28h-378q3 -69 43.5 -117t108.5 -48q51 0 88.5 23.5t50.5 69.5h79q-16 -77 -75 -117.5t-141 -40.5q-102 0 -167 68.5t-65 186.5zM128 282h300q-3 73 -43 113t-102 40q-63 0 -104 -40t-51 -113z" />
    <glyph glyph-name="f" unicode="f" horiz-adv-x="356" 
d="M328 696v-68q-27 6 -58 6q-41 0 -61.5 -21.5t-20.5 -69.5v-52h140v-66h-140v-425h-75v425h-81v66h81v55q0 76 40.5 116t111.5 40q36 0 63 -6z" />
    <glyph glyph-name="g" unicode="g" horiz-adv-x="584" 
d="M501 491v-475q0 -98 -60 -149.5t-162 -51.5q-100 0 -155.5 42.5t-57.5 110.5h78q4 -44 39.5 -66t93.5 -22q67 0 108 32.5t41 103.5v68q-58 -70 -153 -70q-91 0 -157 64.5t-66 176.5q0 114 64.5 179.5t155.5 65.5q103 0 159 -76v67h72zM128 257q0 -80 40 -129t112 -49
q73 0 113 49t40 129t-40 129t-113 49q-72 0 -112 -49t-40 -129z" />
    <glyph glyph-name="h" unicode="h" horiz-adv-x="572" 
d="M420 0v293q0 141 -118 141q-67 0 -105.5 -46t-38.5 -113v-275h-75v694h75v-274q54 80 163 80q83 0 128.5 -51t45.5 -140v-309h-75z" />
    <glyph glyph-name="i" unicode="i" horiz-adv-x="241" 
d="M83 491h75v-491h-75v491zM75 583v91h91v-91h-91z" />
    <glyph glyph-name="j" unicode="j" horiz-adv-x="241" 
d="M-41 -176v68q26 -4 46 -4q78 0 78 90v513h75v-515q0 -76 -40 -116t-111 -40q-24 0 -48 4zM75 583v91h91v-91h-91z" />
    <glyph glyph-name="k" unicode="k" horiz-adv-x="524" 
d="M291 293l215 -293h-92l-182 247l-74 -71v-176h-75v694h75v-429l240 226h104z" />
    <glyph glyph-name="l" unicode="l" horiz-adv-x="241" 
d="M83 694h75v-694h-75v694z" />
    <glyph glyph-name="m" unicode="m" horiz-adv-x="866" 
d="M789 310v-310h-74v307q0 127 -114 127q-51 0 -89 -37.5t-38 -104.5v-292h-75v300q0 70 -28 102t-86 32q-53 0 -90 -43.5t-37 -115.5v-275h-75v491h72v-73q52 82 149 82q108 0 150 -87q59 87 165 87q77 0 123.5 -47.5t46.5 -142.5z" />
    <glyph glyph-name="n" unicode="n" horiz-adv-x="572" 
d="M158 0h-75v491h72v-74q56 83 166 83q83 0 128.5 -51t45.5 -140v-309h-75v293q0 141 -118 141q-67 0 -105.5 -46t-38.5 -113v-275z" />
    <glyph glyph-name="o" unicode="o" horiz-adv-x="570" 
d="M285 -9q-105 0 -170.5 68.5t-65.5 185.5t65.5 186t170.5 69t170.5 -69t65.5 -186t-65.5 -185.5t-170.5 -68.5zM285 57q75 0 116 52t41 136t-41.5 136.5t-115.5 52.5t-115.5 -52.5t-41.5 -136.5t41 -136t116 -52z" />
    <glyph glyph-name="p" unicode="p" horiz-adv-x="593" 
d="M323 -9q-108 0 -165 80v-246h-75v666h72v-72q54 81 170 81q91 0 154.5 -68t63.5 -186q0 -119 -63.5 -187t-156.5 -68zM307 57q74 0 115.5 52.5t41.5 136.5t-41 136t-116 52t-116 -52t-41 -136t41.5 -136.5t115.5 -52.5z" />
    <glyph glyph-name="q" unicode="q" horiz-adv-x="593" 
d="M270 -9q-93 0 -156.5 68t-63.5 187q0 118 63.5 186t154.5 68q116 0 170 -81v72h72v-666h-75v246q-57 -80 -165 -80zM286 57q74 0 115.5 52.5t41.5 136.5t-41 136t-116 52t-116 -52t-41 -136t41.5 -136.5t115.5 -52.5z" />
    <glyph glyph-name="r" unicode="r" horiz-adv-x="369" 
d="M345 498v-79q-18 1 -46 1q-60 0 -100.5 -40t-40.5 -109v-271h-75v491h72v-90q23 49 65.5 73.5t89.5 24.5q18 0 35 -1z" />
    <glyph glyph-name="s" unicode="s" horiz-adv-x="515" 
d="M67 357q0 64 53.5 103.5t137.5 39.5q79 0 136 -39t59 -111h-78q-2 42 -33.5 64t-83.5 22t-83 -21.5t-31 -54.5q0 -52 81 -69l101 -20q136 -27 136 -134q0 -65 -54.5 -105.5t-146.5 -40.5q-93 0 -150.5 43t-58.5 115h78q3 -44 37 -69t96 -25q122 0 122 79q0 52 -81 69
l-101 20q-136 27 -136 134z" />
    <glyph glyph-name="t" unicode="t" horiz-adv-x="365" 
d="M29 425v66h84v130h72v-130h140v-66h-140v-272q0 -92 68 -92q36 0 72 9v-68q-43 -9 -84 -9q-62 0 -96.5 37.5t-34.5 107.5v287h-81z" />
    <glyph glyph-name="u" unicode="u" horiz-adv-x="564" 
d="M406 491h75v-491h-72v74q-55 -83 -162 -83q-80 0 -125 51t-45 140v309h75v-293q0 -141 114 -141q64 0 102 46t38 113v275z" />
    <glyph glyph-name="v" unicode="v" horiz-adv-x="508" 
d="M255 75l150 416h79l-184 -491h-92l-184 491h81z" />
    <glyph glyph-name="w" unicode="w" horiz-adv-x="764" 
d="M382 410l-113 -410h-96l-143 491h78l116 -420l114 420h90l114 -420l116 420h76l-143 -491h-96z" />
    <glyph glyph-name="x" unicode="x" horiz-adv-x="508" 
d="M120 0h-88l177 247l-178 244h90l135 -188l130 188h88l-176 -244l179 -247h-90l-135 190z" />
    <glyph glyph-name="y" unicode="y" horiz-adv-x="507" 
d="M277 -61q-24 -63 -61.5 -91t-98.5 -28q-34 0 -61 5v69q27 -6 57 -6q41 0 64 17.5t35 54.5l6 16l-193 515h81l150 -416l150 416h79z" />
    <glyph glyph-name="z" unicode="z" horiz-adv-x="486" 
d="M56 491h383v-54l-293 -370h288v-67h-390v54l293 370h-281v67z" />
    <glyph glyph-name="braceleft" unicode="{" horiz-adv-x="369" 
d="M339 -36v-65h-74q-71 0 -100 40.5t-29 118.5v102q0 60 -21.5 82.5t-74.5 27.5v70q53 5 74.5 27.5t21.5 82.5v102q0 78 29 118.5t100 40.5h74v-65h-50q-49 0 -66 -18.5t-17 -81.5v-111q0 -111 -90 -130q90 -19 90 -130v-111q0 -63 17 -81.5t66 -18.5h50z" />
    <glyph glyph-name="bar" unicode="|" horiz-adv-x="291" 
d="M110 -101v812h71v-812h-71z" />
    <glyph glyph-name="braceright" unicode="}" horiz-adv-x="369" 
d="M30 -101v66h50q49 0 66 18t17 81v111q0 111 90 130q-90 19 -90 130v111q0 63 -17 81t-66 18h-50v66h74q71 0 100 -40.5t29 -118.5v-102q0 -60 21.5 -82.5t74.5 -27.5v-70q-53 -5 -74.5 -27.5t-21.5 -82.5v-102q0 -78 -29 -118.5t-100 -40.5h-74z" />
    <glyph glyph-name="asciitilde" unicode="~" horiz-adv-x="650" 
d="M454 259q-41 0 -133.5 30t-117.5 30q-37 0 -37 -49v-13h-71v23q0 46 28 76t73 30q40 0 133 -29.5t118 -29.5q37 0 37 48v13h71v-23q0 -46 -28 -76t-73 -30z" />
    <glyph glyph-name="uni00A0" unicode="&#xa0;" horiz-adv-x="225" 
 />
    <glyph glyph-name="exclamdown" unicode="&#xa1;" horiz-adv-x="277" 
d="M115 259h47l17 -330v-132h-81v132zM85 384v107h107v-107h-107z" />
    <glyph glyph-name="cent" unicode="&#xa2;" horiz-adv-x="583" 
d="M326 0h-63v95q-93 12 -148 77.5t-55 174.5t55 173.5t148 77.5v96h63v-94q82 -5 135 -51.5t62 -122.5h-78q-6 46 -39 74.5t-80 33.5v-375q47 5 80 33t39 75h78q-9 -76 -62 -123t-135 -52v-92zM139 347q0 -76 32 -123.5t92 -61.5v368q-60 -13 -92 -60t-32 -123z" />
    <glyph glyph-name="sterling" unicode="&#xa3;" horiz-adv-x="638" 
d="M85 276v63h79q-1 3 -14.5 34t-18 43.5t-10.5 39.5t-6 51q0 80 58.5 139t154.5 59q106 0 167.5 -60.5t61.5 -163.5h-80q0 74 -40.5 114t-106.5 40q-62 0 -97.5 -36t-35.5 -92q0 -29 8 -57t25 -65t21 -46h210v-63h-191q4 -24 4 -35q0 -119 -69 -168h358v-73h-478v73
q51 19 81 55t30 105q0 17 -7 43h-104z" />
    <glyph glyph-name="currency" unicode="&#xa4;" horiz-adv-x="544" 
d="M272 132q-63 0 -109 32l-58 -58l-49 48l59 60q-28 45 -28 107q0 60 29 108l-61 61l49 49l60 -61q47 32 108 32t107 -32l61 61l49 -49l-62 -61q30 -47 30 -108q0 -60 -29 -107l60 -60l-49 -48l-58 58q-47 -32 -109 -32zM272 195q51 0 81.5 35t30.5 91t-30.5 91t-81.5 35
t-81.5 -35t-30.5 -91t30.5 -91t81.5 -35z" />
    <glyph glyph-name="yen" unicode="&#xa5;" horiz-adv-x="660" 
d="M368 0h-77v123h-189v62h189v82h-189v61h150l-235 366h92l222 -353l224 353h88l-236 -366h150v-61h-189v-82h189v-62h-189v-123z" />
    <glyph glyph-name="brokenbar" unicode="&#xa6;" horiz-adv-x="291" 
d="M110 -101v356h71v-356h-71zM110 354v357h71v-357h-71z" />
    <glyph glyph-name="section" unicode="&#xa7;" horiz-adv-x="555" 
d="M498 240q0 -89 -96 -128q51 -46 51 -109q0 -65 -52 -106.5t-134 -41.5q-79 0 -136 39t-59 111h78q2 -42 33.5 -64t83.5 -22q51 0 80 23.5t29 57.5q0 32 -23 55t-66 48l-121 70q-60 36 -84.5 68t-24.5 79q0 90 96 127q-51 46 -51 110q0 65 52 106.5t134 41.5q79 0 136 -39
t59 -111h-78q-2 42 -33.5 64t-83.5 22q-51 0 -80 -23.5t-29 -57.5q0 -32 23 -55t66 -48l121 -70q60 -36 84.5 -68t24.5 -79zM352 323l-147 86q-37 -8 -55 -31t-18 -52q0 -47 71 -89l147 -86q37 8 55 31t18 52q0 47 -71 89z" />
    <glyph glyph-name="dieresis" unicode="&#xa8;" horiz-adv-x="389" 
d="M55 583v91h91v-91h-91zM243 583v91h91v-91h-91z" />
    <glyph glyph-name="copyright" unicode="&#xa9;" horiz-adv-x="827" 
d="M55 347q0 150 104 254t254 104t254.5 -104t104.5 -254t-104.5 -254t-254.5 -104t-254 104t-104 254zM112 347q0 -128 87.5 -216.5t213.5 -88.5t214 89t88 216t-88 216t-214 89t-213.5 -88.5t-87.5 -216.5zM287 346q0 -69 34.5 -111t96.5 -42q43 0 73 23.5t36 66.5h69
q-7 -68 -55.5 -108t-122.5 -40q-89 0 -144.5 56.5t-55.5 154.5q0 99 55 155.5t145 56.5q74 0 122.5 -40t55.5 -108h-69q-6 43 -36 66.5t-73 23.5q-63 0 -97 -42t-34 -112z" />
    <glyph glyph-name="ordfeminine" unicode="&#xaa;" horiz-adv-x="425" 
d="M65 234v57h300v-57h-300zM354 369h-59v52q-37 -58 -122 -58q-48 0 -80 24.5t-32 69.5q0 82 107 100l123 21v15q0 63 -78 63q-73 0 -76 -54h-64q2 51 41 77t99 26q141 0 141 -117v-219zM187 413q44 0 74 24t30 71v24l-105 -18q-61 -10 -61 -55q0 -21 16 -33.5t46 -12.5z
" />
    <glyph glyph-name="guillemotleft" unicode="&#xab;" horiz-adv-x="502" 
d="M139 234l113 -200h-73l-129 200l129 200h73zM329 234l113 -200h-73l-129 200l129 200h73z" />
    <glyph glyph-name="logicalnot" unicode="&#xac;" horiz-adv-x="650" 
d="M81 288v69h467v-287h-71v218h-396z" />
    <glyph glyph-name="uni00AD" unicode="&#xad;" horiz-adv-x="384" 
d="M60 231v73h264v-73h-264z" />
    <glyph glyph-name="registered" unicode="&#xae;" horiz-adv-x="567" 
d="M55 476q0 95 67 162t161 67q95 0 162 -67.5t67 -161.5t-67 -161t-162 -67t-161.5 67t-66.5 161zM100 476q0 -78 53.5 -132.5t129.5 -54.5q77 0 130.5 54.5t53.5 132.5t-54 133t-130 55t-129.5 -55t-53.5 -133zM190 363v237h109q92 0 92 -78q0 -23 -13 -42.5t-36 -26.5
l59 -90h-50l-52 84h-63v-84h-46zM344 521q0 19 -10.5 30t-27.5 11h-70v-80h70q38 0 38 39z" />
    <glyph glyph-name="macron" unicode="&#xaf;" horiz-adv-x="376" 
d="M321 596h-266v63h266v-63z" />
    <glyph glyph-name="degree" unicode="&#xb0;" horiz-adv-x="399" 
d="M55 564q0 59 42 100t102 41t102.5 -41.5t42.5 -99.5t-42.5 -99t-102.5 -41t-102 41t-42 99zM116 564q0 -36 24.5 -61.5t58.5 -25.5q35 0 59.5 25.5t24.5 61.5t-25 62t-59 26t-58.5 -26t-24.5 -62z" />
    <glyph glyph-name="plusminus" unicode="&#xb1;" horiz-adv-x="650" 
d="M72 358v69h216v188h71v-188h218v-69h-218v-188h-71v188h-216zM72 0v69h505v-69h-505z" />
    <glyph glyph-name="twosuperior" unicode="&#xb2;" horiz-adv-x="337" 
d="M304 320h-258v54l146 146q15 15 22.5 23.5t14.5 22.5t7 28q0 24 -18 39t-47 15q-32 0 -50 -18.5t-18 -50.5h-62q0 55 35 88.5t97 33.5q56 0 90 -30t34 -75q0 -53 -62 -115l-105 -105h174v-56z" />
    <glyph glyph-name="threesuperior" unicode="&#xb3;" horiz-adv-x="350" 
d="M172 313q-63 0 -98.5 29.5t-37.5 81.5h60q2 -28 22.5 -45t53.5 -17q35 0 56 18t21 49q0 58 -87 58h-17v48h11q39 0 60.5 16.5t21.5 44.5q0 24 -19 38.5t-47 14.5q-31 0 -49.5 -17.5t-18.5 -47.5h-62q-1 53 34.5 85t98.5 32q57 0 89.5 -30.5t32.5 -74.5q0 -26 -16.5 -48.5
t-42.5 -34.5q29 -4 50.5 -27t21.5 -59q0 -53 -36 -83.5t-102 -30.5z" />
    <glyph glyph-name="acute" unicode="&#xb4;" horiz-adv-x="283" 
d="M161 694h97l-108 -139h-62z" />
    <glyph glyph-name="mu" unicode="&#xb5;" horiz-adv-x="584" 
d="M419 491h75v-491h-72v74q-55 -83 -162 -83q-56 0 -95 30v-196h-75v666h75v-293q0 -141 114 -141q64 0 102 46t38 113v275z" />
    <glyph glyph-name="paragraph" unicode="&#xb6;" horiz-adv-x="647" 
d="M50 484q0 210 250 210h85v-694h-81v274h-4q-250 0 -250 210zM466 0v694h81v-694h-81z" />
    <glyph glyph-name="periodcentered" unicode="&#xb7;" horiz-adv-x="267" 
d="M80 220v107h107v-107h-107z" />
    <glyph glyph-name="cedilla" unicode="&#xb8;" horiz-adv-x="318" 
d="M263 -107q-1 -38 -33.5 -58t-83.5 -20q-39 0 -72 11v51q37 -15 76 -15q55 0 55 33q0 28 -46 28q-19 0 -46 -10l-19 29l55 70h41l-37 -55q10 2 25 2q81 0 85 -66z" />
    <glyph glyph-name="onesuperior" unicode="&#xb9;" horiz-adv-x="280" 
d="M198 320h-61v308l-100 -65v65l102 66h59v-374z" />
    <glyph glyph-name="ordmasculine" unicode="&#xba;" horiz-adv-x="425" 
d="M65 234v57h300v-57h-300zM213 363q-73 0 -118.5 46t-45.5 125q0 78 45.5 124.5t118.5 46.5q74 0 119.5 -46t45.5 -125t-45.5 -125t-119.5 -46zM213 415q47 0 72 32.5t25 86.5t-25 87t-72 33q-46 0 -71 -33t-25 -87q0 -53 25 -86t71 -33z" />
    <glyph glyph-name="guillemotright" unicode="&#xbb;" horiz-adv-x="502" 
d="M250 34l113 200l-113 200h73l129 -200l-129 -200h-73zM60 34l113 200l-113 200h73l129 -200l-129 -200h-73z" />
    <glyph glyph-name="onequarter" unicode="&#xbc;" horiz-adv-x="775" 
d="M90 0l518 694h68l-516 -694h-70zM188 320h-61v308l-100 -65v65l102 66h59v-374zM688 0h-58v80h-194v54l182 240h70v-242h52v-52h-52v-80zM630 132v174l-130 -174h130z" />
    <glyph glyph-name="onehalf" unicode="&#xbd;" horiz-adv-x="800" 
d="M90 0l518 694h68l-516 -694h-70zM188 320h-61v308l-100 -65v65l102 66h59v-374zM767 0h-258v54l146 146q15 15 22.5 23.5t14.5 22.5t7 28q0 24 -18 39t-47 15q-32 0 -50 -18.5t-18 -50.5h-62q0 55 35 88.5t97 33.5q56 0 90 -30t34 -75q0 -53 -62 -115l-105 -105h174v-56z
" />
    <glyph glyph-name="threequarters" unicode="&#xbe;" horiz-adv-x="845" 
d="M160 0l518 694h68l-516 -694h-70zM172 313q-63 0 -98.5 29.5t-37.5 81.5h60q2 -28 22.5 -45t53.5 -17q35 0 56 18t21 49q0 58 -87 58h-17v48h11q39 0 60.5 16.5t21.5 44.5q0 24 -19 38.5t-47 14.5q-31 0 -49.5 -17.5t-18.5 -47.5h-62q-1 53 34.5 85t98.5 32
q57 0 89.5 -30.5t32.5 -74.5q0 -26 -16.5 -48.5t-42.5 -34.5q29 -4 50.5 -27t21.5 -59q0 -53 -36 -83.5t-102 -30.5zM758 0h-58v80h-194v54l182 240h70v-242h52v-52h-52v-80zM700 132v174l-130 -174h130z" />
    <glyph glyph-name="questiondown" unicode="&#xbf;" horiz-adv-x="481" 
d="M28 -34q0 45 19.5 79.5t47.5 55.5t56 40t47.5 44t19.5 57v17h68v-17q0 -44 -18.5 -78t-45 -54.5t-53 -39.5t-45 -45t-18.5 -59q0 -45 35.5 -77.5t92.5 -32.5q62 0 99.5 35t40.5 94h79q-5 -91 -61.5 -145t-157.5 -54q-90 0 -148 51.5t-58 128.5zM305 491v-107h-107v107
h107z" />
    <glyph glyph-name="Agrave" unicode="&#xc0;" horiz-adv-x="715" 
d="M601 0l-80 200h-331l-80 -200h-83l282 694h96l283 -694h-87zM356 617l-138 -346h275zM219 886h97l73 -139h-62z" />
    <glyph glyph-name="Aacute" unicode="&#xc1;" horiz-adv-x="715" 
d="M601 0l-80 200h-331l-80 -200h-83l282 694h96l283 -694h-87zM356 617l-138 -346h275zM396 886h97l-108 -139h-62z" />
    <glyph glyph-name="Acircumflex" unicode="&#xc2;" horiz-adv-x="715" 
d="M601 0l-80 200h-331l-80 -200h-83l282 694h96l283 -694h-87zM356 617l-138 -346h275zM315 886h81l105 -139h-69l-76 83l-76 -83h-69z" />
    <glyph glyph-name="Atilde" unicode="&#xc3;" horiz-adv-x="715" 
d="M601 0l-80 200h-331l-80 -200h-83l282 694h96l283 -694h-87zM356 617l-138 -346h275zM421 751q-29 0 -69.5 29.5t-54.5 29.5q-35 0 -35 -54h-56q0 117 86 117q29 0 70 -29.5t54 -29.5q16 0 26 14t10 40h55q0 -117 -86 -117z" />
    <glyph glyph-name="Adieresis" unicode="&#xc4;" horiz-adv-x="715" 
d="M601 0l-80 200h-331l-80 -200h-83l282 694h96l283 -694h-87zM356 617l-138 -346h275zM216 765v91h91v-91h-91zM404 765v91h91v-91h-91z" />
    <glyph glyph-name="Aring" unicode="&#xc5;" horiz-adv-x="715" 
d="M252 746q0 42 30.5 71.5t73.5 29.5q44 0 74.5 -29.5t30.5 -71.5q0 -52 -45 -82l272 -664h-87l-80 200h-331l-80 -200h-83l270 663q-45 29 -45 83zM356 616l-138 -345h275zM304 746q0 -23 14 -38t38 -15q23 0 38 15t15 38t-15.5 39t-37.5 16t-37 -16t-15 -39z" />
    <glyph glyph-name="AE" unicode="&#xc6;" horiz-adv-x="1061" 
d="M1002 0h-492v200h-293l-140 -200h-92l487 694h525v-72h-406v-230h370v-72h-370v-247h411v-73zM510 271v346l-243 -346h243z" />
    <glyph glyph-name="Ccedilla" unicode="&#xc7;" horiz-adv-x="725" 
d="M452 -107q-1 -38 -33.5 -58t-83.5 -20q-39 0 -72 11v51q37 -15 76 -15q55 0 55 33q0 28 -46 28q-18 0 -46 -10l-19 29l40 51q-123 19 -197 114.5t-74 239.5q0 160 91 259t236 99q119 0 199 -67t95 -177h-86q-15 79 -72.5 125.5t-135.5 46.5q-104 0 -173 -78.5t-69 -207.5
t69 -207.5t173 -78.5q78 0 135.5 46.5t72.5 125.5h86q-15 -110 -95 -177t-199 -67h-15l-22 -32q10 2 25 2q81 0 85 -66z" />
    <glyph glyph-name="Egrave" unicode="&#xc8;" horiz-adv-x="644" 
d="M93 0v694h487v-72h-406v-230h370v-72h-370v-247h411v-73h-492zM199 886h97l73 -139h-62z" />
    <glyph glyph-name="Eacute" unicode="&#xc9;" horiz-adv-x="644" 
d="M93 0v694h487v-72h-406v-230h370v-72h-370v-247h411v-73h-492zM376 886h97l-108 -139h-62z" />
    <glyph glyph-name="Ecircumflex" unicode="&#xca;" horiz-adv-x="644" 
d="M93 0v694h487v-72h-406v-230h370v-72h-370v-247h411v-73h-492zM295 886h81l105 -139h-69l-76 83l-76 -83h-69z" />
    <glyph glyph-name="Edieresis" unicode="&#xcb;" horiz-adv-x="644" 
d="M93 0v694h487v-72h-406v-230h370v-72h-370v-247h411v-73h-492zM196 765v91h91v-91h-91zM384 765v91h91v-91h-91z" />
    <glyph glyph-name="Igrave" unicode="&#xcc;" horiz-adv-x="267" 
d="M93 0v694h81v-694h-81zM-4 886h97l73 -139h-62z" />
    <glyph glyph-name="Iacute" unicode="&#xcd;" horiz-adv-x="267" 
d="M93 0v694h81v-694h-81zM173 886h97l-108 -139h-62z" />
    <glyph glyph-name="Icircumflex" unicode="&#xce;" horiz-adv-x="267" 
d="M93 0v694h81v-694h-81zM92 886h81l105 -139h-69l-76 83l-76 -83h-69z" />
    <glyph glyph-name="Idieresis" unicode="&#xcf;" horiz-adv-x="267" 
d="M93 0v694h81v-694h-81zM-7 765v91h91v-91h-91zM181 765v91h91v-91h-91z" />
    <glyph glyph-name="Eth" unicode="&#xd0;" horiz-adv-x="751" 
d="M699 348q0 -156 -90.5 -252t-247.5 -96h-246v314h-80v65h80v315h246q157 0 247.5 -94.5t90.5 -251.5zM614 348q0 124 -68 199t-188 75h-162v-243h153v-65h-153v-242h162q119 0 187.5 76t68.5 200z" />
    <glyph glyph-name="Ntilde" unicode="&#xd1;" horiz-adv-x="756" 
d="M663 694v-694h-109l-383 605v-605h-78v694h109l383 -605v605h78zM443 751q-29 0 -69.5 29.5t-54.5 29.5q-35 0 -35 -54h-56q0 117 86 117q29 0 70 -29.5t54 -29.5q16 0 26 14t10 40h55q0 -117 -86 -117z" />
    <glyph glyph-name="Ograve" unicode="&#xd2;" horiz-adv-x="766" 
d="M714 347q0 -161 -91.5 -259.5t-239.5 -98.5t-239.5 98.5t-91.5 259.5t91.5 259.5t239.5 98.5t239.5 -98.5t91.5 -259.5zM629 347q0 132 -70 209t-176 77t-176 -77t-70 -209t70 -209t176 -77t176 77t70 209zM246 886h97l73 -139h-62z" />
    <glyph glyph-name="Oacute" unicode="&#xd3;" horiz-adv-x="766" 
d="M714 347q0 -161 -91.5 -259.5t-239.5 -98.5t-239.5 98.5t-91.5 259.5t91.5 259.5t239.5 98.5t239.5 -98.5t91.5 -259.5zM629 347q0 132 -70 209t-176 77t-176 -77t-70 -209t70 -209t176 -77t176 77t70 209zM423 886h97l-108 -139h-62z" />
    <glyph glyph-name="Ocircumflex" unicode="&#xd4;" horiz-adv-x="766" 
d="M714 347q0 -161 -91.5 -259.5t-239.5 -98.5t-239.5 98.5t-91.5 259.5t91.5 259.5t239.5 98.5t239.5 -98.5t91.5 -259.5zM629 347q0 132 -70 209t-176 77t-176 -77t-70 -209t70 -209t176 -77t176 77t70 209zM342 886h81l105 -139h-69l-76 83l-76 -83h-69z" />
    <glyph glyph-name="Otilde" unicode="&#xd5;" horiz-adv-x="766" 
d="M714 347q0 -161 -91.5 -259.5t-239.5 -98.5t-239.5 98.5t-91.5 259.5t91.5 259.5t239.5 98.5t239.5 -98.5t91.5 -259.5zM629 347q0 132 -70 209t-176 77t-176 -77t-70 -209t70 -209t176 -77t176 77t70 209zM448 751q-29 0 -69.5 29.5t-54.5 29.5q-35 0 -35 -54h-56
q0 117 86 117q29 0 70 -29.5t54 -29.5q16 0 26 14t10 40h55q0 -117 -86 -117z" />
    <glyph glyph-name="Odieresis" unicode="&#xd6;" horiz-adv-x="766" 
d="M714 347q0 -161 -91.5 -259.5t-239.5 -98.5t-239.5 98.5t-91.5 259.5t91.5 259.5t239.5 98.5t239.5 -98.5t91.5 -259.5zM629 347q0 132 -70 209t-176 77t-176 -77t-70 -209t70 -209t176 -77t176 77t70 209zM243 765v91h91v-91h-91zM431 765v91h91v-91h-91z" />
    <glyph glyph-name="multiply" unicode="&#xd7;" horiz-adv-x="650" 
d="M157 106l-49 48l167 168l-168 168l49 49l168 -168l169 169l49 -49l-169 -169l168 -168l-48 -49l-169 168z" />
    <glyph glyph-name="Oslash" unicode="&#xd8;" horiz-adv-x="776" 
d="M388 -11q-112 0 -195 58l-53 -67h-85l89 112q-87 96 -87 255q0 161 91.5 259.5t239.5 98.5q111 0 194 -58l53 67h86l-89 -113q87 -98 87 -254q0 -161 -91.5 -259.5t-239.5 -98.5zM636 347q0 116 -55 191l-340 -431q63 -48 147 -48q107 0 177.5 77.5t70.5 210.5zM140 347
q0 -116 54 -191l340 431q-63 48 -146 48q-107 0 -177.5 -77.5t-70.5 -210.5z" />
    <glyph glyph-name="Ugrave" unicode="&#xd9;" horiz-adv-x="702" 
d="M351 -11q-123 0 -198.5 71t-75.5 205v429h81v-429q0 -96 52 -150t141 -54t141 54t52 150v429h81v-429q0 -134 -75.5 -205t-198.5 -71zM213 886h97l73 -139h-62z" />
    <glyph glyph-name="Uacute" unicode="&#xda;" horiz-adv-x="702" 
d="M351 -11q-123 0 -198.5 71t-75.5 205v429h81v-429q0 -96 52 -150t141 -54t141 54t52 150v429h81v-429q0 -134 -75.5 -205t-198.5 -71zM390 886h97l-108 -139h-62z" />
    <glyph glyph-name="Ucircumflex" unicode="&#xdb;" horiz-adv-x="702" 
d="M351 -11q-123 0 -198.5 71t-75.5 205v429h81v-429q0 -96 52 -150t141 -54t141 54t52 150v429h81v-429q0 -134 -75.5 -205t-198.5 -71zM309 886h81l105 -139h-69l-76 83l-76 -83h-69z" />
    <glyph glyph-name="Udieresis" unicode="&#xdc;" horiz-adv-x="702" 
d="M351 -11q-123 0 -198.5 71t-75.5 205v429h81v-429q0 -96 52 -150t141 -54t141 54t52 150v429h81v-429q0 -134 -75.5 -205t-198.5 -71zM210 765v91h91v-91h-91zM398 765v91h91v-91h-91z" />
    <glyph glyph-name="Yacute" unicode="&#xdd;" horiz-adv-x="636" 
d="M277 0v267l-274 427h96l220 -349l221 349h93l-275 -427v-267h-81zM360 886h97l-108 -139h-62z" />
    <glyph glyph-name="Thorn" unicode="&#xde;" horiz-adv-x="648" 
d="M608 348q0 -210 -250 -210h-184v-138h-81v694h81v-136h184q250 0 250 -210zM524 348q0 72 -39.5 105t-126.5 33h-184v-276h184q87 0 126.5 33t39.5 105z" />
    <glyph glyph-name="germandbls" unicode="&#xdf;" horiz-adv-x="603" 
d="M295 4v68q42 -15 85 -15q57 0 91 23.5t34 64.5q0 29 -19 49t-57 41l-60 33q-61 35 -61 88q0 31 18.5 58.5t40 45t40 42.5t18.5 51q0 38 -31.5 61.5t-82.5 23.5q-53 0 -88 -28t-35 -87v-523h-75v425h-81v66h81v35q0 84 52 130.5t142 46.5q92 0 141 -43t49 -106
q0 -31 -17.5 -59.5t-39 -45.5t-39 -37.5t-17.5 -38.5q0 -28 38 -49l71 -41q88 -50 88 -136q0 -60 -51 -108t-149 -48q-51 0 -86 13z" />
    <glyph glyph-name="agrave" unicode="&#xe0;" horiz-adv-x="547" 
d="M470 0h-70v76q-56 -85 -182 -85q-70 0 -117.5 36.5t-47.5 102.5q0 63 43.5 99t113.5 48l187 32v26q0 100 -128 100q-55 0 -87 -21.5t-34 -63.5h-78q3 74 60.5 112t138.5 38q92 0 146.5 -40.5t54.5 -124.5v-335zM228 55q71 0 120 39t49 115v38l-170 -29q-97 -17 -97 -89
q0 -34 25.5 -54t72.5 -20zM132 694h97l73 -139h-62z" />
    <glyph glyph-name="aacute" unicode="&#xe1;" horiz-adv-x="547" 
d="M470 0h-70v76q-56 -85 -182 -85q-70 0 -117.5 36.5t-47.5 102.5q0 63 43.5 99t113.5 48l187 32v26q0 100 -128 100q-55 0 -87 -21.5t-34 -63.5h-78q3 74 60.5 112t138.5 38q92 0 146.5 -40.5t54.5 -124.5v-335zM228 55q71 0 120 39t49 115v38l-170 -29q-97 -17 -97 -89
q0 -34 25.5 -54t72.5 -20zM309 694h97l-108 -139h-62z" />
    <glyph glyph-name="acircumflex" unicode="&#xe2;" horiz-adv-x="547" 
d="M470 0h-70v76q-56 -85 -182 -85q-70 0 -117.5 36.5t-47.5 102.5q0 63 43.5 99t113.5 48l187 32v26q0 100 -128 100q-55 0 -87 -21.5t-34 -63.5h-78q3 74 60.5 112t138.5 38q92 0 146.5 -40.5t54.5 -124.5v-335zM228 55q71 0 120 39t49 115v38l-170 -29q-97 -17 -97 -89
q0 -34 25.5 -54t72.5 -20zM228 694h81l105 -139h-69l-76 83l-76 -83h-69z" />
    <glyph glyph-name="atilde" unicode="&#xe3;" horiz-adv-x="547" 
d="M470 0h-70v76q-56 -85 -182 -85q-70 0 -117.5 36.5t-47.5 102.5q0 63 43.5 99t113.5 48l187 32v26q0 100 -128 100q-55 0 -87 -21.5t-34 -63.5h-78q3 74 60.5 112t138.5 38q92 0 146.5 -40.5t54.5 -124.5v-335zM228 55q71 0 120 39t49 115v38l-170 -29q-97 -17 -97 -89
q0 -34 25.5 -54t72.5 -20zM334 569q-29 0 -69.5 29.5t-54.5 29.5q-35 0 -35 -54h-56q0 117 86 117q29 0 70 -29.5t54 -29.5q16 0 26 14t10 40h55q0 -117 -86 -117z" />
    <glyph glyph-name="adieresis" unicode="&#xe4;" horiz-adv-x="547" 
d="M470 0h-70v76q-56 -85 -182 -85q-70 0 -117.5 36.5t-47.5 102.5q0 63 43.5 99t113.5 48l187 32v26q0 100 -128 100q-55 0 -87 -21.5t-34 -63.5h-78q3 74 60.5 112t138.5 38q92 0 146.5 -40.5t54.5 -124.5v-335zM228 55q71 0 120 39t49 115v38l-170 -29q-97 -17 -97 -89
q0 -34 25.5 -54t72.5 -20zM129 583v91h91v-91h-91zM317 583v91h91v-91h-91z" />
    <glyph glyph-name="aring" unicode="&#xe5;" horiz-adv-x="547" 
d="M470 0h-70v76q-56 -85 -182 -85q-70 0 -117.5 36.5t-47.5 102.5q0 63 43.5 99t113.5 48l187 32v26q0 100 -128 100q-55 0 -87 -21.5t-34 -63.5h-78q3 74 60.5 112t138.5 38q92 0 146.5 -40.5t54.5 -124.5v-335zM228 55q71 0 120 39t49 115v38l-170 -29q-97 -17 -97 -89
q0 -34 25.5 -54t72.5 -20zM165 645q0 42 30.5 71.5t73.5 29.5q44 0 74.5 -29.5t30.5 -71.5t-30.5 -71t-74.5 -29t-74 29t-30 71zM217 645q0 -23 14.5 -38t37.5 -15t38 15t15 38t-15.5 39t-37.5 16t-37 -16t-15 -39z" />
    <glyph glyph-name="ae" unicode="&#xe6;" horiz-adv-x="900" 
d="M250 282h147v53q0 100 -128 100q-55 0 -87 -21.5t-34 -63.5h-78q3 74 60.5 112t138.5 38q136 0 181 -81q65 81 174 81q100 0 162 -65t62 -186q0 -17 -1 -28h-377q5 -73 45 -118.5t106 -45.5q52 0 89 23t50 69h79q-16 -77 -75 -117.5t-141 -40.5q-63 0 -113 28.5t-79 81.5
q-25 -48 -80 -79t-133 -31q-71 0 -118 35.5t-47 102.5q0 77 55.5 115t141.5 38zM470 282h300q-3 73 -43 113t-102 40t-103.5 -40t-51.5 -113zM397 209v12h-139q-128 0 -128 -92q0 -34 25.5 -54t72.5 -20q71 0 120 39t49 115z" />
    <glyph glyph-name="ccedilla" unicode="&#xe7;" horiz-adv-x="549" 
d="M367 -107q-1 -38 -33.5 -58t-83.5 -20q-39 0 -72 11v51q38 -15 76 -15q55 0 55 33q0 28 -46 28q-19 0 -46 -10l-19 29l41 53q-86 15 -138 81.5t-52 169.5q0 117 65.5 185.5t170.5 68.5q87 0 144 -47.5t66 -127.5h-78q-7 51 -43.5 80t-88.5 29q-75 0 -116 -52t-41 -136
t41.5 -136.5t115.5 -52.5q52 0 88.5 29t43.5 80h78q-9 -80 -66 -127.5t-144 -47.5h-5l-23 -34q10 2 25 2q81 0 85 -66z" />
    <glyph glyph-name="egrave" unicode="&#xe8;" horiz-adv-x="558" 
d="M49 246q0 115 65 184.5t168 69.5q100 0 162 -65t62 -186q0 -17 -1 -28h-378q3 -69 43.5 -117t108.5 -48q51 0 88.5 23.5t50.5 69.5h79q-16 -77 -75 -117.5t-141 -40.5q-102 0 -167 68.5t-65 186.5zM128 282h300q-3 73 -43 113t-102 40q-63 0 -104 -40t-51 -113zM144 694
h97l73 -139h-62z" />
    <glyph glyph-name="eacute" unicode="&#xe9;" horiz-adv-x="558" 
d="M49 246q0 115 65 184.5t168 69.5q100 0 162 -65t62 -186q0 -17 -1 -28h-378q3 -69 43.5 -117t108.5 -48q51 0 88.5 23.5t50.5 69.5h79q-16 -77 -75 -117.5t-141 -40.5q-102 0 -167 68.5t-65 186.5zM128 282h300q-3 73 -43 113t-102 40q-63 0 -104 -40t-51 -113zM321 694
h97l-108 -139h-62z" />
    <glyph glyph-name="ecircumflex" unicode="&#xea;" horiz-adv-x="558" 
d="M49 246q0 115 65 184.5t168 69.5q100 0 162 -65t62 -186q0 -17 -1 -28h-378q3 -69 43.5 -117t108.5 -48q51 0 88.5 23.5t50.5 69.5h79q-16 -77 -75 -117.5t-141 -40.5q-102 0 -167 68.5t-65 186.5zM128 282h300q-3 73 -43 113t-102 40q-63 0 -104 -40t-51 -113zM240 694
h81l105 -139h-69l-76 83l-76 -83h-69z" />
    <glyph glyph-name="edieresis" unicode="&#xeb;" horiz-adv-x="558" 
d="M49 246q0 115 65 184.5t168 69.5q100 0 162 -65t62 -186q0 -17 -1 -28h-378q3 -69 43.5 -117t108.5 -48q51 0 88.5 23.5t50.5 69.5h79q-16 -77 -75 -117.5t-141 -40.5q-102 0 -167 68.5t-65 186.5zM128 282h300q-3 73 -43 113t-102 40q-63 0 -104 -40t-51 -113zM141 583
v91h91v-91h-91zM329 583v91h91v-91h-91z" />
    <glyph glyph-name="igrave" unicode="&#xec;" horiz-adv-x="241" 
d="M83 491h75v-491h-75v491zM-16 694h97l73 -139h-62z" />
    <glyph glyph-name="iacute" unicode="&#xed;" horiz-adv-x="241" 
d="M83 491h75v-491h-75v491zM161 694h97l-108 -139h-62z" />
    <glyph glyph-name="icircumflex" unicode="&#xee;" horiz-adv-x="241" 
d="M83 491h75v-491h-75v491zM80 694h81l105 -139h-69l-76 83l-76 -83h-69z" />
    <glyph glyph-name="idieresis" unicode="&#xef;" horiz-adv-x="241" 
d="M83 491h75v-491h-75v491zM-19 583v91h91v-91h-91zM169 583v91h91v-91h-91z" />
    <glyph glyph-name="eth" unicode="&#xf0;" horiz-adv-x="570" 
d="M206 535l-17 54l90 25q-48 45 -98 80h95q23 -15 70 -59l111 32l15 -54l-83 -24q56 -64 93 -150.5t37 -172.5q0 -124 -60 -199.5t-174 -75.5q-105 0 -170.5 68.5t-65.5 185.5q0 116 63.5 183.5t162.5 67.5q79 0 134 -53q-33 65 -86 125zM128 245q0 -84 41 -136t116 -52
t116 52t41 136t-41.5 136.5t-115.5 52.5t-115.5 -52.5t-41.5 -136.5z" />
    <glyph glyph-name="ntilde" unicode="&#xf1;" horiz-adv-x="572" 
d="M158 0h-75v491h72v-74q56 83 166 83q83 0 128.5 -51t45.5 -140v-309h-75v293q0 141 -118 141q-67 0 -105.5 -46t-38.5 -113v-275zM354 569q-29 0 -69.5 29.5t-54.5 29.5q-35 0 -35 -54h-56q0 117 86 117q29 0 70 -29.5t54 -29.5q16 0 26 14t10 40h55q0 -117 -86 -117z
" />
    <glyph glyph-name="ograve" unicode="&#xf2;" horiz-adv-x="570" 
d="M285 -9q-105 0 -170.5 68.5t-65.5 185.5t65.5 186t170.5 69t170.5 -69t65.5 -186t-65.5 -185.5t-170.5 -68.5zM285 57q75 0 116 52t41 136t-41.5 136.5t-115.5 52.5t-115.5 -52.5t-41.5 -136.5t41 -136t116 -52zM148 694h97l73 -139h-62z" />
    <glyph glyph-name="oacute" unicode="&#xf3;" horiz-adv-x="570" 
d="M285 -9q-105 0 -170.5 68.5t-65.5 185.5t65.5 186t170.5 69t170.5 -69t65.5 -186t-65.5 -185.5t-170.5 -68.5zM285 57q75 0 116 52t41 136t-41.5 136.5t-115.5 52.5t-115.5 -52.5t-41.5 -136.5t41 -136t116 -52zM325 694h97l-108 -139h-62z" />
    <glyph glyph-name="ocircumflex" unicode="&#xf4;" horiz-adv-x="570" 
d="M285 -9q-105 0 -170.5 68.5t-65.5 185.5t65.5 186t170.5 69t170.5 -69t65.5 -186t-65.5 -185.5t-170.5 -68.5zM285 57q75 0 116 52t41 136t-41.5 136.5t-115.5 52.5t-115.5 -52.5t-41.5 -136.5t41 -136t116 -52zM244 694h81l105 -139h-69l-76 83l-76 -83h-69z" />
    <glyph glyph-name="otilde" unicode="&#xf5;" horiz-adv-x="570" 
d="M285 -9q-105 0 -170.5 68.5t-65.5 185.5t65.5 186t170.5 69t170.5 -69t65.5 -186t-65.5 -185.5t-170.5 -68.5zM285 57q75 0 116 52t41 136t-41.5 136.5t-115.5 52.5t-115.5 -52.5t-41.5 -136.5t41 -136t116 -52zM350 569q-29 0 -69.5 29.5t-54.5 29.5q-35 0 -35 -54h-56
q0 117 86 117q29 0 70 -29.5t54 -29.5q16 0 26 14t10 40h55q0 -117 -86 -117z" />
    <glyph glyph-name="odieresis" unicode="&#xf6;" horiz-adv-x="570" 
d="M285 -9q-105 0 -170.5 68.5t-65.5 185.5t65.5 186t170.5 69t170.5 -69t65.5 -186t-65.5 -185.5t-170.5 -68.5zM285 57q75 0 116 52t41 136t-41.5 136.5t-115.5 52.5t-115.5 -52.5t-41.5 -136.5t41 -136t116 -52zM145 583v91h91v-91h-91zM333 583v91h91v-91h-91z" />
    <glyph glyph-name="divide" unicode="&#xf7;" horiz-adv-x="650" 
d="M92 288v69h466v-69h-466zM272 61v107h107v-107h-107zM272 477v107h107v-107h-107z" />
    <glyph glyph-name="oslash" unicode="&#xf8;" horiz-adv-x="580" 
d="M526 245q0 -117 -65.5 -185.5t-170.5 -68.5q-77 0 -134 37l-38 -48h-81l72 91q-55 68 -55 174q0 117 65.5 186t170.5 69q75 0 132 -37l39 48h82l-73 -91q56 -68 56 -175zM451 245q0 69 -27 117l-226 -282q40 -27 92 -27q76 0 118.5 53t42.5 139zM129 245q0 -69 27 -116
l225 281q-39 28 -91 28q-76 0 -118.5 -53.5t-42.5 -139.5z" />
    <glyph glyph-name="ugrave" unicode="&#xf9;" horiz-adv-x="564" 
d="M406 491h75v-491h-72v74q-55 -83 -162 -83q-80 0 -125 51t-45 140v309h75v-293q0 -141 114 -141q64 0 102 46t38 113v275zM142 694h97l73 -139h-62z" />
    <glyph glyph-name="uacute" unicode="&#xfa;" horiz-adv-x="564" 
d="M406 491h75v-491h-72v74q-55 -83 -162 -83q-80 0 -125 51t-45 140v309h75v-293q0 -141 114 -141q64 0 102 46t38 113v275zM319 694h97l-108 -139h-62z" />
    <glyph glyph-name="ucircumflex" unicode="&#xfb;" horiz-adv-x="564" 
d="M406 491h75v-491h-72v74q-55 -83 -162 -83q-80 0 -125 51t-45 140v309h75v-293q0 -141 114 -141q64 0 102 46t38 113v275zM238 694h81l105 -139h-69l-76 83l-76 -83h-69z" />
    <glyph glyph-name="udieresis" unicode="&#xfc;" horiz-adv-x="564" 
d="M406 491h75v-491h-72v74q-55 -83 -162 -83q-80 0 -125 51t-45 140v309h75v-293q0 -141 114 -141q64 0 102 46t38 113v275zM139 583v91h91v-91h-91zM327 583v91h91v-91h-91z" />
    <glyph glyph-name="yacute" unicode="&#xfd;" horiz-adv-x="507" 
d="M277 -61q-24 -63 -61.5 -91t-98.5 -28q-34 0 -61 5v69q27 -6 57 -6q41 0 64 17.5t35 54.5l6 16l-193 515h81l150 -416l150 416h79zM292 694h97l-108 -139h-62z" />
    <glyph glyph-name="thorn" unicode="&#xfe;" horiz-adv-x="593" 
d="M323 500q93 0 156.5 -68t63.5 -187q0 -118 -63.5 -186t-154.5 -68q-111 0 -167 80v-246h-75v869h75v-274q57 80 165 80zM307 434q-74 0 -115.5 -52.5t-41.5 -136.5t41 -136t116 -52t116 52t41 136t-41.5 136.5t-115.5 52.5z" />
    <glyph glyph-name="ydieresis" unicode="&#xff;" horiz-adv-x="507" 
d="M277 -61q-24 -63 -61.5 -91t-98.5 -28q-34 0 -61 5v69q27 -6 57 -6q41 0 64 17.5t35 54.5l6 16l-193 515h81l150 -416l150 416h79zM112 583v91h91v-91h-91zM300 583v91h91v-91h-91z" />
    <glyph glyph-name="Amacron" unicode="&#x100;" horiz-adv-x="715" 
d="M601 0l-80 200h-331l-80 -200h-83l282 694h96l283 -694h-87zM356 617l-138 -346h275zM489 778h-266v63h266v-63z" />
    <glyph glyph-name="amacron" unicode="&#x101;" horiz-adv-x="547" 
d="M470 0h-70v76q-56 -85 -182 -85q-70 0 -117.5 36.5t-47.5 102.5q0 63 43.5 99t113.5 48l187 32v26q0 100 -128 100q-55 0 -87 -21.5t-34 -63.5h-78q3 74 60.5 112t138.5 38q92 0 146.5 -40.5t54.5 -124.5v-335zM228 55q71 0 120 39t49 115v38l-170 -29q-97 -17 -97 -89
q0 -34 25.5 -54t72.5 -20zM402 596h-266v63h266v-63z" />
    <glyph glyph-name="Abreve" unicode="&#x102;" horiz-adv-x="715" 
d="M601 0l-80 200h-331l-80 -200h-83l282 694h96l283 -694h-87zM356 617l-138 -346h275zM356 739q-60 0 -95 39.5t-35 97.5h58q0 -31 18 -54t55 -23t55 23t18 54h58q0 -58 -35.5 -97.5t-96.5 -39.5z" />
    <glyph glyph-name="abreve" unicode="&#x103;" horiz-adv-x="547" 
d="M470 0h-70v76q-56 -85 -182 -85q-70 0 -117.5 36.5t-47.5 102.5q0 63 43.5 99t113.5 48l187 32v26q0 100 -128 100q-55 0 -87 -21.5t-34 -63.5h-78q3 74 60.5 112t138.5 38q92 0 146.5 -40.5t54.5 -124.5v-335zM228 55q71 0 120 39t49 115v38l-170 -29q-97 -17 -97 -89
q0 -34 25.5 -54t72.5 -20zM269 557q-60 0 -95 39.5t-35 97.5h58q0 -31 18 -54t55 -23t55 23t18 54h58q0 -58 -35.5 -97.5t-96.5 -39.5z" />
    <glyph glyph-name="Aogonek" unicode="&#x104;" horiz-adv-x="715" 
d="M601 0l-80 200h-331l-80 -200h-83l282 694h96l283 -694h-36q-75 -68 -75 -102q0 -32 39 -32q25 0 60 11v-51q-31 -11 -74 -11q-41 0 -65.5 18.5t-24.5 51.5q0 49 89 115zM356 617l-138 -346h275z" />
    <glyph glyph-name="aogonek" unicode="&#x105;" horiz-adv-x="547" 
d="M470 0h-19q-75 -68 -75 -102q0 -32 39 -32q25 0 60 11v-51q-31 -11 -74 -11q-41 0 -65.5 18.5t-24.5 51.5q0 49 89 115v76q-56 -85 -182 -85q-70 0 -117.5 36.5t-47.5 102.5q0 63 43.5 99t113.5 48l187 32v26q0 100 -128 100q-55 0 -87 -21.5t-34 -63.5h-78
q3 74 60.5 112t138.5 38q92 0 146.5 -40.5t54.5 -124.5v-335zM228 55q71 0 120 39t49 115v38l-170 -29q-97 -17 -97 -89q0 -34 25.5 -54t72.5 -20z" />
    <glyph glyph-name="Cacute" unicode="&#x106;" horiz-adv-x="725" 
d="M137 347q0 -129 69 -207.5t173 -78.5q78 0 135.5 46.5t72.5 125.5h86q-15 -110 -95 -177t-199 -67q-145 0 -236 99t-91 259t91 259t236 99q119 0 199 -67t95 -177h-86q-15 79 -72.5 125.5t-135.5 46.5q-104 0 -173 -78.5t-69 -207.5zM419 886h97l-108 -139h-62z" />
    <glyph glyph-name="cacute" unicode="&#x107;" horiz-adv-x="549" 
d="M128 246q0 -84 41.5 -136.5t115.5 -52.5q52 0 88.5 29t43.5 80h78q-9 -80 -66 -127.5t-144 -47.5q-105 0 -170.5 69t-65.5 186t65.5 185.5t170.5 68.5q87 0 144 -47.5t66 -127.5h-78q-7 51 -43.5 80t-88.5 29q-75 0 -116 -52t-41 -136zM325 694h97l-108 -139h-62z" />
    <glyph glyph-name="Ccircumflex" unicode="&#x108;" horiz-adv-x="725" 
d="M137 347q0 -129 69 -207.5t173 -78.5q78 0 135.5 46.5t72.5 125.5h86q-15 -110 -95 -177t-199 -67q-145 0 -236 99t-91 259t91 259t236 99q119 0 199 -67t95 -177h-86q-15 79 -72.5 125.5t-135.5 46.5q-104 0 -173 -78.5t-69 -207.5zM338 886h81l105 -139h-69l-76 83
l-76 -83h-69z" />
    <glyph glyph-name="ccircumflex" unicode="&#x109;" horiz-adv-x="549" 
d="M128 246q0 -84 41.5 -136.5t115.5 -52.5q52 0 88.5 29t43.5 80h78q-9 -80 -66 -127.5t-144 -47.5q-105 0 -170.5 69t-65.5 186t65.5 185.5t170.5 68.5q87 0 144 -47.5t66 -127.5h-78q-7 51 -43.5 80t-88.5 29q-75 0 -116 -52t-41 -136zM244 694h81l105 -139h-69l-76 83
l-76 -83h-69z" />
    <glyph glyph-name="Cdotaccent" unicode="&#x10a;" horiz-adv-x="725" 
d="M137 347q0 -129 69 -207.5t173 -78.5q78 0 135.5 46.5t72.5 125.5h86q-15 -110 -95 -177t-199 -67q-145 0 -236 99t-91 259t91 259t236 99q119 0 199 -67t95 -177h-86q-15 79 -72.5 125.5t-135.5 46.5q-104 0 -173 -78.5t-69 -207.5zM333 765v91h91v-91h-91z" />
    <glyph glyph-name="cdotaccent" unicode="&#x10b;" horiz-adv-x="549" 
d="M128 246q0 -84 41.5 -136.5t115.5 -52.5q52 0 88.5 29t43.5 80h78q-9 -80 -66 -127.5t-144 -47.5q-105 0 -170.5 69t-65.5 186t65.5 185.5t170.5 68.5q87 0 144 -47.5t66 -127.5h-78q-7 51 -43.5 80t-88.5 29q-75 0 -116 -52t-41 -136zM239 583v91h91v-91h-91z" />
    <glyph glyph-name="Ccaron" unicode="&#x10c;" horiz-adv-x="725" 
d="M137 347q0 -129 69 -207.5t173 -78.5q78 0 135.5 46.5t72.5 125.5h86q-15 -110 -95 -177t-199 -67q-145 0 -236 99t-91 259t91 259t236 99q119 0 199 -67t95 -177h-86q-15 79 -72.5 125.5t-135.5 46.5q-104 0 -173 -78.5t-69 -207.5zM419 747h-81l-104 139h69l76 -83
l76 83h69z" />
    <glyph glyph-name="ccaron" unicode="&#x10d;" horiz-adv-x="549" 
d="M128 246q0 -84 41.5 -136.5t115.5 -52.5q52 0 88.5 29t43.5 80h78q-9 -80 -66 -127.5t-144 -47.5q-105 0 -170.5 69t-65.5 186t65.5 185.5t170.5 68.5q87 0 144 -47.5t66 -127.5h-78q-7 51 -43.5 80t-88.5 29q-75 0 -116 -52t-41 -136zM325 555h-81l-104 139h69l76 -83
l76 83h69z" />
    <glyph glyph-name="Dcaron" unicode="&#x10e;" horiz-adv-x="728" 
d="M676 347q0 -156 -90.5 -251.5t-247.5 -95.5h-246v694h246q157 0 247.5 -96t90.5 -251zM591 347q0 124 -68 199.5t-188 75.5h-162v-550h162q120 0 188 75.5t68 199.5zM398 747h-81l-104 139h69l76 -83l76 83h69z" />
    <glyph glyph-name="dcaron" unicode="&#x10f;" horiz-adv-x="683" 
d="M270 500q108 0 165 -80v274h75v-694h-72v72q-54 -81 -170 -81q-91 0 -154.5 68t-63.5 186q0 119 63.5 187t156.5 68zM286 434q-74 0 -115.5 -52.5t-41.5 -136.5t41 -136t116 -52t116 52t41 136t-41.5 136.5t-115.5 52.5zM620 694h85l-78 -173h-50z" />
    <glyph glyph-name="Dcroat" unicode="&#x110;" horiz-adv-x="751" 
d="M699 348q0 -156 -90.5 -252t-247.5 -96h-246v314h-80v65h80v315h246q157 0 247.5 -94.5t90.5 -251.5zM614 348q0 124 -68 199t-188 75h-162v-243h153v-65h-153v-242h162q119 0 187.5 76t68.5 200z" />
    <glyph glyph-name="dcroat" unicode="&#x111;" horiz-adv-x="605" 
d="M580 548h-70v-548h-72v72q-54 -81 -170 -81q-91 0 -154.5 68t-63.5 186q0 119 63.5 187t156.5 68q108 0 165 -80v128h-110v57h110v89h75v-89h70v-57zM286 434q-74 0 -115.5 -52.5t-41.5 -136.5t41 -136t116 -52t116 52t41 136t-41.5 136.5t-115.5 52.5z" />
    <glyph glyph-name="Emacron" unicode="&#x112;" horiz-adv-x="644" 
d="M93 0v694h487v-72h-406v-230h370v-72h-370v-247h411v-73h-492zM469 778h-266v63h266v-63z" />
    <glyph glyph-name="emacron" unicode="&#x113;" horiz-adv-x="558" 
d="M49 246q0 115 65 184.5t168 69.5q100 0 162 -65t62 -186q0 -17 -1 -28h-378q3 -69 43.5 -117t108.5 -48q51 0 88.5 23.5t50.5 69.5h79q-16 -77 -75 -117.5t-141 -40.5q-102 0 -167 68.5t-65 186.5zM128 282h300q-3 73 -43 113t-102 40q-63 0 -104 -40t-51 -113zM414 596
h-266v63h266v-63z" />
    <glyph glyph-name="Ebreve" unicode="&#x114;" horiz-adv-x="644" 
d="M93 0v694h487v-72h-406v-230h370v-72h-370v-247h411v-73h-492zM336 739q-60 0 -95 39.5t-35 97.5h58q0 -31 18 -54t55 -23t55 23t18 54h58q0 -58 -35.5 -97.5t-96.5 -39.5z" />
    <glyph glyph-name="ebreve" unicode="&#x115;" horiz-adv-x="558" 
d="M49 246q0 115 65 184.5t168 69.5q100 0 162 -65t62 -186q0 -17 -1 -28h-378q3 -69 43.5 -117t108.5 -48q51 0 88.5 23.5t50.5 69.5h79q-16 -77 -75 -117.5t-141 -40.5q-102 0 -167 68.5t-65 186.5zM128 282h300q-3 73 -43 113t-102 40q-63 0 -104 -40t-51 -113zM281 557
q-60 0 -95 39.5t-35 97.5h58q0 -31 18 -54t55 -23t55 23t18 54h58q0 -58 -35.5 -97.5t-96.5 -39.5z" />
    <glyph glyph-name="Edotaccent" unicode="&#x116;" horiz-adv-x="644" 
d="M93 0v694h487v-72h-406v-230h370v-72h-370v-247h411v-73h-492zM290 765v91h91v-91h-91z" />
    <glyph glyph-name="edotaccent" unicode="&#x117;" horiz-adv-x="558" 
d="M49 246q0 115 65 184.5t168 69.5q100 0 162 -65t62 -186q0 -17 -1 -28h-378q3 -69 43.5 -117t108.5 -48q51 0 88.5 23.5t50.5 69.5h79q-16 -77 -75 -117.5t-141 -40.5q-102 0 -167 68.5t-65 186.5zM128 282h300q-3 73 -43 113t-102 40q-63 0 -104 -40t-51 -113zM235 583
v91h91v-91h-91z" />
    <glyph glyph-name="Eogonek" unicode="&#x118;" horiz-adv-x="644" 
d="M93 0v694h487v-72h-406v-230h370v-72h-370v-247h411v-73q-75 -68 -75 -102q0 -32 39 -32q25 0 60 11v-51q-31 -11 -74 -11q-41 0 -65.5 18.5t-24.5 51.5q0 49 89 115h-441z" />
    <glyph glyph-name="eogonek" unicode="&#x119;" horiz-adv-x="558" 
d="M49 246q0 115 65 184.5t168 69.5q100 0 162 -65t62 -186q0 -17 -1 -28h-378q3 -69 43.5 -117t108.5 -48q51 0 88.5 23.5t50.5 69.5h79q-15 -71 -64 -109q-126 -100 -126 -142q0 -32 39 -32q25 0 60 11v-51q-31 -11 -74 -11q-41 0 -65.5 18.5t-24.5 51.5q0 47 81 109
q-21 -3 -42 -3q-102 0 -167 68.5t-65 186.5zM128 282h300q-3 73 -43 113t-102 40q-63 0 -104 -40t-51 -113z" />
    <glyph glyph-name="Ecaron" unicode="&#x11a;" horiz-adv-x="644" 
d="M93 0v694h487v-72h-406v-230h370v-72h-370v-247h411v-73h-492zM376 747h-81l-104 139h69l76 -83l76 83h69z" />
    <glyph glyph-name="ecaron" unicode="&#x11b;" horiz-adv-x="558" 
d="M49 246q0 115 65 184.5t168 69.5q100 0 162 -65t62 -186q0 -17 -1 -28h-378q3 -69 43.5 -117t108.5 -48q51 0 88.5 23.5t50.5 69.5h79q-16 -77 -75 -117.5t-141 -40.5q-102 0 -167 68.5t-65 186.5zM128 282h300q-3 73 -43 113t-102 40q-63 0 -104 -40t-51 -113zM321 555
h-81l-104 139h69l76 -83l76 83h69z" />
    <glyph glyph-name="Gcircumflex" unicode="&#x11c;" horiz-adv-x="766" 
d="M389 283v72h294v-355h-72v117q-74 -128 -241 -128q-144 0 -231 101t-87 257q0 159 90.5 258.5t236.5 99.5q116 0 199 -64.5t100 -179.5h-86q-14 79 -74 125.5t-138 46.5q-107 0 -175 -79.5t-68 -206.5q0 -128 66.5 -207.5t171.5 -79.5q92 0 160.5 57.5t72.5 165.5h-219z
M338 886h81l105 -139h-69l-76 83l-76 -83h-69z" />
    <glyph glyph-name="gcircumflex" unicode="&#x11d;" horiz-adv-x="584" 
d="M501 491v-475q0 -98 -60 -149.5t-162 -51.5q-100 0 -155.5 42.5t-57.5 110.5h78q4 -44 39.5 -66t93.5 -22q67 0 108 32.5t41 103.5v68q-58 -70 -153 -70q-91 0 -157 64.5t-66 176.5q0 114 64.5 179.5t155.5 65.5q103 0 159 -76v67h72zM128 257q0 -80 40 -129t112 -49
q73 0 113 49t40 129t-40 129t-113 49q-72 0 -112 -49t-40 -129zM256 694h81l105 -139h-69l-76 83l-76 -83h-69z" />
    <glyph glyph-name="Gbreve" unicode="&#x11e;" horiz-adv-x="766" 
d="M389 283v72h294v-355h-72v117q-74 -128 -241 -128q-144 0 -231 101t-87 257q0 159 90.5 258.5t236.5 99.5q116 0 199 -64.5t100 -179.5h-86q-14 79 -74 125.5t-138 46.5q-107 0 -175 -79.5t-68 -206.5q0 -128 66.5 -207.5t171.5 -79.5q92 0 160.5 57.5t72.5 165.5h-219z
M379 739q-60 0 -95 39.5t-35 97.5h58q0 -31 18 -54t55 -23t55 23t18 54h58q0 -58 -35.5 -97.5t-96.5 -39.5z" />
    <glyph glyph-name="gbreve" unicode="&#x11f;" horiz-adv-x="584" 
d="M501 491v-475q0 -98 -60 -149.5t-162 -51.5q-100 0 -155.5 42.5t-57.5 110.5h78q4 -44 39.5 -66t93.5 -22q67 0 108 32.5t41 103.5v68q-58 -70 -153 -70q-91 0 -157 64.5t-66 176.5q0 114 64.5 179.5t155.5 65.5q103 0 159 -76v67h72zM128 257q0 -80 40 -129t112 -49
q73 0 113 49t40 129t-40 129t-113 49q-72 0 -112 -49t-40 -129zM297 557q-60 0 -95 39.5t-35 97.5h58q0 -31 18 -54t55 -23t55 23t18 54h58q0 -58 -35.5 -97.5t-96.5 -39.5z" />
    <glyph glyph-name="Gdotaccent" unicode="&#x120;" horiz-adv-x="766" 
d="M389 283v72h294v-355h-72v117q-74 -128 -241 -128q-144 0 -231 101t-87 257q0 159 90.5 258.5t236.5 99.5q116 0 199 -64.5t100 -179.5h-86q-14 79 -74 125.5t-138 46.5q-107 0 -175 -79.5t-68 -206.5q0 -128 66.5 -207.5t171.5 -79.5q92 0 160.5 57.5t72.5 165.5h-219z
M333 765v91h91v-91h-91z" />
    <glyph glyph-name="gdotaccent" unicode="&#x121;" horiz-adv-x="584" 
d="M501 491v-475q0 -98 -60 -149.5t-162 -51.5q-100 0 -155.5 42.5t-57.5 110.5h78q4 -44 39.5 -66t93.5 -22q67 0 108 32.5t41 103.5v68q-58 -70 -153 -70q-91 0 -157 64.5t-66 176.5q0 114 64.5 179.5t155.5 65.5q103 0 159 -76v67h72zM128 257q0 -80 40 -129t112 -49
q73 0 113 49t40 129t-40 129t-113 49q-72 0 -112 -49t-40 -129zM251 583v91h91v-91h-91z" />
    <glyph glyph-name="Gcommaaccent" unicode="&#x122;" horiz-adv-x="766" 
d="M389 283v72h294v-355h-72v117q-74 -128 -241 -128q-144 0 -231 101t-87 257q0 159 90.5 258.5t236.5 99.5q116 0 199 -64.5t100 -179.5h-86q-14 79 -74 125.5t-138 46.5q-107 0 -175 -79.5t-68 -206.5q0 -128 66.5 -207.5t171.5 -79.5q92 0 160.5 57.5t72.5 165.5h-219z
M426 -45v-86q0 -90 -94 -90v45q27 0 36 11t9 30v9h-43v81h92z" />
    <glyph glyph-name="gcommaaccent" unicode="&#x123;" horiz-adv-x="584" 
d="M501 491v-475q0 -98 -60 -149.5t-162 -51.5q-100 0 -155.5 42.5t-57.5 110.5h78q4 -44 39.5 -66t93.5 -22q67 0 108 32.5t41 103.5v68q-58 -70 -153 -70q-91 0 -157 64.5t-66 176.5q0 114 64.5 179.5t155.5 65.5q103 0 159 -76v67h72zM128 257q0 -80 40 -129t112 -49
q73 0 113 49t40 129t-40 129t-113 49q-72 0 -112 -49t-40 -129zM249 553v86q0 90 94 90v-45q-27 0 -36 -11t-9 -30v-9h43v-81h-92z" />
    <glyph glyph-name="Hcircumflex" unicode="&#x124;" horiz-adv-x="744" 
d="M93 0v694h81v-294h396v294h81v-694h-81v327h-396v-327h-81zM331 886h81l105 -139h-69l-76 83l-76 -83h-69z" />
    <glyph glyph-name="hcircumflex" unicode="&#x125;" horiz-adv-x="572" 
d="M420 0v293q0 141 -118 141q-67 0 -105.5 -46t-38.5 -113v-275h-75v694h75v-274q54 80 163 80q83 0 128.5 -51t45.5 -140v-309h-75zM79 866h81l105 -139h-69l-76 83l-76 -83h-69z" />
    <glyph glyph-name="Hbar" unicode="&#x126;" horiz-adv-x="778" 
d="M748 469h-80v-469h-81v266h-396v-266h-81v469h-80v64h80v161h81v-161h396v161h81v-161h80v-64zM191 339h396v130h-396v-130z" />
    <glyph glyph-name="hbar" unicode="&#x127;" horiz-adv-x="589" 
d="M432 0v293q0 141 -118 141q-67 0 -105.5 -46t-38.5 -113v-275h-75v548h-70v57h70v89h75v-89h110v-57h-110v-128q54 80 163 80q83 0 128.5 -51t45.5 -140v-309h-75z" />
    <glyph glyph-name="Itilde" unicode="&#x128;" horiz-adv-x="267" 
d="M93 0v694h81v-694h-81zM205 751q-29 0 -69.5 29.5t-54.5 29.5q-35 0 -35 -54h-56q0 117 86 117q29 0 70 -29.5t54 -29.5q16 0 26 14t10 40h55q0 -117 -86 -117z" />
    <glyph glyph-name="itilde" unicode="&#x129;" horiz-adv-x="241" 
d="M83 491h75v-491h-75v491zM186 569q-29 0 -69.5 29.5t-54.5 29.5q-35 0 -35 -54h-56q0 117 86 117q29 0 70 -29.5t54 -29.5q16 0 26 14t10 40h55q0 -117 -86 -117z" />
    <glyph glyph-name="Imacron" unicode="&#x12a;" horiz-adv-x="267" 
d="M93 0v694h81v-694h-81zM266 778h-266v63h266v-63z" />
    <glyph glyph-name="imacron" unicode="&#x12b;" horiz-adv-x="241" 
d="M83 491h75v-491h-75v491zM254 596h-266v63h266v-63z" />
    <glyph glyph-name="Ibreve" unicode="&#x12c;" horiz-adv-x="267" 
d="M93 0v694h81v-694h-81zM133 739q-60 0 -95 39.5t-35 97.5h58q0 -31 18 -54t55 -23t55 23t18 54h58q0 -58 -35.5 -97.5t-96.5 -39.5z" />
    <glyph glyph-name="ibreve" unicode="&#x12d;" horiz-adv-x="241" 
d="M83 491h75v-491h-75v491zM121 557q-60 0 -95 39.5t-35 97.5h58q0 -31 18 -54t55 -23t55 23t18 54h58q0 -58 -35.5 -97.5t-96.5 -39.5z" />
    <glyph glyph-name="Iogonek" unicode="&#x12e;" horiz-adv-x="267" 
d="M124 -185q-41 0 -65.5 18.5t-24.5 51.5q0 49 89 115h-30v694h81v-694q-75 -68 -75 -102q0 -32 39 -32q25 0 60 11v-51q-31 -11 -74 -11z" />
    <glyph glyph-name="iogonek" unicode="&#x12f;" horiz-adv-x="241" 
d="M108 -185q-41 0 -65.5 18.5t-24.5 51.5q0 49 89 115h-24v491h75v-491q-75 -68 -75 -102q0 -32 39 -32q25 0 60 11v-51q-31 -11 -74 -11zM75 583v91h91v-91h-91z" />
    <glyph glyph-name="Idotaccent" unicode="&#x130;" horiz-adv-x="267" 
d="M93 0v694h81v-694h-81zM87 765v91h91v-91h-91z" />
    <glyph glyph-name="dotlessi" unicode="&#x131;" horiz-adv-x="241" 
d="M83 491h75v-491h-75v491z" />
    <glyph glyph-name="IJ" unicode="&#x132;" horiz-adv-x="861" 
d="M93 0v694h81v-694h-81zM544 61q73 0 114.5 44.5t41.5 127.5v461h81v-461q0 -107 -58.5 -175.5t-178.5 -68.5t-178.5 68.5t-58.5 175.5v23h81v-23q0 -83 41.5 -127.5t114.5 -44.5z" />
    <glyph glyph-name="ij" unicode="&#x133;" horiz-adv-x="482" 
d="M83 491h75v-491h-75v491zM75 583v91h91v-91h-91zM200 -176v68q26 -4 46 -4q78 0 78 90v513h75v-515q0 -76 -40 -116t-111 -40q-24 0 -48 4zM316 583v91h91v-91h-91z" />
    <glyph glyph-name="Jcircumflex" unicode="&#x134;" horiz-adv-x="594" 
d="M277 61q73 0 114.5 44.5t41.5 127.5v461h81v-461q0 -107 -58.5 -175.5t-178.5 -68.5t-178.5 68.5t-58.5 175.5v23h81v-23q0 -83 41.5 -127.5t114.5 -44.5zM433 886h81l105 -139h-69l-76 83l-76 -83h-69z" />
    <glyph glyph-name="jcircumflex" unicode="&#x135;" horiz-adv-x="241" 
d="M-46 -176v68q26 -4 46 -4q83 0 83 90v513h75v-515q0 -76 -41.5 -116t-114.5 -40q-24 0 -48 4zM79 694h81l105 -139h-69l-76 83l-76 -83h-69z" />
    <glyph glyph-name="Kcommaaccent" unicode="&#x136;" horiz-adv-x="671" 
d="M93 0v694h81v-362l370 362h107l-298 -292l294 -402h-100l-255 349l-118 -115v-234h-81zM391 -45v-86q0 -90 -94 -90v45q27 0 36 11t9 30v9h-43v81h92z" />
    <glyph glyph-name="kcommaaccent" unicode="&#x137;" horiz-adv-x="524" 
d="M291 293l215 -293h-92l-182 247l-74 -71v-176h-75v694h75v-429l240 226h104zM325 -45v-86q0 -90 -94 -90v45q27 0 36 11t9 30v9h-43v81h92z" />
    <glyph glyph-name="kgreenlandic" unicode="&#x138;" horiz-adv-x="524" 
d="M158 0h-75v491h75v-226l240 226h104l-211 -198l215 -293h-92l-182 247l-74 -71v-176z" />
    <glyph glyph-name="Lacute" unicode="&#x139;" horiz-adv-x="585" 
d="M93 0v694h81v-620h374v-74h-455zM177 886h97l-108 -139h-62z" />
    <glyph glyph-name="lacute" unicode="&#x13a;" horiz-adv-x="241" 
d="M83 694h75v-694h-75v694zM161 866h97l-108 -139h-62z" />
    <glyph glyph-name="Lcommaaccent" unicode="&#x13b;" horiz-adv-x="585" 
d="M93 0v694h81v-620h374v-74h-455zM367 -45v-86q0 -90 -94 -90v45q27 0 36 11t9 30v9h-43v81h92z" />
    <glyph glyph-name="lcommaaccent" unicode="&#x13c;" horiz-adv-x="241" 
d="M83 694h75v-694h-75v694zM169 -45v-86q0 -90 -94 -90v45q27 0 36 11t9 30v9h-43v81h92z" />
    <glyph glyph-name="Lcaron" unicode="&#x13d;" horiz-adv-x="585" 
d="M93 0v694h81v-620h374v-74h-455zM378 694h85l-78 -173h-50z" />
    <glyph glyph-name="lcaron" unicode="&#x13e;" horiz-adv-x="331" 
d="M83 694h75v-694h-75v694zM268 694h85l-78 -173h-50z" />
    <glyph glyph-name="Ldot" unicode="&#x13f;" horiz-adv-x="590" 
d="M93 0v694h81v-620h374v-74h-455zM359 299v107h107v-107h-107z" />
    <glyph glyph-name="ldot" unicode="&#x140;" horiz-adv-x="368" 
d="M83 694h75v-694h-75v694zM251 223v107h107v-107h-107z" />
    <glyph glyph-name="Lslash" unicode="&#x141;" horiz-adv-x="607" 
d="M35 230v72l80 40v352h81v-311l148 75v-72l-148 -75v-237h374v-74h-455v270z" />
    <glyph glyph-name="lslash" unicode="&#x142;" horiz-adv-x="275" 
d="M175 0h-75v245l-70 -42v67l70 42v382h75v-336l70 42v-67l-70 -42v-291z" />
    <glyph glyph-name="Nacute" unicode="&#x143;" horiz-adv-x="756" 
d="M663 694v-694h-109l-383 605v-605h-78v694h109l383 -605v605h78zM418 886h97l-108 -139h-62z" />
    <glyph glyph-name="nacute" unicode="&#x144;" horiz-adv-x="572" 
d="M158 0h-75v491h72v-74q56 83 166 83q83 0 128.5 -51t45.5 -140v-309h-75v293q0 141 -118 141q-67 0 -105.5 -46t-38.5 -113v-275zM293 694h97l-108 -139h-62z" />
    <glyph glyph-name="Ncommaaccent" unicode="&#x145;" horiz-adv-x="756" 
d="M663 694v-694h-109l-383 605v-605h-78v694h109l383 -605v605h78zM424 -45v-86q0 -90 -94 -90v45q27 0 36 11t9 30v9h-43v81h92z" />
    <glyph glyph-name="ncommaaccent" unicode="&#x146;" horiz-adv-x="572" 
d="M158 0h-75v491h72v-74q56 83 166 83q83 0 128.5 -51t45.5 -140v-309h-75v293q0 141 -118 141q-67 0 -105.5 -46t-38.5 -113v-275zM335 -45v-86q0 -90 -94 -90v45q27 0 36 11t9 30v9h-43v81h92z" />
    <glyph glyph-name="Ncaron" unicode="&#x147;" horiz-adv-x="756" 
d="M663 694v-694h-109l-383 605v-605h-78v694h109l383 -605v605h78zM418 747h-81l-104 139h69l76 -83l76 83h69z" />
    <glyph glyph-name="ncaron" unicode="&#x148;" horiz-adv-x="572" 
d="M158 0h-75v491h72v-74q56 83 166 83q83 0 128.5 -51t45.5 -140v-309h-75v293q0 141 -118 141q-67 0 -105.5 -46t-38.5 -113v-275zM336 555h-81l-104 139h69l76 -83l76 83h69z" />
    <glyph glyph-name="napostrophe" unicode="&#x149;" horiz-adv-x="720" 
d="M306 0h-75v491h72v-74q56 83 166 83q83 0 128.5 -51t45.5 -140v-309h-75v293q0 141 -118 141q-67 0 -105.5 -46t-38.5 -113v-275zM141 694v-119q0 -60 -32.5 -92t-91.5 -32v50q69 0 69 69v21h-48v103h103z" />
    <glyph glyph-name="Eng" unicode="&#x14a;" horiz-adv-x="756" 
d="M505 -180q-24 0 -48 4v68q26 -4 46 -4q82 0 82 90v22h-31l-383 605v-605h-78v694h109l383 -605v605h78v-718q0 -76 -42.5 -116t-115.5 -40z" />
    <glyph glyph-name="eng" unicode="&#x14b;" horiz-adv-x="572" 
d="M158 0h-75v491h72v-74q56 83 166 83q83 0 128.5 -51t45.5 -140v-333q0 -76 -41.5 -116t-114.5 -40q-24 0 -48 4v68q26 -4 46 -4q83 0 83 90v315q0 141 -118 141q-67 0 -105.5 -46t-38.5 -113v-275z" />
    <glyph glyph-name="Omacron" unicode="&#x14c;" horiz-adv-x="766" 
d="M714 347q0 -161 -91.5 -259.5t-239.5 -98.5t-239.5 98.5t-91.5 259.5t91.5 259.5t239.5 98.5t239.5 -98.5t91.5 -259.5zM629 347q0 132 -70 209t-176 77t-176 -77t-70 -209t70 -209t176 -77t176 77t70 209zM516 778h-266v63h266v-63z" />
    <glyph glyph-name="omacron" unicode="&#x14d;" horiz-adv-x="570" 
d="M285 -9q-105 0 -170.5 68.5t-65.5 185.5t65.5 186t170.5 69t170.5 -69t65.5 -186t-65.5 -185.5t-170.5 -68.5zM285 57q75 0 116 52t41 136t-41.5 136.5t-115.5 52.5t-115.5 -52.5t-41.5 -136.5t41 -136t116 -52zM418 596h-266v63h266v-63z" />
    <glyph glyph-name="Obreve" unicode="&#x14e;" horiz-adv-x="766" 
d="M714 347q0 -161 -91.5 -259.5t-239.5 -98.5t-239.5 98.5t-91.5 259.5t91.5 259.5t239.5 98.5t239.5 -98.5t91.5 -259.5zM629 347q0 132 -70 209t-176 77t-176 -77t-70 -209t70 -209t176 -77t176 77t70 209zM383 739q-60 0 -95 39.5t-35 97.5h58q0 -31 18 -54t55 -23
t55 23t18 54h58q0 -58 -35.5 -97.5t-96.5 -39.5z" />
    <glyph glyph-name="obreve" unicode="&#x14f;" horiz-adv-x="570" 
d="M285 -9q-105 0 -170.5 68.5t-65.5 185.5t65.5 186t170.5 69t170.5 -69t65.5 -186t-65.5 -185.5t-170.5 -68.5zM285 57q75 0 116 52t41 136t-41.5 136.5t-115.5 52.5t-115.5 -52.5t-41.5 -136.5t41 -136t116 -52zM285 557q-60 0 -95 39.5t-35 97.5h58q0 -31 18 -54t55 -23
t55 23t18 54h58q0 -58 -35.5 -97.5t-96.5 -39.5z" />
    <glyph glyph-name="Ohungarumlaut" unicode="&#x150;" horiz-adv-x="766" 
d="M714 347q0 -161 -91.5 -259.5t-239.5 -98.5t-239.5 98.5t-91.5 259.5t91.5 259.5t239.5 98.5t239.5 -98.5t91.5 -259.5zM629 347q0 132 -70 209t-176 77t-176 -77t-70 -209t70 -209t176 -77t176 77t70 209zM345 886h83l-92 -144h-55zM473 886h83l-92 -144h-55z" />
    <glyph glyph-name="ohungarumlaut" unicode="&#x151;" horiz-adv-x="570" 
d="M285 -9q-105 0 -170.5 68.5t-65.5 185.5t65.5 186t170.5 69t170.5 -69t65.5 -186t-65.5 -185.5t-170.5 -68.5zM285 57q75 0 116 52t41 136t-41.5 136.5t-115.5 52.5t-115.5 -52.5t-41.5 -136.5t41 -136t116 -52zM247 694h83l-92 -144h-55zM375 694h83l-92 -144h-55z" />
    <glyph glyph-name="OE" unicode="&#x152;" horiz-adv-x="1180" 
d="M629 0v105q-88 -116 -246 -116q-148 0 -239.5 98.5t-91.5 259.5t91.5 259.5t239.5 98.5q157 0 246 -117v106h487v-72h-406v-230h370v-72h-370v-247h411v-73h-492zM629 347q0 132 -70 209t-176 77t-176 -77t-70 -209t70 -209t176 -77t176 77t70 209z" />
    <glyph glyph-name="oe" unicode="&#x153;" horiz-adv-x="951" 
d="M674 -9q-63 0 -113.5 28.5t-79.5 81.5q-29 -53 -80 -81.5t-116 -28.5q-105 0 -170.5 68.5t-65.5 185.5t65.5 186t170.5 69q135 0 196 -111q62 111 194 111q100 0 162 -65t62 -186q0 -17 -1 -28h-378q3 -69 43.5 -116.5t108.5 -47.5q52 0 89 23t50 69h79
q-16 -77 -75 -117.5t-141 -40.5zM128 245q0 -84 41 -136t116 -52t116 52t41 136t-41.5 136.5t-115.5 52.5t-115.5 -52.5t-41.5 -136.5zM521 282h300q-3 73 -43 113t-102 40t-103.5 -40t-51.5 -113z" />
    <glyph glyph-name="Racute" unicode="&#x154;" horiz-adv-x="699" 
d="M93 0v694h292q114 0 177.5 -51.5t63.5 -147.5q0 -152 -159 -189l190 -306h-94l-184 297h-205v-297h-81zM174 368h208q160 0 160 127t-160 127h-208v-254zM375 886h97l-108 -139h-62z" />
    <glyph glyph-name="racute" unicode="&#x155;" horiz-adv-x="369" 
d="M345 498v-79q-18 1 -46 1q-60 0 -100.5 -40t-40.5 -109v-271h-75v491h72v-90q23 49 65.5 73.5t89.5 24.5q18 0 35 -1zM211 694h97l-108 -139h-62z" />
    <glyph glyph-name="Rcommaaccent" unicode="&#x156;" horiz-adv-x="699" 
d="M93 0v694h292q114 0 177.5 -51.5t63.5 -147.5q0 -152 -159 -189l190 -306h-94l-184 297h-205v-297h-81zM174 368h208q160 0 160 127t-160 127h-208v-254zM397 -45v-86q0 -90 -94 -90v45q27 0 36 11t9 30v9h-43v81h92z" />
    <glyph glyph-name="rcommaaccent" unicode="&#x157;" horiz-adv-x="369" 
d="M345 498v-79q-18 1 -46 1q-60 0 -100.5 -40t-40.5 -109v-271h-75v491h72v-90q23 49 65.5 73.5t89.5 24.5q18 0 35 -1zM167 -45v-86q0 -90 -94 -90v45q27 0 36 11t9 30v9h-43v81h92z" />
    <glyph glyph-name="Rcaron" unicode="&#x158;" horiz-adv-x="699" 
d="M93 0v694h292q114 0 177.5 -51.5t63.5 -147.5q0 -152 -159 -189l190 -306h-94l-184 297h-205v-297h-81zM174 368h208q160 0 160 127t-160 127h-208v-254zM385 747h-81l-104 139h69l76 -83l76 83h69z" />
    <glyph glyph-name="rcaron" unicode="&#x159;" horiz-adv-x="369" 
d="M345 498v-79q-18 1 -46 1q-60 0 -100.5 -40t-40.5 -109v-271h-75v491h72v-90q23 49 65.5 73.5t89.5 24.5q18 0 35 -1zM231 555h-81l-104 139h69l76 -83l76 83h69z" />
    <glyph glyph-name="Sacute" unicode="&#x15a;" horiz-adv-x="651" 
d="M330 -11q-125 0 -200.5 55.5t-79.5 158.5h84q6 -67 60.5 -105.5t137.5 -38.5q82 0 132.5 35t50.5 91q0 81 -98 104l-192 45q-73 17 -113 62.5t-40 117.5q0 84 70 137.5t177 53.5q111 0 184 -56.5t74 -150.5h-84q-6 68 -53 102.5t-120 34.5q-74 0 -121 -33.5t-47 -87.5
q0 -82 98 -104l192 -45q73 -17 113 -63t40 -118q0 -87 -71.5 -141t-193.5 -54zM359 886h97l-108 -139h-62z" />
    <glyph glyph-name="sacute" unicode="&#x15b;" horiz-adv-x="515" 
d="M67 357q0 64 53.5 103.5t137.5 39.5q79 0 136 -39t59 -111h-78q-2 42 -33.5 64t-83.5 22t-83 -21.5t-31 -54.5q0 -52 81 -69l101 -20q136 -27 136 -134q0 -65 -54.5 -105.5t-146.5 -40.5q-93 0 -150.5 43t-58.5 115h78q3 -44 37 -69t96 -25q122 0 122 79q0 52 -81 69
l-101 20q-136 27 -136 134zM298 694h97l-108 -139h-62z" />
    <glyph glyph-name="Scircumflex" unicode="&#x15c;" horiz-adv-x="651" 
d="M330 -11q-125 0 -200.5 55.5t-79.5 158.5h84q6 -67 60.5 -105.5t137.5 -38.5q82 0 132.5 35t50.5 91q0 81 -98 104l-192 45q-73 17 -113 62.5t-40 117.5q0 84 70 137.5t177 53.5q111 0 184 -56.5t74 -150.5h-84q-6 68 -53 102.5t-120 34.5q-74 0 -121 -33.5t-47 -87.5
q0 -82 98 -104l192 -45q73 -17 113 -63t40 -118q0 -87 -71.5 -141t-193.5 -54zM278 886h81l105 -139h-69l-76 83l-76 -83h-69z" />
    <glyph glyph-name="scircumflex" unicode="&#x15d;" horiz-adv-x="515" 
d="M67 357q0 64 53.5 103.5t137.5 39.5q79 0 136 -39t59 -111h-78q-2 42 -33.5 64t-83.5 22t-83 -21.5t-31 -54.5q0 -52 81 -69l101 -20q136 -27 136 -134q0 -65 -54.5 -105.5t-146.5 -40.5q-93 0 -150.5 43t-58.5 115h78q3 -44 37 -69t96 -25q122 0 122 79q0 52 -81 69
l-101 20q-136 27 -136 134zM217 694h81l105 -139h-69l-76 83l-76 -83h-69z" />
    <glyph glyph-name="Scedilla" unicode="&#x15e;" horiz-adv-x="651" 
d="M404 -107q-1 -38 -33.5 -58t-83.5 -20q-39 0 -72 11v51q37 -15 76 -15q55 0 55 33q0 28 -46 28q-18 0 -46 -10l-19 29l39 50q-101 12 -160.5 66t-63.5 145h84q6 -67 60.5 -105.5t137.5 -38.5q82 0 132.5 34.5t50.5 88.5q0 85 -98 107l-192 45q-73 17 -113 62.5t-40 117.5
q0 84 70 137.5t177 53.5q111 0 184 -56.5t74 -150.5h-84q-6 68 -53 102.5t-120 34.5q-74 0 -121 -33t-47 -86q0 -84 98 -106l192 -45q73 -17 113 -63t40 -118q0 -87 -71.5 -141t-193.5 -54h-15l-21 -32q10 2 25 2q81 0 85 -66z" />
    <glyph glyph-name="scedilla" unicode="&#x15f;" horiz-adv-x="515" 
d="M348 -107q-1 -38 -33.5 -58t-83.5 -20q-39 0 -72 11v51q37 -15 76 -15q55 0 55 33q0 28 -46 28q-18 0 -46 -10l-19 29l40 52q-76 9 -121 50.5t-46 104.5h78q3 -44 37 -69t96 -25q122 0 122 79q0 52 -81 69l-101 20q-136 27 -136 134q0 64 53.5 103.5t137.5 39.5
q79 0 136 -39t59 -111h-78q-2 42 -33.5 64t-83.5 22t-83 -21.5t-31 -54.5q0 -52 81 -69l101 -20q136 -27 136 -134q0 -65 -54.5 -105.5t-146.5 -40.5l-23 -34q10 2 25 2q81 0 85 -66z" />
    <glyph glyph-name="Scaron" unicode="&#x160;" horiz-adv-x="651" 
d="M330 -11q-125 0 -200.5 55.5t-79.5 158.5h84q6 -67 60.5 -105.5t137.5 -38.5q82 0 132.5 35t50.5 91q0 81 -98 104l-192 45q-73 17 -113 62.5t-40 117.5q0 84 70 137.5t177 53.5q111 0 184 -56.5t74 -150.5h-84q-6 68 -53 102.5t-120 34.5q-74 0 -121 -33.5t-47 -87.5
q0 -82 98 -104l192 -45q73 -17 113 -63t40 -118q0 -87 -71.5 -141t-193.5 -54zM359 747h-81l-104 139h69l76 -83l76 83h69z" />
    <glyph glyph-name="scaron" unicode="&#x161;" horiz-adv-x="515" 
d="M67 357q0 64 53.5 103.5t137.5 39.5q79 0 136 -39t59 -111h-78q-2 42 -33.5 64t-83.5 22t-83 -21.5t-31 -54.5q0 -52 81 -69l101 -20q136 -27 136 -134q0 -65 -54.5 -105.5t-146.5 -40.5q-93 0 -150.5 43t-58.5 115h78q3 -44 37 -69t96 -25q122 0 122 79q0 52 -81 69
l-101 20q-136 27 -136 134zM298 555h-81l-104 139h69l76 -83l76 83h69z" />
    <glyph glyph-name="Tcommaaccent" unicode="&#x162;" horiz-adv-x="633" 
d="M419 -107q-1 -38 -33.5 -58t-83.5 -20q-39 0 -72 11v51q38 -15 76 -15q55 0 55 33q0 28 -46 28q-19 0 -46 -10l-19 29l45 58h-19v620h-246v74h573v-74h-246v-620h-19l-29 -43q10 2 25 2q81 0 85 -66z" />
    <glyph glyph-name="tcommaaccent" unicode="&#x163;" horiz-adv-x="365" 
d="M305 -107q-1 -38 -33.5 -58t-83.5 -20q-39 0 -72 11v51q38 -15 76 -15q55 0 55 33q0 28 -46 28q-18 0 -46 -10l-19 29l48 60q-74 32 -74 136v287h-81v66h84v130h72v-130h140v-66h-140v-272q0 -92 68 -92q36 0 72 9v-68q-43 -9 -84 -9q-11 0 -21 2l-25 -38q10 2 25 2
q81 0 85 -66z" />
    <glyph glyph-name="Tcaron" unicode="&#x164;" horiz-adv-x="633" 
d="M30 620v74h573v-74h-246v-620h-81v620h-246zM356 747h-81l-104 139h69l76 -83l76 83h69z" />
    <glyph glyph-name="tcaron" unicode="&#x165;" horiz-adv-x="365" 
d="M29 425v66h84v130h72v-130h140v-66h-140v-272q0 -92 68 -92q36 0 72 9v-68q-43 -9 -84 -9q-62 0 -96.5 37.5t-34.5 107.5v287h-81zM281 744h85l-78 -173h-50z" />
    <glyph glyph-name="Tbar" unicode="&#x166;" horiz-adv-x="633" 
d="M497 313h-140v-313h-81v313h-140v64h140v243h-246v74h573v-74h-246v-243h140v-64z" />
    <glyph glyph-name="tbar" unicode="&#x167;" horiz-adv-x="375" 
d="M190 253v-100q0 -92 68 -92q36 0 72 9v-68q-44 -9 -84 -9q-62 0 -96.5 37.5t-34.5 107.5v115h-81v64h81v108h-81v66h84v130h72v-130h140v-66h-140v-108h122v-64h-122z" />
    <glyph glyph-name="Utilde" unicode="&#x168;" horiz-adv-x="702" 
d="M351 -11q-123 0 -198.5 71t-75.5 205v429h81v-429q0 -96 52 -150t141 -54t141 54t52 150v429h81v-429q0 -134 -75.5 -205t-198.5 -71zM415 751q-29 0 -69.5 29.5t-54.5 29.5q-35 0 -35 -54h-56q0 117 86 117q29 0 70 -29.5t54 -29.5q16 0 26 14t10 40h55q0 -117 -86 -117
z" />
    <glyph glyph-name="utilde" unicode="&#x169;" horiz-adv-x="564" 
d="M406 491h75v-491h-72v74q-55 -83 -162 -83q-80 0 -125 51t-45 140v309h75v-293q0 -141 114 -141q64 0 102 46t38 113v275zM344 569q-29 0 -69.5 29.5t-54.5 29.5q-35 0 -35 -54h-56q0 117 86 117q29 0 70 -29.5t54 -29.5q16 0 26 14t10 40h55q0 -117 -86 -117z" />
    <glyph glyph-name="Umacron" unicode="&#x16a;" horiz-adv-x="702" 
d="M351 -11q-123 0 -198.5 71t-75.5 205v429h81v-429q0 -96 52 -150t141 -54t141 54t52 150v429h81v-429q0 -134 -75.5 -205t-198.5 -71zM483 778h-266v63h266v-63z" />
    <glyph glyph-name="umacron" unicode="&#x16b;" horiz-adv-x="564" 
d="M406 491h75v-491h-72v74q-55 -83 -162 -83q-80 0 -125 51t-45 140v309h75v-293q0 -141 114 -141q64 0 102 46t38 113v275zM412 596h-266v63h266v-63z" />
    <glyph glyph-name="Ubreve" unicode="&#x16c;" horiz-adv-x="702" 
d="M351 -11q-123 0 -198.5 71t-75.5 205v429h81v-429q0 -96 52 -150t141 -54t141 54t52 150v429h81v-429q0 -134 -75.5 -205t-198.5 -71zM350 739q-60 0 -95 39.5t-35 97.5h58q0 -31 18 -54t55 -23t55 23t18 54h58q0 -58 -35.5 -97.5t-96.5 -39.5z" />
    <glyph glyph-name="ubreve" unicode="&#x16d;" horiz-adv-x="564" 
d="M406 491h75v-491h-72v74q-55 -83 -162 -83q-80 0 -125 51t-45 140v309h75v-293q0 -141 114 -141q64 0 102 46t38 113v275zM279 557q-60 0 -95 39.5t-35 97.5h58q0 -31 18 -54t55 -23t55 23t18 54h58q0 -58 -35.5 -97.5t-96.5 -39.5z" />
    <glyph glyph-name="Uring" unicode="&#x16e;" horiz-adv-x="702" 
d="M351 -11q-123 0 -198.5 71t-75.5 205v429h81v-429q0 -96 52 -150t141 -54t141 54t52 150v429h81v-429q0 -134 -75.5 -205t-198.5 -71zM246 827q0 42 30.5 71.5t73.5 29.5q44 0 74.5 -29.5t30.5 -71.5t-30.5 -71t-74.5 -29t-74 29t-30 71zM298 827q0 -23 14.5 -38
t37.5 -15t38 15t15 38t-15.5 39t-37.5 16t-37 -16t-15 -39z" />
    <glyph glyph-name="uring" unicode="&#x16f;" horiz-adv-x="564" 
d="M406 491h75v-491h-72v74q-55 -83 -162 -83q-80 0 -125 51t-45 140v309h75v-293q0 -141 114 -141q64 0 102 46t38 113v275zM175 645q0 42 30.5 71.5t73.5 29.5q44 0 74.5 -29.5t30.5 -71.5t-30.5 -71t-74.5 -29t-74 29t-30 71zM227 645q0 -23 14.5 -38t37.5 -15t38 15
t15 38t-15.5 39t-37.5 16t-37 -16t-15 -39z" />
    <glyph glyph-name="Uhungarumlaut" unicode="&#x170;" horiz-adv-x="702" 
d="M351 -11q-123 0 -198.5 71t-75.5 205v429h81v-429q0 -96 52 -150t141 -54t141 54t52 150v429h81v-429q0 -134 -75.5 -205t-198.5 -71zM312 886h83l-92 -144h-55zM440 886h83l-92 -144h-55z" />
    <glyph glyph-name="uhungarumlaut" unicode="&#x171;" horiz-adv-x="564" 
d="M406 491h75v-491h-72v74q-55 -83 -162 -83q-80 0 -125 51t-45 140v309h75v-293q0 -141 114 -141q64 0 102 46t38 113v275zM241 694h83l-92 -144h-55zM369 694h83l-92 -144h-55z" />
    <glyph glyph-name="Uogonek" unicode="&#x172;" horiz-adv-x="702" 
d="M625 265q0 -125 -66 -195t-175 -79q-64 -60 -64 -93q0 -32 39 -32q25 0 60 11v-51q-31 -11 -74 -11q-41 0 -65.5 18.5t-24.5 51.5q0 45 75 105q-114 6 -183.5 76.5t-69.5 198.5v429h81v-429q0 -96 52 -150t141 -54t141 54t52 150v429h81v-429z" />
    <glyph glyph-name="uogonek" unicode="&#x173;" horiz-adv-x="564" 
d="M409 0v74q-55 -83 -162 -83q-80 0 -125 51t-45 140v309h75v-293q0 -141 114 -141q64 0 102 46t38 113v275h75v-491h-21q-75 -68 -75 -102q0 -32 39 -32q25 0 60 11v-51q-31 -11 -74 -11q-41 0 -65.5 18.5t-24.5 51.5q0 45 89 115z" />
    <glyph glyph-name="Wcircumflex" unicode="&#x174;" horiz-adv-x="1008" 
d="M788 0h-110l-174 619l-174 -619h-110l-189 694h84l164 -616l174 616h104l174 -616l164 616h82zM463 886h81l105 -139h-69l-76 83l-76 -83h-69z" />
    <glyph glyph-name="wcircumflex" unicode="&#x175;" horiz-adv-x="764" 
d="M382 410l-113 -410h-96l-143 491h78l116 -420l114 420h90l114 -420l116 420h76l-143 -491h-96zM340 694h81l105 -139h-69l-76 83l-76 -83h-69z" />
    <glyph glyph-name="Ycircumflex" unicode="&#x176;" horiz-adv-x="636" 
d="M277 0v267l-274 427h96l220 -349l221 349h93l-275 -427v-267h-81zM279 886h81l105 -139h-69l-76 83l-76 -83h-69z" />
    <glyph glyph-name="ycircumflex" unicode="&#x177;" horiz-adv-x="507" 
d="M277 -61q-24 -63 -61.5 -91t-98.5 -28q-34 0 -61 5v69q27 -6 57 -6q41 0 64 17.5t35 54.5l6 16l-193 515h81l150 -416l150 416h79zM211 694h81l105 -139h-69l-76 83l-76 -83h-69z" />
    <glyph glyph-name="Ydieresis" unicode="&#x178;" horiz-adv-x="636" 
d="M277 0v267l-274 427h96l220 -349l221 349h93l-275 -427v-267h-81zM180 765v91h91v-91h-91zM368 765v91h91v-91h-91z" />
    <glyph glyph-name="Zacute" unicode="&#x179;" horiz-adv-x="623" 
d="M74 694h495v-62l-424 -559h438v-73h-543v62l424 559h-390v73zM361 886h97l-108 -139h-62z" />
    <glyph glyph-name="zacute" unicode="&#x17a;" horiz-adv-x="486" 
d="M56 491h383v-54l-293 -370h288v-67h-390v54l293 370h-281v67zM287 694h97l-108 -139h-62z" />
    <glyph glyph-name="Zdotaccent" unicode="&#x17b;" horiz-adv-x="623" 
d="M74 694h495v-62l-424 -559h438v-73h-543v62l424 559h-390v73zM275 765v91h91v-91h-91z" />
    <glyph glyph-name="zdotaccent" unicode="&#x17c;" horiz-adv-x="486" 
d="M56 491h383v-54l-293 -370h288v-67h-390v54l293 370h-281v67zM201 583v91h91v-91h-91z" />
    <glyph glyph-name="Zcaron" unicode="&#x17d;" horiz-adv-x="623" 
d="M74 694h495v-62l-424 -559h438v-73h-543v62l424 559h-390v73zM361 747h-81l-104 139h69l76 -83l76 83h69z" />
    <glyph glyph-name="zcaron" unicode="&#x17e;" horiz-adv-x="486" 
d="M56 491h383v-54l-293 -370h288v-67h-390v54l293 370h-281v67zM287 555h-81l-104 139h69l76 -83l76 83h69z" />
    <glyph glyph-name="florin" unicode="&#x192;" horiz-adv-x="448" 
d="M370 306h-126v-330q0 -76 -41.5 -116t-114.5 -40q-24 0 -48 4v68q26 -4 46 -4q83 0 83 90v328h-87v65h87v175q0 76 41 116t113 40q34 0 61 -6v-68q-27 6 -56 6q-43 0 -63.5 -21.5t-20.5 -69.5v-172h126v-65z" />
    <glyph glyph-name="uni01B5" unicode="&#x1b5;" horiz-adv-x="623" 
d="M74 694h496v-62l-192 -253h119v-64h-167l-184 -242h437v-73h-543v62l192 253h-120v64h168l184 242h-390v73z" />
    <glyph glyph-name="uni01B6" unicode="&#x1b6;" horiz-adv-x="490" 
d="M58 491h383v-54l-129 -163h72v-57h-117l-117 -149h286v-68h-390v54l128 163h-70v57h115l118 149h-279v68z" />
    <glyph glyph-name="Aringacute" unicode="&#x1fa;" horiz-adv-x="715" 
d="M334 935h90l-80 -89q47 5 82 -25t35 -76q0 -51 -45 -81l272 -664h-87l-80 200h-331l-80 -200h-83l270 663q-45 29 -45 82q0 25 16 59zM356 616l-138 -345h275zM304 745q0 -23 15 -37.5t37 -14.5q23 0 38 15t15 37q0 24 -15 40t-38 16q-22 0 -37 -16t-15 -40z" />
    <glyph glyph-name="aringacute" unicode="&#x1fb;" horiz-adv-x="547" 
d="M470 0h-70v76q-56 -85 -182 -85q-70 0 -117.5 36.5t-47.5 102.5q0 63 43.5 99t113.5 48l187 32v26q0 100 -128 100q-55 0 -87 -21.5t-34 -63.5h-78q3 74 60.5 112t138.5 38q92 0 146.5 -40.5t54.5 -124.5v-335zM228 55q71 0 120 39t49 115v38l-170 -29q-97 -17 -97 -89
q0 -34 25.5 -54t72.5 -20zM269 544q-43 0 -73.5 29t-30.5 70q0 25 16 59l66 131h90l-80 -89q49 5 83 -25.5t34 -75.5q0 -41 -30.5 -70t-74.5 -29zM269 591q23 0 38 15t15 37q0 24 -15 40t-38 16q-22 0 -37 -16t-15 -40q0 -23 14.5 -37.5t37.5 -14.5z" />
    <glyph glyph-name="AEacute" unicode="&#x1fc;" horiz-adv-x="1061" 
d="M1002 0h-492v200h-293l-140 -200h-92l487 694h525v-72h-406v-230h370v-72h-370v-247h411v-73zM510 271v346l-243 -346h243zM726 886h97l-108 -139h-62z" />
    <glyph glyph-name="aeacute" unicode="&#x1fd;" horiz-adv-x="900" 
d="M250 282h147v53q0 100 -128 100q-55 0 -87 -21.5t-34 -63.5h-78q3 74 60.5 112t138.5 38q136 0 181 -81q65 81 174 81q100 0 162 -65t62 -186q0 -17 -1 -28h-377q5 -73 45 -118.5t106 -45.5q52 0 89 23t50 69h79q-16 -77 -75 -117.5t-141 -40.5q-63 0 -113 28.5t-79 81.5
q-25 -48 -80 -79t-133 -31q-71 0 -118 35.5t-47 102.5q0 77 55.5 115t141.5 38zM470 282h300q-3 73 -43 113t-102 40t-103.5 -40t-51.5 -113zM397 209v12h-139q-128 0 -128 -92q0 -34 25.5 -54t72.5 -20q71 0 120 39t49 115zM491 694h97l-108 -139h-62z" />
    <glyph glyph-name="Oslashacute" unicode="&#x1fe;" horiz-adv-x="776" 
d="M388 -11q-112 0 -195 58l-53 -67h-85l89 112q-87 96 -87 255q0 161 91.5 259.5t239.5 98.5q111 0 194 -58l53 67h86l-89 -113q87 -98 87 -254q0 -161 -91.5 -259.5t-239.5 -98.5zM636 347q0 116 -55 191l-340 -431q63 -48 147 -48q107 0 177.5 77.5t70.5 210.5zM140 347
q0 -116 54 -191l340 431q-63 48 -146 48q-107 0 -177.5 -77.5t-70.5 -210.5zM427 886h97l-108 -139h-62z" />
    <glyph glyph-name="oslashacute" unicode="&#x1ff;" horiz-adv-x="580" 
d="M526 245q0 -117 -65.5 -185.5t-170.5 -68.5q-77 0 -134 37l-38 -48h-81l72 91q-55 68 -55 174q0 117 65.5 186t170.5 69q75 0 132 -37l39 48h82l-73 -91q56 -68 56 -175zM451 245q0 69 -27 117l-226 -282q40 -27 92 -27q76 0 118.5 53t42.5 139zM129 245q0 -69 27 -116
l225 281q-39 28 -91 28q-76 0 -118.5 -53.5t-42.5 -139.5zM330 694h97l-108 -139h-62z" />
    <glyph glyph-name="Scommaaccent" unicode="&#x218;" horiz-adv-x="651" 
d="M330 -11q-125 0 -200.5 55.5t-79.5 158.5h84q6 -67 60.5 -105.5t137.5 -38.5q82 0 132.5 35t50.5 91q0 81 -98 104l-192 45q-73 17 -113 62.5t-40 117.5q0 84 70 137.5t177 53.5q111 0 184 -56.5t74 -150.5h-84q-6 68 -53 102.5t-120 34.5q-74 0 -121 -33.5t-47 -87.5
q0 -82 98 -104l192 -45q73 -17 113 -63t40 -118q0 -87 -71.5 -141t-193.5 -54zM376 -45v-86q0 -90 -94 -90v45q27 0 36 11t9 30v9h-43v81h92z" />
    <glyph glyph-name="scommaaccent" unicode="&#x219;" horiz-adv-x="515" 
d="M67 357q0 64 53.5 103.5t137.5 39.5q79 0 136 -39t59 -111h-78q-2 42 -33.5 64t-83.5 22t-83 -21.5t-31 -54.5q0 -52 81 -69l101 -20q136 -27 136 -134q0 -65 -54.5 -105.5t-146.5 -40.5q-93 0 -150.5 43t-58.5 115h78q3 -44 37 -69t96 -25q122 0 122 79q0 52 -81 69
l-101 20q-136 27 -136 134zM307 -45v-86q0 -90 -94 -90v45q27 0 36 11t9 30v9h-43v81h92z" />
    <glyph glyph-name="uni021A" unicode="&#x21a;" horiz-adv-x="633" 
d="M30 620v74h573v-74h-246v-620h-81v620h-246zM364 -45v-86q0 -90 -94 -90v45q27 0 36 11t9 30v9h-43v81h92z" />
    <glyph glyph-name="uni021B" unicode="&#x21b;" horiz-adv-x="365" 
d="M29 425v66h84v130h72v-130h140v-66h-140v-272q0 -92 68 -92q36 0 72 9v-68q-43 -9 -84 -9q-62 0 -96.5 37.5t-34.5 107.5v287h-81zM253 -45v-86q0 -90 -94 -90v45q27 0 36 11t9 30v9h-43v81h92z" />
    <glyph glyph-name="dotlessj" unicode="&#x237;" horiz-adv-x="241" 
d="M-46 -176v68q26 -4 46 -4q83 0 83 90v513h75v-515q0 -76 -41.5 -116t-114.5 -40q-24 0 -48 4z" />
    <glyph glyph-name="circumflex" unicode="&#x2c6;" horiz-adv-x="400" 
d="M159 694h81l105 -139h-69l-76 83l-76 -83h-69z" />
    <glyph glyph-name="caron" unicode="&#x2c7;" horiz-adv-x="400" 
d="M240 555h-81l-104 139h69l76 -83l76 83h69z" />
    <glyph glyph-name="breve" unicode="&#x2d8;" horiz-adv-x="372" 
d="M185 557q-60 0 -95 39.5t-35 97.5h58q0 -31 18 -54t55 -23t55 23t18 54h58q0 -58 -35.5 -97.5t-96.5 -39.5z" />
    <glyph glyph-name="dotaccent" unicode="&#x2d9;" horiz-adv-x="201" 
d="M55 583v91h91v-91h-91z" />
    <glyph glyph-name="ring" unicode="&#x2da;" horiz-adv-x="319" 
d="M55 645q0 42 30.5 71.5t73.5 29.5q44 0 74.5 -29.5t30.5 -71.5t-30.5 -71t-74.5 -29t-74 29t-30 71zM107 645q0 -23 14.5 -38t37.5 -15t38 15t15 38t-15.5 39t-37.5 16t-37 -16t-15 -39z" />
    <glyph glyph-name="ogonek" unicode="&#x2db;" horiz-adv-x="250" 
d="M144 0h51q-75 -68 -75 -102q0 -32 39 -32q25 0 60 11v-51q-31 -11 -74 -11q-41 0 -65.5 18.5t-24.5 51.5q0 49 89 115z" />
    <glyph glyph-name="tilde" unicode="&#x2dc;" horiz-adv-x="397" 
d="M263 569q-29 0 -69.5 29.5t-54.5 29.5q-35 0 -35 -54h-56q0 117 86 117q29 0 70 -29.5t54 -29.5q16 0 26 14t10 40h55q0 -117 -86 -117z" />
    <glyph glyph-name="hungarumlaut" unicode="&#x2dd;" horiz-adv-x="426" 
d="M134 694h83l-92 -144h-55zM262 694h83l-92 -144h-55z" />
    <glyph glyph-name="pi" unicode="&#x3c0;" horiz-adv-x="607" 
d="M557 425h-81v-425h-75v425h-195v-425h-75v425h-81v66h507v-66z" />
    <glyph glyph-name="Wgrave" unicode="&#x1e80;" horiz-adv-x="1008" 
d="M788 0h-110l-174 619l-174 -619h-110l-189 694h84l164 -616l174 616h104l174 -616l164 616h82zM367 886h97l73 -139h-62z" />
    <glyph glyph-name="wgrave" unicode="&#x1e81;" horiz-adv-x="764" 
d="M382 410l-113 -410h-96l-143 491h78l116 -420l114 420h90l114 -420l116 420h76l-143 -491h-96zM244 694h97l73 -139h-62z" />
    <glyph glyph-name="Wacute" unicode="&#x1e82;" horiz-adv-x="1008" 
d="M788 0h-110l-174 619l-174 -619h-110l-189 694h84l164 -616l174 616h104l174 -616l164 616h82zM544 886h97l-108 -139h-62z" />
    <glyph glyph-name="wacute" unicode="&#x1e83;" horiz-adv-x="764" 
d="M382 410l-113 -410h-96l-143 491h78l116 -420l114 420h90l114 -420l116 420h76l-143 -491h-96zM421 694h97l-108 -139h-62z" />
    <glyph glyph-name="Wdieresis" unicode="&#x1e84;" horiz-adv-x="1008" 
d="M788 0h-110l-174 619l-174 -619h-110l-189 694h84l164 -616l174 616h104l174 -616l164 616h82zM364 765v91h91v-91h-91zM552 765v91h91v-91h-91z" />
    <glyph glyph-name="wdieresis" unicode="&#x1e85;" horiz-adv-x="764" 
d="M382 410l-113 -410h-96l-143 491h78l116 -420l114 420h90l114 -420l116 420h76l-143 -491h-96zM241 583v91h91v-91h-91zM429 583v91h91v-91h-91z" />
    <glyph glyph-name="uni1E8A" unicode="&#x1e8a;" horiz-adv-x="660" 
d="M121 0h-96l257 346l-257 348h100l205 -286l209 286h96l-257 -347l257 -347h-100l-205 285zM285 765v91h91v-91h-91z" />
    <glyph glyph-name="uni1E8B" unicode="&#x1e8b;" horiz-adv-x="508" 
d="M120 0h-88l177 247l-178 244h90l135 -188l130 188h88l-176 -244l179 -247h-90l-135 190zM208 583v91h91v-91h-91z" />
    <glyph glyph-name="Ygrave" unicode="&#x1ef2;" horiz-adv-x="636" 
d="M277 0v267l-274 427h96l220 -349l221 349h93l-275 -427v-267h-81zM183 886h97l73 -139h-62z" />
    <glyph glyph-name="ygrave" unicode="&#x1ef3;" horiz-adv-x="507" 
d="M277 -61q-24 -63 -61.5 -91t-98.5 -28q-34 0 -61 5v69q27 -6 57 -6q41 0 64 17.5t35 54.5l6 16l-193 515h81l150 -416l150 416h79zM115 694h97l73 -139h-62z" />
    <glyph glyph-name="endash" unicode="&#x2013;" horiz-adv-x="500" 
d="M40 233v66h420v-66h-420z" />
    <glyph glyph-name="emdash" unicode="&#x2014;" horiz-adv-x="1000" 
d="M40 233v66h920v-66h-920z" />
    <glyph glyph-name="quoteleft" unicode="&#x2018;" horiz-adv-x="232" 
d="M60 458v119q0 60 32.5 92t91.5 32v-50q-69 0 -69 -69v-21h48v-103h-103z" />
    <glyph glyph-name="quoteright" unicode="&#x2019;" horiz-adv-x="232" 
d="M172 694v-119q0 -60 -32.5 -92t-91.5 -32v50q69 0 69 69v21h-48v103h103z" />
    <glyph glyph-name="quotesinglbase" unicode="&#x201a;" horiz-adv-x="232" 
d="M172 103v-119q0 -60 -32.5 -92t-91.5 -32v50q69 0 69 69v21h-48v103h103z" />
    <glyph glyph-name="quotedblleft" unicode="&#x201c;" horiz-adv-x="417" 
d="M245 458v119q0 60 32.5 92t91.5 32v-50q-69 0 -69 -69v-21h48v-103h-103zM60 458v119q0 60 32.5 92t91.5 32v-50q-69 0 -69 -69v-21h48v-103h-103z" />
    <glyph glyph-name="quotedblright" unicode="&#x201d;" horiz-adv-x="417" 
d="M172 694v-119q0 -60 -32.5 -92t-91.5 -32v50q69 0 69 69v21h-48v103h103zM357 694v-119q0 -60 -32.5 -92t-91.5 -32v50q69 0 69 69v21h-48v103h103z" />
    <glyph glyph-name="quotedblbase" unicode="&#x201e;" horiz-adv-x="417" 
d="M172 103v-119q0 -60 -32.5 -92t-91.5 -32v50q69 0 69 69v21h-48v103h103zM357 103v-119q0 -60 -32.5 -92t-91.5 -32v50q69 0 69 69v21h-48v103h103z" />
    <glyph glyph-name="dagger" unicode="&#x2020;" horiz-adv-x="423" 
d="M368 564v-61h-125v-262h-64v262h-124v61h124v130h64v-130h125z" />
    <glyph glyph-name="daggerdbl" unicode="&#x2021;" horiz-adv-x="433" 
d="M373 404v-61h-125v-127h-64v127h-124v61h124v99h-124v61h124v130h64v-130h125v-61h-125v-99h125z" />
    <glyph glyph-name="bullet" unicode="&#x2022;" horiz-adv-x="420" 
d="M85 290q0 52 36.5 88.5t88.5 36.5t88.5 -36.5t36.5 -88.5t-36.5 -88.5t-88.5 -36.5t-88.5 36.5t-36.5 88.5z" />
    <glyph glyph-name="ellipsis" unicode="&#x2026;" horiz-adv-x="741" 
d="M80 0v107h107v-107h-107zM317 0v107h107v-107h-107zM554 0v107h107v-107h-107z" />
    <glyph glyph-name="perthousand" unicode="&#x2030;" horiz-adv-x="1244" 
d="M272 0h-77l396 694h77zM118 528q0 -54 25.5 -85t68.5 -31t68.5 31t25.5 85t-25.5 85t-68.5 31t-68.5 -31t-25.5 -85zM379 528q0 -84 -49.5 -130.5t-117.5 -46.5t-117.5 46.5t-49.5 130.5t49.5 130.5t117.5 46.5t117.5 -46.5t49.5 -130.5zM559 166q0 -54 25.5 -85
t68.5 -31t68.5 31t25.5 85t-25.5 85t-68.5 31t-68.5 -31t-25.5 -85zM820 166q0 -84 -49.5 -130.5t-117.5 -46.5t-117.5 46.5t-49.5 130.5t49.5 130.5t117.5 46.5t117.5 -46.5t49.5 -130.5zM953 166q0 -54 25.5 -85t68.5 -31t68.5 31t25.5 85t-25.5 85t-68.5 31t-68.5 -31
t-25.5 -85zM1214 166q0 -84 -49.5 -130.5t-117.5 -46.5t-117.5 46.5t-49.5 130.5t49.5 130.5t117.5 46.5t117.5 -46.5t49.5 -130.5z" />
    <glyph glyph-name="guilsinglleft" unicode="&#x2039;" horiz-adv-x="312" 
d="M139 234l113 -200h-73l-129 200l129 200h73z" />
    <glyph glyph-name="guilsinglright" unicode="&#x203a;" horiz-adv-x="312" 
d="M60 34l113 200l-113 200h73l129 -200l-129 -200h-73z" />
    <glyph glyph-name="fraction" unicode="&#x2044;" horiz-adv-x="186" 
d="M-200 0l518 694h68l-516 -694h-70z" />
    <glyph glyph-name="uni2070" unicode="&#x2070;" horiz-adv-x="371" 
d="M185 313q-65 0 -105 46.5t-40 148.5q0 99 40.5 146t104.5 47q65 0 105.5 -47t40.5 -146q0 -101 -40.5 -148t-105.5 -47zM185 365q83 0 83 143q0 140 -83 140t-83 -140q0 -143 83 -143z" />
    <glyph glyph-name="uni2074" unicode="&#x2074;" horiz-adv-x="369" 
d="M282 320h-58v80h-194v54l182 240h70v-242h52v-52h-52v-80zM224 452v174l-130 -174h130z" />
    <glyph glyph-name="uni2075" unicode="&#x2075;" horiz-adv-x="346" 
d="M172 313q-60 0 -96.5 29.5t-36.5 81.5h58q2 -29 23 -45.5t52 -16.5q35 0 57 22t22 57q0 34 -21 54.5t-56 20.5q-54 0 -68 -40h-57l23 218h212v-55h-167l-11 -103q28 31 87 31q51 0 84 -34.5t33 -89.5q0 -56 -36.5 -93t-101.5 -37z" />
    <glyph glyph-name="uni2076" unicode="&#x2076;" horiz-adv-x="358" 
d="M187 313q-69 0 -108 47.5t-39 146.5q0 100 40.5 147t108.5 47q57 0 90 -28t35 -72h-60q-3 22 -20.5 35t-45.5 13q-87 0 -88 -138q27 56 101 56q51 0 84 -33.5t33 -92.5q0 -60 -38 -94t-93 -34zM186 362q34 0 53.5 22t19.5 57q0 33 -20 54t-54 21t-54 -22t-20 -53
q0 -35 20 -57t55 -22z" />
    <glyph glyph-name="uni2077" unicode="&#x2077;" horiz-adv-x="321" 
d="M27 637v57h264v-54l-149 -320h-64l148 317h-199z" />
    <glyph glyph-name="uni2078" unicode="&#x2078;" horiz-adv-x="359" 
d="M180 313q-66 0 -104 30t-38 81q0 30 19.5 55.5t50.5 35.5q-54 25 -54 82q0 46 34.5 75t91.5 29q58 0 93.5 -29t35.5 -75q0 -25 -15 -47.5t-41 -34.5q31 -10 49.5 -35.5t18.5 -55.5q0 -51 -37.5 -81t-103.5 -30zM180 361q36 0 58 18.5t22 46.5t-22 46t-58 18
q-35 0 -57 -18t-22 -46t22 -46.5t57 -18.5zM180 537q32 0 50.5 16t18.5 43q0 24 -18.5 39.5t-50.5 15.5q-31 0 -49.5 -15.5t-18.5 -39.5q0 -27 18.5 -43t49.5 -16z" />
    <glyph glyph-name="uni2079" unicode="&#x2079;" horiz-adv-x="358" 
d="M173 701q68 0 106.5 -47.5t38.5 -146.5q0 -194 -147 -194q-56 0 -89 27.5t-35 70.5h60q3 -21 20.5 -34.5t44.5 -13.5q87 0 88 137q-30 -54 -100 -54q-51 0 -85.5 33.5t-34.5 91.5q0 60 39 95t94 35zM173 650q-33 0 -52.5 -21.5t-19.5 -55.5q0 -33 19.5 -54.5t52.5 -21.5
q35 0 56 22.5t21 53.5q0 34 -21 55.5t-56 21.5z" />
    <glyph glyph-name="parenleft.sups" unicode="&#x207d;" horiz-adv-x="220" 
d="M113 506q1 -118 75 -218h-58q-77 102 -77 218q0 118 77 218h58q-74 -103 -75 -218z" />
    <glyph glyph-name="parenright.sups" unicode="&#x207e;" horiz-adv-x="220" 
d="M107 506q-1 115 -75 218h58q77 -100 77 -218q0 -116 -77 -218h-58q74 100 75 218z" />
    <glyph glyph-name="uni2080" unicode="&#x2080;" horiz-adv-x="371" 
d="M185 -116q-65 0 -105 46.5t-40 148.5q0 99 40.5 146t104.5 47q65 0 105.5 -47t40.5 -146q0 -101 -40.5 -148t-105.5 -47zM185 -64q83 0 83 143q0 140 -83 140t-83 -140q0 -143 83 -143z" />
    <glyph glyph-name="uni2081" unicode="&#x2081;" horiz-adv-x="280" 
d="M198 -110h-61v308l-100 -65v65l102 66h59v-374z" />
    <glyph glyph-name="uni2082" unicode="&#x2082;" horiz-adv-x="337" 
d="M304 -110h-258v54l146 146q15 15 22.5 23.5t14.5 22.5t7 28q0 24 -18 39t-47 15q-32 0 -50 -18.5t-18 -50.5h-62q0 55 35 88.5t97 33.5q56 0 90 -30t34 -75q0 -53 -62 -115l-105 -105h174v-56z" />
    <glyph glyph-name="uni2083" unicode="&#x2083;" horiz-adv-x="350" 
d="M172 -117q-63 0 -98.5 29.5t-37.5 81.5h60q2 -28 22.5 -45t53.5 -17q35 0 56 18t21 49q0 58 -87 58h-17v48h11q39 0 60.5 16.5t21.5 44.5q0 24 -19 38.5t-47 14.5q-31 0 -49.5 -17.5t-18.5 -47.5h-62q-1 53 34.5 85t98.5 32q57 0 89.5 -30.5t32.5 -74.5
q0 -26 -16.5 -48.5t-42.5 -34.5q29 -4 50.5 -27t21.5 -59q0 -53 -36 -83.5t-102 -30.5z" />
    <glyph glyph-name="uni2084" unicode="&#x2084;" horiz-adv-x="369" 
d="M282 -110h-58v80h-194v54l182 240h70v-242h52v-52h-52v-80zM224 22v174l-130 -174h130z" />
    <glyph glyph-name="uni2085" unicode="&#x2085;" horiz-adv-x="346" 
d="M172 -117q-60 0 -96.5 29.5t-36.5 81.5h58q2 -29 23 -45.5t52 -16.5q35 0 57 22t22 57q0 34 -21 54.5t-56 20.5q-54 0 -68 -40h-57l23 218h212v-55h-167l-11 -103q28 31 87 31q51 0 84 -34.5t33 -89.5q0 -56 -36.5 -93t-101.5 -37z" />
    <glyph glyph-name="uni2086" unicode="&#x2086;" horiz-adv-x="358" 
d="M187 -117q-69 0 -108 47.5t-39 146.5q0 100 40.5 147t108.5 47q57 0 90 -28t35 -72h-60q-3 22 -20.5 35t-45.5 13q-87 0 -88 -138q27 56 101 56q51 0 84 -33.5t33 -92.5q0 -60 -38 -94t-93 -34zM186 -68q34 0 53.5 22t19.5 57q0 33 -20 54t-54 21t-54 -22t-20 -53
q0 -35 20 -57t55 -22z" />
    <glyph glyph-name="uni2087" unicode="&#x2087;" horiz-adv-x="318" 
d="M24 207v57h264v-54l-149 -320h-64l148 317h-199z" />
    <glyph glyph-name="uni2088" unicode="&#x2088;" horiz-adv-x="359" 
d="M180 -117q-66 0 -104 30t-38 81q0 30 19.5 55.5t50.5 35.5q-54 25 -54 82q0 46 34.5 75t91.5 29q58 0 93.5 -29t35.5 -75q0 -25 -15 -47.5t-41 -34.5q31 -10 49.5 -35.5t18.5 -55.5q0 -51 -37.5 -81t-103.5 -30zM180 -69q36 0 58 18.5t22 46.5t-22 46t-58 18
q-35 0 -57 -18t-22 -46t22 -46.5t57 -18.5zM180 107q32 0 50.5 16t18.5 43q0 24 -18.5 39.5t-50.5 15.5q-31 0 -49.5 -15.5t-18.5 -39.5q0 -27 18.5 -43t49.5 -16z" />
    <glyph glyph-name="uni2089" unicode="&#x2089;" horiz-adv-x="358" 
d="M173 271q68 0 106.5 -47.5t38.5 -146.5q0 -194 -147 -194q-56 0 -89 27.5t-35 70.5h60q3 -21 20.5 -34.5t44.5 -13.5q87 0 88 137q-30 -54 -100 -54q-51 0 -85.5 33.5t-34.5 91.5q0 60 39 95t94 35zM173 220q-33 0 -52.5 -21.5t-19.5 -55.5q0 -33 19.5 -54.5t52.5 -21.5
q35 0 56 22.5t21 53.5q0 34 -21 55.5t-56 21.5z" />
    <glyph glyph-name="Euro" unicode="&#x20ac;" horiz-adv-x="718" 
d="M60 390v62h81q21 118 87 185.5t167 67.5t164.5 -58t76.5 -166h-79q-12 77 -56 115.5t-106 38.5q-66 0 -112 -48t-64 -135h216v-62h-224q-1 -14 -1 -43q0 -31 1 -45h224v-62h-215q17 -86 63 -133.5t112 -47.5q62 0 106 38.5t56 115.5h79q-13 -108 -76.5 -166t-164.5 -58
t-167.5 66.5t-86.5 184.5h-81v62h73q-1 14 -1 45q0 29 1 43h-73z" />
    <glyph glyph-name="trademark" unicode="&#x2122;" horiz-adv-x="829" 
d="M45 639v55h294v-55h-118v-276h-59v276h-117zM542 362l-102 272v-272h-58v332h90l103 -275l103 275h91v-332h-59v272l-101 -272h-67z" />
    <glyph glyph-name="Omega" unicode="&#x2126;" horiz-adv-x="804" 
d="M648 365q0 119 -70.5 193.5t-175.5 74.5t-175.5 -74.5t-70.5 -193.5q0 -242 188 -293v-72h-279v72h137q-131 85 -131 293q0 148 92.5 244t238.5 96t238.5 -96t92.5 -244q0 -207 -131 -293h137v-72h-279v72q188 51 188 293z" />
    <glyph glyph-name="uni2153" unicode="&#x2153;" horiz-adv-x="796" 
d="M90 0l518 694h68l-516 -694h-70zM188 320h-61v308l-100 -65v65l102 66h59v-374zM618 -7q-63 0 -98.5 29.5t-37.5 81.5h60q2 -28 22.5 -45t53.5 -17q35 0 56 18t21 49q0 58 -87 58h-17v48h11q39 0 60.5 16.5t21.5 44.5q0 24 -19 38.5t-47 14.5q-31 0 -49.5 -17.5
t-18.5 -47.5h-62q-1 53 34.5 85t98.5 32q57 0 89.5 -30.5t32.5 -74.5q0 -26 -16.5 -48.5t-42.5 -34.5q29 -4 50.5 -27t21.5 -59q0 -53 -36 -83.5t-102 -30.5z" />
    <glyph glyph-name="uni2154" unicode="&#x2154;" horiz-adv-x="846" 
d="M140 0l518 694h68l-516 -694h-70zM304 320h-258v54l146 146q15 15 22.5 23.5t14.5 22.5t7 28q0 24 -18 39t-47 15q-32 0 -50 -18.5t-18 -50.5h-62q0 55 35 88.5t97 33.5q56 0 90 -30t34 -75q0 -53 -62 -115l-105 -105h174v-56zM668 -7q-63 0 -98.5 29.5t-37.5 81.5h60
q2 -28 22.5 -45t53.5 -17q35 0 56 18t21 49q0 58 -87 58h-17v48h11q39 0 60.5 16.5t21.5 44.5q0 24 -19 38.5t-47 14.5q-31 0 -49.5 -17.5t-18.5 -47.5h-62q-1 53 34.5 85t98.5 32q57 0 89.5 -30.5t32.5 -74.5q0 -26 -16.5 -48.5t-42.5 -34.5q29 -4 50.5 -27t21.5 -59
q0 -53 -36 -83.5t-102 -30.5z" />
    <glyph glyph-name="uni2155" unicode="&#x2155;" horiz-adv-x="812" 
d="M90 0l518 694h68l-516 -694h-70zM188 320h-61v308l-100 -65v65l102 66h59v-374zM638 -7q-60 0 -96.5 29.5t-36.5 81.5h58q2 -29 23 -45.5t52 -16.5q35 0 57 22t22 57q0 34 -21 54.5t-56 20.5q-54 0 -68 -40h-57l23 218h212v-55h-167l-11 -103q28 31 87 31q51 0 84 -34.5
t33 -89.5q0 -56 -36.5 -93t-101.5 -37z" />
    <glyph glyph-name="uni2156" unicode="&#x2156;" horiz-adv-x="862" 
d="M140 0l518 694h68l-516 -694h-70zM304 320h-258v54l146 146q15 15 22.5 23.5t14.5 22.5t7 28q0 24 -18 39t-47 15q-32 0 -50 -18.5t-18 -50.5h-62q0 55 35 88.5t97 33.5q56 0 90 -30t34 -75q0 -53 -62 -115l-105 -105h174v-56zM688 -7q-60 0 -96.5 29.5t-36.5 81.5h58
q2 -29 23 -45.5t52 -16.5q35 0 57 22t22 57q0 34 -21 54.5t-56 20.5q-54 0 -68 -40h-57l23 218h212v-55h-167l-11 -103q28 31 87 31q51 0 84 -34.5t33 -89.5q0 -56 -36.5 -93t-101.5 -37z" />
    <glyph glyph-name="uni2157" unicode="&#x2157;" horiz-adv-x="882" 
d="M160 0l518 694h68l-516 -694h-70zM172 313q-63 0 -98.5 29.5t-37.5 81.5h60q2 -28 22.5 -45t53.5 -17q35 0 56 18t21 49q0 58 -87 58h-17v48h11q39 0 60.5 16.5t21.5 44.5q0 24 -19 38.5t-47 14.5q-31 0 -49.5 -17.5t-18.5 -47.5h-62q-1 53 34.5 85t98.5 32
q57 0 89.5 -30.5t32.5 -74.5q0 -26 -16.5 -48.5t-42.5 -34.5q29 -4 50.5 -27t21.5 -59q0 -53 -36 -83.5t-102 -30.5zM708 -7q-60 0 -96.5 29.5t-36.5 81.5h58q2 -29 23 -45.5t52 -16.5q35 0 57 22t22 57q0 34 -21 54.5t-56 20.5q-54 0 -68 -40h-57l23 218h212v-55h-167
l-11 -103q28 31 87 31q51 0 84 -34.5t33 -89.5q0 -56 -36.5 -93t-101.5 -37z" />
    <glyph glyph-name="uni2158" unicode="&#x2158;" horiz-adv-x="901" 
d="M179 0l518 694h68l-516 -694h-70zM282 320h-58v80h-194v54l182 240h70v-242h52v-52h-52v-80zM224 452v174l-130 -174h130zM727 -7q-60 0 -96.5 29.5t-36.5 81.5h58q2 -29 23 -45.5t52 -16.5q35 0 57 22t22 57q0 34 -21 54.5t-56 20.5q-54 0 -68 -40h-57l23 218h212v-55
h-167l-11 -103q28 31 87 31q51 0 84 -34.5t33 -89.5q0 -56 -36.5 -93t-101.5 -37z" />
    <glyph glyph-name="uni2159" unicode="&#x2159;" horiz-adv-x="824" 
d="M90 0l518 694h68l-516 -694h-70zM188 320h-61v308l-100 -65v65l102 66h59v-374zM653 -7q-69 0 -108 47.5t-39 146.5q0 100 40.5 147t108.5 47q57 0 90 -28t35 -72h-60q-3 22 -20.5 35t-45.5 13q-87 0 -88 -138q27 56 101 56q51 0 84 -33.5t33 -92.5q0 -60 -38 -94
t-93 -34zM652 42q34 0 53.5 22t19.5 57q0 33 -20 54t-54 21t-54 -22t-20 -53q0 -35 20 -57t55 -22z" />
    <glyph glyph-name="uni215A" unicode="&#x215a;" horiz-adv-x="890" 
d="M156 0l518 694h68l-516 -694h-70zM172 313q-60 0 -96.5 29.5t-36.5 81.5h58q2 -29 23 -45.5t52 -16.5q35 0 57 22t22 57q0 34 -21 54.5t-56 20.5q-54 0 -68 -40h-57l23 218h212v-55h-167l-11 -103q28 31 87 31q51 0 84 -34.5t33 -89.5q0 -56 -36.5 -93t-101.5 -37z
M719 -7q-69 0 -108 47.5t-39 146.5q0 100 40.5 147t108.5 47q57 0 90 -28t35 -72h-60q-3 22 -20.5 35t-45.5 13q-87 0 -88 -138q27 56 101 56q51 0 84 -33.5t33 -92.5q0 -60 -38 -94t-93 -34zM718 42q34 0 53.5 22t19.5 57q0 33 -20 54t-54 21t-54 -22t-20 -53q0 -35 20 -57
t55 -22z" />
    <glyph glyph-name="uni215B" unicode="&#x215b;" 
d="M90 0l518 694h68l-516 -694h-70zM188 320h-61v308l-100 -65v65l102 66h59v-374zM646 -7q-66 0 -104 30t-38 81q0 30 19.5 55.5t50.5 35.5q-54 25 -54 82q0 46 34.5 75t91.5 29q58 0 93.5 -29t35.5 -75q0 -25 -15 -47.5t-41 -34.5q31 -10 49.5 -35.5t18.5 -55.5
q0 -51 -37.5 -81t-103.5 -30zM646 41q36 0 58 18.5t22 46.5t-22 46t-58 18q-35 0 -57 -18t-22 -46t22 -46.5t57 -18.5zM646 217q32 0 50.5 16t18.5 43q0 24 -18.5 39.5t-50.5 15.5q-31 0 -49.5 -15.5t-18.5 -39.5q0 -27 18.5 -43t49.5 -16z" />
    <glyph glyph-name="uni215C" unicode="&#x215c;" horiz-adv-x="895" 
d="M160 0l518 694h68l-516 -694h-70zM172 313q-63 0 -98.5 29.5t-37.5 81.5h60q2 -28 22.5 -45t53.5 -17q35 0 56 18t21 49q0 58 -87 58h-17v48h11q39 0 60.5 16.5t21.5 44.5q0 24 -19 38.5t-47 14.5q-31 0 -49.5 -17.5t-18.5 -47.5h-62q-1 53 34.5 85t98.5 32
q57 0 89.5 -30.5t32.5 -74.5q0 -26 -16.5 -48.5t-42.5 -34.5q29 -4 50.5 -27t21.5 -59q0 -53 -36 -83.5t-102 -30.5zM716 -7q-66 0 -104 30t-38 81q0 30 19.5 55.5t50.5 35.5q-54 25 -54 82q0 46 34.5 75t91.5 29q58 0 93.5 -29t35.5 -75q0 -25 -15 -47.5t-41 -34.5
q31 -10 49.5 -35.5t18.5 -55.5q0 -51 -37.5 -81t-103.5 -30zM716 41q36 0 58 18.5t22 46.5t-22 46t-58 18q-35 0 -57 -18t-22 -46t22 -46.5t57 -18.5zM716 217q32 0 50.5 16t18.5 43q0 24 -18.5 39.5t-50.5 15.5q-31 0 -49.5 -15.5t-18.5 -39.5q0 -27 18.5 -43t49.5 -16z
" />
    <glyph glyph-name="uni215D" unicode="&#x215d;" horiz-adv-x="891" 
d="M156 0l518 694h68l-516 -694h-70zM172 313q-60 0 -96.5 29.5t-36.5 81.5h58q2 -29 23 -45.5t52 -16.5q35 0 57 22t22 57q0 34 -21 54.5t-56 20.5q-54 0 -68 -40h-57l23 218h212v-55h-167l-11 -103q28 31 87 31q51 0 84 -34.5t33 -89.5q0 -56 -36.5 -93t-101.5 -37z
M712 -7q-66 0 -104 30t-38 81q0 30 19.5 55.5t50.5 35.5q-54 25 -54 82q0 46 34.5 75t91.5 29q58 0 93.5 -29t35.5 -75q0 -25 -15 -47.5t-41 -34.5q31 -10 49.5 -35.5t18.5 -55.5q0 -51 -37.5 -81t-103.5 -30zM712 41q36 0 58 18.5t22 46.5t-22 46t-58 18q-35 0 -57 -18
t-22 -46t22 -46.5t57 -18.5zM712 217q32 0 50.5 16t18.5 43q0 24 -18.5 39.5t-50.5 15.5q-31 0 -49.5 -15.5t-18.5 -39.5q0 -27 18.5 -43t49.5 -16z" />
    <glyph glyph-name="uni215E" unicode="&#x215e;" horiz-adv-x="836" 
d="M101 0l518 694h68l-516 -694h-70zM27 637v57h264v-54l-149 -320h-64l148 317h-199zM657 -7q-66 0 -104 30t-38 81q0 30 19.5 55.5t50.5 35.5q-54 25 -54 82q0 46 34.5 75t91.5 29q58 0 93.5 -29t35.5 -75q0 -25 -15 -47.5t-41 -34.5q31 -10 49.5 -35.5t18.5 -55.5
q0 -51 -37.5 -81t-103.5 -30zM657 41q36 0 58 18.5t22 46.5t-22 46t-58 18q-35 0 -57 -18t-22 -46t22 -46.5t57 -18.5zM657 217q32 0 50.5 16t18.5 43q0 24 -18.5 39.5t-50.5 15.5q-31 0 -49.5 -15.5t-18.5 -39.5q0 -27 18.5 -43t49.5 -16z" />
    <glyph glyph-name="uni2190" unicode="&#x2190;" 
d="M335 644h90l-261 -263h621v-65h-624l264 -266h-90l-296 297z" />
    <glyph glyph-name="uni2191" unicode="&#x2191;" 
d="M709 424v-90l-263 261v-621h-65v624l-266 -264v90l297 296z" />
    <glyph glyph-name="uni2192" unicode="&#x2192;" 
d="M399 644h90l296 -297l-296 -297h-90l264 266h-624v65h621z" />
    <glyph glyph-name="uni2193" unicode="&#x2193;" 
d="M709 360v-90l-297 -296l-297 296v90l266 -264v624h65v-621z" />
    <glyph glyph-name="partialdiff" unicode="&#x2202;" horiz-adv-x="570" 
d="M179 694h97q40 -27 79 -66.5t77.5 -94t62.5 -124.5t24 -143q0 -124 -60.5 -199.5t-173.5 -75.5q-105 0 -170.5 68.5t-65.5 185.5q0 116 63.5 183.5t162.5 67.5q78 0 134 -53q-73 143 -230 251zM128 245q0 -84 41 -136t116 -52t116 52t41 136t-41.5 136.5t-115.5 52.5
t-115.5 -52.5t-41.5 -136.5z" />
    <glyph glyph-name="Delta" unicode="&#x2206;" horiz-adv-x="711" 
d="M657 71v-71h-603v71l253 623h96zM354 617l-217 -543h433z" />
    <glyph glyph-name="product" unicode="&#x220f;" horiz-adv-x="744" 
d="M93 0v694h558v-694h-81v621h-396v-621h-81z" />
    <glyph glyph-name="summation" unicode="&#x2211;" horiz-adv-x="601" 
d="M59 72l239 287l-239 263v72h487v-72h-387l211 -231v-72l-207 -246h388v-73h-492v72z" />
    <glyph glyph-name="minus" unicode="&#x2212;" horiz-adv-x="650" 
d="M99 288v69h452v-69h-452z" />
    <glyph glyph-name="radical" unicode="&#x221a;" horiz-adv-x="650" 
d="M50 286v68h158l101 -280l226 620h76l-258 -694h-92l-108 286h-103z" />
    <glyph glyph-name="infinity" unicode="&#x221e;" horiz-adv-x="650" 
d="M178 464q90 0 147 -87q58 87 147 87q68 0 107.5 -40.5t39.5 -103.5q0 -64 -39.5 -104.5t-107.5 -40.5q-90 0 -147 87q-57 -87 -147 -87q-68 0 -107.5 40.5t-39.5 104.5q0 63 39.5 103.5t107.5 40.5zM470 404q-61 0 -109 -85q48 -83 109 -83q37 0 58.5 24.5t21.5 59.5
t-21.5 59.5t-58.5 24.5zM180 236q62 0 109 84q-49 84 -109 84q-36 0 -58 -24.5t-22 -59.5t22 -59.5t58 -24.5z" />
    <glyph glyph-name="integral" unicode="&#x222b;" horiz-adv-x="423" 
d="M239 543v-567q0 -76 -41.5 -116t-114.5 -40q-24 0 -48 4v68q26 -4 46 -4q83 0 83 90v568q0 76 41 116t113 40q34 0 61 -6v-68q-27 6 -56 6q-43 0 -63.5 -21.5t-20.5 -69.5z" />
    <glyph glyph-name="approxequal" unicode="&#x2248;" horiz-adv-x="650" 
d="M454 359q-41 0 -133.5 30t-117.5 30q-37 0 -37 -49v-13h-71v23q0 46 28 76t73 30q40 0 133 -29.5t118 -29.5q37 0 37 48v13h71v-23q0 -46 -28 -76t-73 -30zM454 159q-41 0 -133.5 30t-117.5 30q-37 0 -37 -49v-13h-71v23q0 46 28 76t73 30q40 0 133 -29.5t118 -29.5
q37 0 37 48v13h71v-23q0 -46 -28 -76t-73 -30z" />
    <glyph glyph-name="notequal" unicode="&#x2260;" horiz-adv-x="650" 
d="M92 398v68h254l42 105h69l-42 -105h143v-68h-169l-60 -151h229v-68h-256l-41 -105h-69l41 105h-141v68h168l60 151h-228z" />
    <glyph glyph-name="lessequal" unicode="&#x2264;" horiz-adv-x="650" 
d="M98 359v68l452 173v-75l-364 -132l364 -132v-75zM90 0v69h460v-69h-460z" />
    <glyph glyph-name="greaterequal" unicode="&#x2265;" horiz-adv-x="650" 
d="M552 427v-68l-452 -173v75l364 132l-364 132v75zM560 69v-69h-460v69h460z" />
    <glyph glyph-name="uni2295" unicode="&#x2295;" 
d="M770 347q0 -151 -103.5 -254.5t-254.5 -103.5t-254.5 103.5t-103.5 254.5t103.5 254.5t254.5 103.5t254.5 -103.5t103.5 -254.5zM444 55q104 11 176 83.5t83 176.5h-259v-260zM121 315q11 -104 82.5 -176.5t175.5 -83.5v260h-258zM444 638v-258h259q-11 104 -83.5 176
t-175.5 82zM379 638q-104 -11 -176 -83t-82 -175h258v258z" />
    <glyph glyph-name="uni2296" unicode="&#x2296;" 
d="M412 -11q-151 0 -254.5 103.5t-103.5 254.5t103.5 254.5t254.5 103.5t254.5 -103.5t103.5 -254.5t-103.5 -254.5t-254.5 -103.5zM412 54q115 0 197.5 74t93.5 187h-583q12 -113 94.5 -187t197.5 -74zM412 640q-115 0 -197.5 -74t-94.5 -186h583q-12 112 -94 186t-197 74z
" />
    <glyph glyph-name="uni2297" unicode="&#x2297;" 
d="M770 347q0 -151 -103.5 -254.5t-254.5 -103.5t-254.5 103.5t-103.5 254.5t103.5 254.5t254.5 103.5t254.5 -103.5t103.5 -254.5zM119 347q0 -105 63 -184l184 184l-184 184q-63 -79 -63 -184zM412 54q105 0 184 63l-184 184l-184 -184q79 -63 184 -63zM412 640
q-105 0 -184 -63l184 -184l184 184q-81 63 -184 63zM705 347q0 103 -63 184l-184 -184l184 -184q63 79 63 184z" />
    <glyph glyph-name="uni2299" unicode="&#x2299;" 
d="M286 347q0 53 36.5 89.5t89.5 36.5t89.5 -36.5t36.5 -89.5t-36.5 -89.5t-89.5 -36.5t-89.5 36.5t-36.5 89.5zM119 347q0 -124 84.5 -208.5t208.5 -84.5t208.5 84.5t84.5 208.5t-84.5 208.5t-208.5 84.5t-208.5 -84.5t-84.5 -208.5zM770 347q0 -151 -103.5 -254.5
t-254.5 -103.5t-254.5 103.5t-103.5 254.5t103.5 254.5t254.5 103.5t254.5 -103.5t103.5 -254.5z" />
    <glyph glyph-name="uni22A0" unicode="&#x22a0;" 
d="M759 0h-694v694h694v-694zM649 65l-237 236l-236 -236h473zM694 112v471l-236 -236zM648 629h-471l235 -236zM130 584v-473l236 236z" />
    <glyph glyph-name="uni2460" unicode="&#x2460;" horiz-adv-x="950" 
d="M475 702q-149 0 -252 -103t-103 -252t103 -252t252 -103t252 103t103 252t-103 252t-252 103zM475 767q177 0 298.5 -121.5t121.5 -298.5t-121.5 -298.5t-298.5 -121.5t-298.5 121.5t-121.5 298.5t121.5 298.5t298.5 121.5zM516 95h-68v426l-116 -82v73l118 87h66v-504z
" />
    <glyph glyph-name="uni2461" unicode="&#x2461;" horiz-adv-x="950" 
d="M312 95v63l189 194q61 61 61 115q0 36 -25 58.5t-65 22.5q-44 0 -70.5 -27.5t-26.5 -78.5h-71q1 77 46 120.5t122 43.5q72 0 115.5 -40t43.5 -98q0 -73 -83 -158l-149 -152h238v-63h-325zM475 702q-149 0 -252 -103t-103 -252t103 -252t252 -103t252 103t103 252
t-103 252t-252 103zM475 767q177 0 298.5 -121.5t121.5 -298.5t-121.5 -298.5t-298.5 -121.5t-298.5 121.5t-121.5 298.5t121.5 298.5t298.5 121.5z" />
    <glyph glyph-name="uni2462" unicode="&#x2462;" horiz-adv-x="950" 
d="M467 88q-77 0 -123 39t-48 105h72q1 -38 27.5 -62t71.5 -24q48 0 76 25t28 66q0 87 -113 87h-21v56h14q54 0 82 25.5t28 63.5q0 36 -26 57.5t-66 21.5q-43 0 -69.5 -26t-27.5 -71h-70q2 71 46.5 113t122.5 42q73 0 116 -40t43 -97q0 -38 -22.5 -68.5t-59.5 -44.5
q39 -8 66 -39t27 -80q0 -68 -46.5 -108.5t-127.5 -40.5zM475 702q-149 0 -252 -103t-103 -252t103 -252t252 -103t252 103t103 252t-103 252t-252 103zM475 767q177 0 298.5 -121.5t121.5 -298.5t-121.5 -298.5t-298.5 -121.5t-298.5 121.5t-121.5 298.5t121.5 298.5
t298.5 121.5z" />
    <glyph glyph-name="uni2463" unicode="&#x2463;" horiz-adv-x="950" 
d="M565 95h-66v114h-251v60l234 330h83v-330h69v-60h-69v-114zM499 269v251l-179 -251h179zM475 702q-149 0 -252 -103t-103 -252t103 -252t252 -103t252 103t103 252t-103 252t-252 103zM475 767q177 0 298.5 -121.5t121.5 -298.5t-121.5 -298.5t-298.5 -121.5
t-298.5 121.5t-121.5 298.5t121.5 298.5t298.5 121.5z" />
    <glyph glyph-name="uni2464" unicode="&#x2464;" horiz-adv-x="950" 
d="M470 143q48 0 77.5 30.5t29.5 79.5t-28.5 79.5t-71.5 30.5q-71 0 -95 -59h-67l32 292h267v-63h-212l-18 -157q37 44 107 44q64 0 109.5 -46.5t45.5 -120.5q0 -73 -48 -120.5t-128 -47.5q-77 0 -123 39.5t-47 105.5h70q2 -38 29 -62.5t71 -24.5zM475 702q-149 0 -252 -103
t-103 -252t103 -252t252 -103t252 103t103 252t-103 252t-252 103zM475 767q177 0 298.5 -121.5t121.5 -298.5t-121.5 -298.5t-298.5 -121.5t-298.5 121.5t-121.5 298.5t121.5 298.5t298.5 121.5z" />
    <glyph glyph-name="uni2465" unicode="&#x2465;" horiz-adv-x="950" 
d="M475 -73q-177 0 -298.5 121.5t-121.5 298.5t121.5 298.5t298.5 121.5t298.5 -121.5t121.5 -298.5t-121.5 -298.5t-298.5 -121.5zM475 -8q149 0 252 103t103 252t-103 252t-252 103t-252 -103t-103 -252t103 -252t252 -103zM473 88q-84 0 -133 64t-49 199
q0 132 51.5 193.5t134.5 61.5q69 0 111.5 -37t44.5 -93h-71q-2 33 -25 52.5t-61 19.5q-116 0 -119 -202q18 38 52.5 58t76.5 20q68 0 114 -45t46 -120q0 -80 -49.5 -125.5t-123.5 -45.5zM472 146q49 0 76.5 30t27.5 81q0 50 -28 80t-71 30q-47 0 -75.5 -32.5t-28.5 -77.5
q0 -51 26.5 -81t72.5 -30z" />
    <glyph glyph-name="uni2466" unicode="&#x2466;" horiz-adv-x="950" 
d="M300 534v65h323v-61l-194 -443h-73l191 439h-247zM475 702q-149 0 -252 -103t-103 -252t103 -252t252 -103t252 103t103 252t-103 252t-252 103zM475 767q177 0 298.5 -121.5t121.5 -298.5t-121.5 -298.5t-298.5 -121.5t-298.5 121.5t-121.5 298.5t121.5 298.5
t298.5 121.5z" />
    <glyph glyph-name="uni2467" unicode="&#x2467;" horiz-adv-x="950" 
d="M475 702q-149 0 -252 -103t-103 -252t103 -252t252 -103t252 103t103 252t-103 252t-252 103zM475 767q177 0 298.5 -121.5t121.5 -298.5t-121.5 -298.5t-298.5 -121.5t-298.5 121.5t-121.5 298.5t121.5 298.5t298.5 121.5zM482 88q-82 0 -129.5 39.5t-47.5 104.5
q0 42 24 76.5t65 47.5q-33 15 -52.5 46.5t-19.5 65.5q0 59 44 98.5t116 39.5t116 -39.5t44 -98.5q0 -34 -19.5 -65.5t-52.5 -46.5q41 -13 65 -47.5t24 -76.5q0 -65 -47.5 -104.5t-129.5 -39.5zM482 143q49 0 77.5 26t28.5 66t-28.5 66t-77.5 26t-77.5 -26t-28.5 -66
t28.5 -66t77.5 -26zM482 381q41 0 66.5 24.5t25.5 62.5q0 35 -25.5 59t-66.5 24t-66.5 -24t-25.5 -59q0 -38 25.5 -62.5t66.5 -24.5z" />
    <glyph glyph-name="uni2468" unicode="&#x2468;" horiz-adv-x="950" 
d="M475 702q-149 0 -252 -103t-103 -252t103 -252t252 -103t252 103t103 252t-103 252t-252 103zM475 767q177 0 298.5 -121.5t121.5 -298.5t-121.5 -298.5t-298.5 -121.5t-298.5 121.5t-121.5 298.5t121.5 298.5t298.5 121.5zM473 606q86 0 135 -63.5t49 -199.5
q0 -132 -52 -193.5t-135 -61.5q-68 0 -110.5 37t-45.5 93h70q4 -33 27 -52.5t60 -19.5q116 0 119 202q-17 -38 -52.5 -58t-77.5 -20q-67 0 -113 45t-46 120q0 80 49 125.5t123 45.5zM476 548q-49 0 -77.5 -30t-28.5 -81q0 -50 28 -80t73 -30q46 0 75 32.5t29 77.5
q0 50 -27.5 80.5t-71.5 30.5z" />
    <glyph glyph-name="uni2469" unicode="&#x2469;" horiz-adv-x="950" 
d="M475 702q-149 0 -252 -103t-103 -252t103 -252t252 -103t252 103t103 252t-103 252t-252 103zM475 767q177 0 298.5 -121.5t121.5 -298.5t-121.5 -298.5t-298.5 -121.5t-298.5 121.5t-121.5 298.5t121.5 298.5t298.5 121.5zM546 88q-72 0 -108 62t-36 197t36 197t108 62
t108 -62t36 -197t-36 -197t-108 -62zM546 147q41 0 58 46.5t17 153.5t-17 153.5t-58 46.5q-42 0 -59 -46t-17 -154t17 -154t59 -46zM292 95v504h66v-504h-66z" />
    <glyph glyph-name="uni25A0" unicode="&#x25a0;" 
d="M759 694v-694h-694v694h694z" />
    <glyph glyph-name="uni25A1" unicode="&#x25a1;" 
d="M759 694v-694h-694v694h694zM130 629v-564h564v564h-564z" />
    <glyph glyph-name="uni25B2" unicode="&#x25b2;" 
d="M412 705l355 -705h-709z" />
    <glyph glyph-name="uni25B3" unicode="&#x25b3;" 
d="M412 705l355 -705h-709zM163 65h499l-250 494z" />
    <glyph glyph-name="uni25B6" unicode="&#x25b6;" 
d="M60 702l705 -355l-705 -354v709z" />
    <glyph glyph-name="uni25B7" unicode="&#x25b7;" 
d="M59 701l705 -354l-705 -355v709zM124 596v-499l494 250z" />
    <glyph glyph-name="uni25BC" unicode="&#x25bc;" 
d="M767 694l-355 -705l-354 705h709z" />
    <glyph glyph-name="uni25BD" unicode="&#x25bd;" 
d="M767 694l-355 -705l-354 705h709zM662 629h-499l249 -494z" />
    <glyph glyph-name="uni25C0" unicode="&#x25c0;" 
d="M60 347l705 355v-709z" />
    <glyph glyph-name="uni25C1" unicode="&#x25c1;" 
d="M60 347l705 354v-709zM700 97v499l-494 -249z" />
    <glyph glyph-name="lozenge" unicode="&#x25ca;" horiz-adv-x="706" 
d="M33 347l278 347h84l278 -347l-278 -347h-84zM353 625l-219 -278l218 -277l219 277z" />
    <glyph glyph-name="uni25CB" unicode="&#x25cb;" 
d="M119 347q0 -124 84.5 -208.5t208.5 -84.5t208.5 84.5t84.5 208.5t-84.5 208.5t-208.5 84.5t-208.5 -84.5t-84.5 -208.5zM770 347q0 -151 -103.5 -254.5t-254.5 -103.5t-254.5 103.5t-103.5 254.5t103.5 254.5t254.5 103.5t254.5 -103.5t103.5 -254.5z" />
    <glyph glyph-name="uni25CF" unicode="&#x25cf;" 
d="M54 347q0 151 103.5 254.5t254.5 103.5t254.5 -103.5t103.5 -254.5t-103.5 -254.5t-254.5 -103.5t-254.5 103.5t-103.5 254.5z" />
    <glyph glyph-name="uni25D0" unicode="&#x25d0;" 
d="M412 640v-586q124 0 208.5 84.5t84.5 208.5t-84.5 208.5t-208.5 84.5zM412 -11q-151 0 -254.5 103.5t-103.5 254.5t103.5 254.5t254.5 103.5t254.5 -103.5t103.5 -254.5t-103.5 -254.5t-254.5 -103.5z" />
    <glyph glyph-name="uni25D1" unicode="&#x25d1;" 
d="M412 54v586q-124 0 -208.5 -84.5t-84.5 -208.5t84.5 -208.5t208.5 -84.5zM412 -11q-151 0 -254.5 103.5t-103.5 254.5t103.5 254.5t254.5 103.5t254.5 -103.5t103.5 -254.5t-103.5 -254.5t-254.5 -103.5z" />
    <glyph glyph-name="uni25D2" unicode="&#x25d2;" 
d="M119 347h586q0 124 -84.5 208.5t-208.5 84.5t-208.5 -84.5t-84.5 -208.5zM770 347q0 -151 -103.5 -254.5t-254.5 -103.5t-254.5 103.5t-103.5 254.5t103.5 254.5t254.5 103.5t254.5 -103.5t103.5 -254.5z" />
    <glyph glyph-name="uni25D3" unicode="&#x25d3;" 
d="M705 347h-586q0 -124 84.5 -208.5t208.5 -84.5t208.5 84.5t84.5 208.5zM770 347q0 -151 -103.5 -254.5t-254.5 -103.5t-254.5 103.5t-103.5 254.5t103.5 254.5t254.5 103.5t254.5 -103.5t103.5 -254.5z" />
    <glyph glyph-name="uni25D4" unicode="&#x25d4;" 
d="M770 347q0 -151 -103.5 -254.5t-254.5 -103.5t-254.5 103.5t-103.5 254.5t103.5 254.5t254.5 103.5t254.5 -103.5t103.5 -254.5zM705 347h-293v293q-124 0 -208.5 -84.5t-84.5 -208.5t84.5 -208.5t208.5 -84.5t208.5 84.5t84.5 208.5z" />
    <glyph glyph-name="uni25D5" unicode="&#x25d5;" 
d="M412 347v293q-124 0 -208.5 -84.5t-84.5 -208.5h293zM412 -11q-151 0 -254.5 103.5t-103.5 254.5t103.5 254.5t254.5 103.5t254.5 -103.5t103.5 -254.5t-103.5 -254.5t-254.5 -103.5z" />
    <glyph glyph-name="uni25E7" unicode="&#x25e7;" 
d="M65 694h694v-694h-694v694zM694 65v564h-282v-564h282z" />
    <glyph glyph-name="uni25E8" unicode="&#x25e8;" 
d="M65 694h694v-694h-694v694zM130 629v-564h282v564h-282z" />
    <glyph glyph-name="uni25E9" unicode="&#x25e9;" 
d="M65 0v694h694v-694h-694zM694 65v564l-564 -564h564z" />
    <glyph glyph-name="uni25EA" unicode="&#x25ea;" 
d="M759 694v-694h-694v694h694zM130 629v-564l564 564h-564z" />
    <glyph glyph-name="uni2690" unicode="&#x2690;" 
d="M130 293v-293h-65v694h694v-401h-629zM130 629v-271h564v271h-564z" />
    <glyph glyph-name="uni2691" unicode="&#x2691;" 
d="M130 293v-293h-65v694h694v-401h-629z" />
    <glyph glyph-name="uni278A" unicode="&#x278a;" horiz-adv-x="950" 
d="M475 767q177 0 298.5 -121.5t121.5 -298.5t-121.5 -298.5t-298.5 -121.5t-298.5 121.5t-121.5 298.5t121.5 298.5t298.5 121.5zM448 95h68v504h-66l-118 -87v-73l116 82v-426z" />
    <glyph glyph-name="uni278B" unicode="&#x278b;" horiz-adv-x="950" 
d="M312 158v-63h325v63h-238l149 152q83 85 83 158q0 58 -43.5 98t-115.5 40q-77 0 -122 -43.5t-46 -120.5h71q0 51 26.5 78.5t70.5 27.5q40 0 65 -22.5t25 -58.5q0 -54 -61 -115zM475 767q177 0 298.5 -121.5t121.5 -298.5t-121.5 -298.5t-298.5 -121.5t-298.5 121.5
t-121.5 298.5t121.5 298.5t298.5 121.5z" />
    <glyph glyph-name="uni278C" unicode="&#x278c;" horiz-adv-x="950" 
d="M467 88q81 0 127.5 40.5t46.5 108.5q0 49 -27 80t-66 39q37 14 59.5 44.5t22.5 68.5q0 57 -43 97t-116 40q-78 0 -122.5 -42t-46.5 -113h70q1 45 27.5 71t69.5 26q40 0 66 -21.5t26 -57.5q0 -38 -28 -63.5t-82 -25.5h-14v-56h21q113 0 113 -87q0 -41 -28 -66t-76 -25
q-45 0 -71.5 24t-27.5 62h-72q2 -66 48 -105t123 -39zM475 767q177 0 298.5 -121.5t121.5 -298.5t-121.5 -298.5t-298.5 -121.5t-298.5 121.5t-121.5 298.5t121.5 298.5t298.5 121.5z" />
    <glyph glyph-name="uni278D" unicode="&#x278d;" horiz-adv-x="950" 
d="M499 95h66v114h69v60h-69v330h-83l-234 -330v-60h251v-114zM499 520v-251h-179zM475 767q177 0 298.5 -121.5t121.5 -298.5t-121.5 -298.5t-298.5 -121.5t-298.5 121.5t-121.5 298.5t121.5 298.5t298.5 121.5z" />
    <glyph glyph-name="uni278E" unicode="&#x278e;" horiz-adv-x="950" 
d="M470 143q-44 0 -71 24.5t-29 62.5h-70q1 -66 47 -105.5t123 -39.5q80 0 128 47.5t48 120.5q0 74 -45.5 120.5t-109.5 46.5q-70 0 -107 -44l18 157h212v63h-267l-32 -292h67q24 59 95 59q43 0 71.5 -30.5t28.5 -79.5t-29.5 -79.5t-77.5 -30.5zM475 767q177 0 298.5 -121.5
t121.5 -298.5t-121.5 -298.5t-298.5 -121.5t-298.5 121.5t-121.5 298.5t121.5 298.5t298.5 121.5z" />
    <glyph glyph-name="uni278F" unicode="&#x278f;" horiz-adv-x="950" 
d="M473 88q74 0 123.5 45.5t49.5 125.5q0 75 -46 120t-114 45q-42 0 -76.5 -20t-52.5 -58q3 202 119 202q38 0 61 -19.5t25 -52.5h71q-2 56 -44.5 93t-111.5 37q-83 0 -134.5 -61.5t-51.5 -193.5q0 -135 49 -199t133 -64zM472 146q-46 0 -72.5 30t-26.5 81q0 45 28.5 77.5
t75.5 32.5q43 0 71 -30t28 -80q0 -51 -27.5 -81t-76.5 -30zM475 767q177 0 298.5 -121.5t121.5 -298.5t-121.5 -298.5t-298.5 -121.5t-298.5 121.5t-121.5 298.5t121.5 298.5t298.5 121.5z" />
    <glyph glyph-name="uni2790" unicode="&#x2790;" horiz-adv-x="950" 
d="M300 599v-65h247l-191 -439h73l194 443v61h-323zM475 767q177 0 298.5 -121.5t121.5 -298.5t-121.5 -298.5t-298.5 -121.5t-298.5 121.5t-121.5 298.5t121.5 298.5t298.5 121.5z" />
    <glyph glyph-name="uni2791" unicode="&#x2791;" horiz-adv-x="950" 
d="M475 767q177 0 298.5 -121.5t121.5 -298.5t-121.5 -298.5t-298.5 -121.5t-298.5 121.5t-121.5 298.5t121.5 298.5t298.5 121.5zM482 88q82 0 129.5 39.5t47.5 104.5q0 42 -24 76.5t-65 47.5q33 15 52.5 46.5t19.5 65.5q0 59 -44 98.5t-116 39.5t-116 -39.5t-44 -98.5
q0 -34 19.5 -65.5t52.5 -46.5q-41 -13 -65 -47.5t-24 -76.5q0 -65 47.5 -104.5t129.5 -39.5zM482 143q-49 0 -77.5 26t-28.5 66t28.5 66t77.5 26t77.5 -26t28.5 -66t-28.5 -66t-77.5 -26zM482 381q-41 0 -66.5 24.5t-25.5 62.5q0 35 25.5 59t66.5 24t66.5 -24t25.5 -59
q0 -38 -25.5 -62.5t-66.5 -24.5z" />
    <glyph glyph-name="uni2792" unicode="&#x2792;" horiz-adv-x="950" 
d="M475 767q177 0 298.5 -121.5t121.5 -298.5t-121.5 -298.5t-298.5 -121.5t-298.5 121.5t-121.5 298.5t121.5 298.5t298.5 121.5zM473 606q-74 0 -123 -45.5t-49 -125.5q0 -75 46 -120t113 -45q42 0 77.5 20t52.5 58q-3 -202 -119 -202q-37 0 -60 19.5t-27 52.5h-70
q3 -56 45.5 -93t110.5 -37q83 0 135 61.5t52 193.5q0 136 -49 199.5t-135 63.5zM476 548q44 0 71.5 -30.5t27.5 -80.5q0 -45 -29 -77.5t-75 -32.5q-45 0 -73 30t-28 80q0 51 28.5 81t77.5 30z" />
    <glyph glyph-name="uni2793" unicode="&#x2793;" horiz-adv-x="950" 
d="M475 767q177 0 298.5 -121.5t121.5 -298.5t-121.5 -298.5t-298.5 -121.5t-298.5 121.5t-121.5 298.5t121.5 298.5t298.5 121.5zM546 88q72 0 108 62t36 197t-36 197t-108 62t-108 -62t-36 -197t36 -197t108 -62zM546 147q-42 0 -59 46t-17 154t17 154t59 46
q41 0 58 -46.5t17 -153.5t-17 -153.5t-58 -46.5zM292 599v-504h66v504h-66z" />
    <glyph glyph-name="uni29B6" unicode="&#x29b6;" 
d="M770 347q0 -151 -103.5 -254.5t-254.5 -103.5t-254.5 103.5t-103.5 254.5t103.5 254.5t254.5 103.5t254.5 -103.5t103.5 -254.5zM705 347q0 115 -74.5 197.5t-186.5 93.5v-583q112 12 186.5 94.5t74.5 197.5zM119 347q0 -115 74 -197.5t186 -94.5v583q-112 -12 -186 -94
t-74 -197z" />
    <glyph glyph-name="uni2B12" unicode="&#x2b12;" 
d="M759 694v-694h-694v694h694zM130 65h564v282h-564v-282z" />
    <glyph glyph-name="uni2B13" unicode="&#x2b13;" 
d="M759 694v-694h-694v694h694zM694 629h-564v-282h564v282z" />
    <glyph glyph-name="uni2B14" unicode="&#x2b14;" 
d="M759 694v-694h-694v694h694zM130 629v-564h564z" />
    <glyph glyph-name="uni2B15" unicode="&#x2b15;" 
d="M65 0v694h694v-694h-694zM694 65v564h-564z" />
    <glyph glyph-name="uni2B16" unicode="&#x2b16;" 
d="M413 -14l-361 361l361 361l361 -361zM681 347l-268 270v-540z" />
    <glyph glyph-name="uni2B17" unicode="&#x2b17;" 
d="M774 347l-361 -361l-361 361l361 361zM413 617l-268 -270l268 -270v540z" />
    <glyph glyph-name="uni2B18" unicode="&#x2b18;" 
d="M774 347l-361 -361l-361 361l361 361zM413 615l-270 -268h540z" />
    <glyph glyph-name="uni2B19" unicode="&#x2b19;" 
d="M413 708l361 -361l-361 -361l-361 361zM143 347l270 -268l270 268h-540z" />
    <glyph glyph-name="uni2B2C" unicode="&#x2b2c;" 
d="M412 126q-151 0 -254.5 64.5t-103.5 157.5t103.5 157.5t254.5 64.5t254.5 -64.5t103.5 -157.5t-103.5 -157.5t-254.5 -64.5z" />
    <glyph glyph-name="uni2B2D" unicode="&#x2b2d;" 
d="M412 186q124 0 208.5 46.5t84.5 115.5t-84.5 115.5t-208.5 46.5t-208.5 -46.5t-84.5 -115.5t84.5 -115.5t208.5 -46.5zM412 126q-151 0 -254.5 64.5t-103.5 157.5t103.5 157.5t254.5 64.5t254.5 -64.5t103.5 -157.5t-103.5 -157.5t-254.5 -64.5z" />
    <glyph glyph-name="uni2B2E" unicode="&#x2b2e;" 
d="M634 347q0 -151 -64.5 -254.5t-157.5 -103.5t-157.5 103.5t-64.5 254.5t64.5 254.5t157.5 103.5t157.5 -103.5t64.5 -254.5z" />
    <glyph glyph-name="uni2B2F" unicode="&#x2b2f;" 
d="M412 55q69 0 114 84t45 209t-45 209t-114 84t-114 -84t-45 -209t45 -209t114 -84zM412 706q93 0 157.5 -103.5t64.5 -254.5t-64.5 -254.5t-157.5 -103.5t-157.5 103.5t-64.5 254.5t64.5 254.5t157.5 103.5z" />
    <glyph glyph-name="commaaccent" unicode="&#xf6c3;" horiz-adv-x="220" 
d="M167 -45v-86q0 -90 -94 -90v45q27 0 36 11t9 30v9h-43v81h92z" />
    <glyph glyph-name="Jacute" horiz-adv-x="594" 
d="M277 61q73 0 114.5 44.5t41.5 127.5v461h81v-461q0 -107 -58.5 -175.5t-178.5 -68.5t-178.5 68.5t-58.5 175.5v23h81v-23q0 -83 41.5 -127.5t114.5 -44.5zM513 886h97l-108 -139h-62z" />
    <glyph glyph-name="i.trk" horiz-adv-x="241" 
d="M83 491h75v-491h-75v491zM75 583v91h91v-91h-91z" />
    <glyph glyph-name="jacute" horiz-adv-x="241" 
d="M-46 -176v68q26 -4 46 -4q83 0 83 90v513h75v-515q0 -76 -41.5 -116t-114.5 -40q-24 0 -48 4zM160 694h97l-108 -139h-62z" />
    <glyph glyph-name="ringacute" horiz-adv-x="319" 
d="M159 544q-43 0 -73.5 29t-30.5 70q0 25 16 59l66 131h90l-80 -89q49 5 83 -25.5t34 -75.5q0 -41 -30.5 -70t-74.5 -29zM159 591q23 0 38 15t15 37q0 24 -15 40t-38 16q-22 0 -37 -16t-15 -40q0 -23 14.5 -37.5t37.5 -14.5z" />
    <glyph glyph-name="commatop" horiz-adv-x="220" 
d="M53 553v86q0 90 94 90v-45q-27 0 -36 -11t-9 -30v-9h43v-81h-92z" />
    <glyph glyph-name="caron.slovak" horiz-adv-x="242" 
d="M98 694h85l-78 -173h-50z" />
    <glyph glyph-name="parenleft.subs" horiz-adv-x="224" 
d="M117 79q1 -118 75 -219h-62q-77 103 -77 219t77 218h62q-74 -103 -75 -218z" />
    <glyph glyph-name="parenright.subs" horiz-adv-x="224" 
d="M107 79q-1 117 -75 218h62q77 -100 77 -218t-77 -219h-62q74 99 75 219z" />
    <glyph glyph-name="zero.dnom" horiz-adv-x="371" 
d="M185 -6q-65 0 -105 46.5t-40 148.5q0 99 40.5 146t104.5 47q65 0 105.5 -47t40.5 -146q0 -101 -40.5 -148t-105.5 -47zM185 46q83 0 83 143q0 140 -83 140t-83 -140q0 -143 83 -143z" />
    <glyph glyph-name="one.dnom" horiz-adv-x="280" 
d="M198 0h-61v308l-100 -65v65l102 66h59v-374z" />
    <glyph glyph-name="two.dnom" horiz-adv-x="337" 
d="M304 0h-258v54l146 146q15 15 22.5 23.5t14.5 22.5t7 28q0 24 -18 39t-47 15q-32 0 -50 -18.5t-18 -50.5h-62q0 55 35 88.5t97 33.5q56 0 90 -30t34 -75q0 -53 -62 -115l-105 -105h174v-56z" />
    <glyph glyph-name="three.dnom" horiz-adv-x="350" 
d="M172 -7q-63 0 -98.5 29.5t-37.5 81.5h60q2 -28 22.5 -45t53.5 -17q35 0 56 18t21 49q0 58 -87 58h-17v48h11q39 0 60.5 16.5t21.5 44.5q0 24 -19 38.5t-47 14.5q-31 0 -49.5 -17.5t-18.5 -47.5h-62q-1 53 34.5 85t98.5 32q57 0 89.5 -30.5t32.5 -74.5q0 -26 -16.5 -48.5
t-42.5 -34.5q29 -4 50.5 -27t21.5 -59q0 -53 -36 -83.5t-102 -30.5z" />
    <glyph glyph-name="four.dnom" horiz-adv-x="369" 
d="M282 0h-58v80h-194v54l182 240h70v-242h52v-52h-52v-80zM224 132v174l-130 -174h130z" />
    <glyph glyph-name="five.dnom" horiz-adv-x="346" 
d="M172 -7q-60 0 -96.5 29.5t-36.5 81.5h58q2 -29 23 -45.5t52 -16.5q35 0 57 22t22 57q0 34 -21 54.5t-56 20.5q-54 0 -68 -40h-57l23 218h212v-55h-167l-11 -103q28 31 87 31q51 0 84 -34.5t33 -89.5q0 -56 -36.5 -93t-101.5 -37z" />
    <glyph glyph-name="six.dnom" horiz-adv-x="358" 
d="M187 -7q-69 0 -108 47.5t-39 146.5q0 100 40.5 147t108.5 47q57 0 90 -28t35 -72h-60q-3 22 -20.5 35t-45.5 13q-87 0 -88 -138q27 56 101 56q51 0 84 -33.5t33 -92.5q0 -60 -38 -94t-93 -34zM186 42q34 0 53.5 22t19.5 57q0 33 -20 54t-54 21t-54 -22t-20 -53
q0 -35 20 -57t55 -22z" />
    <glyph glyph-name="seven.dnom" horiz-adv-x="318" 
d="M24 317v57h264v-54l-149 -320h-64l148 317h-199z" />
    <glyph glyph-name="eight.dnom" horiz-adv-x="359" 
d="M180 -7q-66 0 -104 30t-38 81q0 30 19.5 55.5t50.5 35.5q-54 25 -54 82q0 46 34.5 75t91.5 29q58 0 93.5 -29t35.5 -75q0 -25 -15 -47.5t-41 -34.5q31 -10 49.5 -35.5t18.5 -55.5q0 -51 -37.5 -81t-103.5 -30zM180 41q36 0 58 18.5t22 46.5t-22 46t-58 18q-35 0 -57 -18
t-22 -46t22 -46.5t57 -18.5zM180 217q32 0 50.5 16t18.5 43q0 24 -18.5 39.5t-50.5 15.5q-31 0 -49.5 -15.5t-18.5 -39.5q0 -27 18.5 -43t49.5 -16z" />
    <glyph glyph-name="nine.dnom" horiz-adv-x="358" 
d="M173 381q68 0 106.5 -47.5t38.5 -146.5q0 -194 -147 -194q-56 0 -89 27.5t-35 70.5h60q3 -21 20.5 -34.5t44.5 -13.5q87 0 88 137q-30 -54 -100 -54q-51 0 -85.5 33.5t-34.5 91.5q0 60 39 95t94 35zM173 330q-33 0 -52.5 -21.5t-19.5 -55.5q0 -33 19.5 -54.5t52.5 -21.5
q35 0 56 22.5t21 53.5q0 34 -21 55.5t-56 21.5z" />
    <glyph glyph-name="parenleft.dnum" horiz-adv-x="224" 
d="M117 189q1 -118 75 -219h-62q-77 103 -77 219t77 218h62q-74 -103 -75 -218z" />
    <glyph glyph-name="parenright.dnum" horiz-adv-x="224" 
d="M107 189q-1 117 -75 218h62q77 -100 77 -218t-77 -219h-62q74 99 75 219z" />
    <glyph glyph-name="backslash.case" horiz-adv-x="430" 
d="M327 -60l-297 812h73l297 -812h-73z" />
    <glyph glyph-name="bar.case" horiz-adv-x="291" 
d="M110 -60v812h71v-812h-71z" />
    <glyph glyph-name="braceleft.case" horiz-adv-x="369" 
d="M339 5v-65h-74q-71 0 -100 40.5t-29 118.5v102q0 60 -21.5 82.5t-74.5 27.5v70q53 5 74.5 27.5t21.5 82.5v102q0 78 29 118.5t100 40.5h74v-65h-50q-49 0 -66 -18.5t-17 -81.5v-111q0 -111 -90 -130q90 -19 90 -130v-111q0 -63 17 -81.5t66 -18.5h50z" />
    <glyph glyph-name="braceright.case" horiz-adv-x="369" 
d="M30 -60v66h50q49 0 66 18t17 81v111q0 111 90 130q-90 19 -90 130v111q0 63 -17 81t-66 18h-50v66h74q71 0 100 -40.5t29 -118.5v-102q0 -60 21.5 -82.5t74.5 -27.5v-70q-53 -5 -74.5 -27.5t-21.5 -82.5v-102q0 -78 -29 -118.5t-100 -40.5h-74z" />
    <glyph glyph-name="bracketleft.case" horiz-adv-x="325" 
d="M295 687h-134v-682h134v-65h-205v812h205v-65z" />
    <glyph glyph-name="bracketright.case" horiz-adv-x="325" 
d="M235 -60h-205v65h134v682h-134v65h205v-812z" />
    <glyph glyph-name="emdash.case" horiz-adv-x="1000" 
d="M40 305v66h920v-66h-920z" />
    <glyph glyph-name="endash.case" horiz-adv-x="500" 
d="M40 305v66h420v-66h-420z" />
    <glyph glyph-name="guillemotleft.case" horiz-adv-x="502" 
d="M139 334l113 -200h-73l-129 200l129 200h73zM329 334l113 -200h-73l-129 200l129 200h73z" />
    <glyph glyph-name="guillemotright.case" horiz-adv-x="502" 
d="M250 134l113 200l-113 200h73l129 -200l-129 -200h-73zM60 134l113 200l-113 200h73l129 -200l-129 -200h-73z" />
    <glyph glyph-name="guilsinglleft.case" horiz-adv-x="312" 
d="M139 334l113 -200h-73l-129 200l129 200h73z" />
    <glyph glyph-name="guilsinglright.case" horiz-adv-x="312" 
d="M60 134l113 200l-113 200h73l129 -200l-129 -200h-73z" />
    <glyph glyph-name="hyphen.case" horiz-adv-x="384" 
d="M60 304v73h264v-73h-264z" />
    <glyph glyph-name="parenleft.case" horiz-adv-x="308" 
d="M140 346q4 -217 148 -406h-80q-65 87 -104 194t-39 212t39 212t104 194h80q-144 -189 -148 -406z" />
    <glyph glyph-name="parenright.case" horiz-adv-x="308" 
d="M168 346q-4 217 -148 406h80q65 -87 104 -194t39 -212t-39 -212t-104 -194h-80q144 189 148 406z" />
    <glyph glyph-name="slash.case" horiz-adv-x="430" 
d="M400 752l-297 -812h-73l297 812h73z" />
    <glyph glyph-name="questiondown.case" horiz-adv-x="481" 
d="M28 169q0 45 19.5 79.5t47.5 55.5t56 40t47.5 44t19.5 57v17h68v-17q0 -44 -18.5 -78t-45 -54.5t-53 -39.5t-45 -45t-18.5 -59q0 -45 35.5 -77.5t92.5 -32.5q62 0 99.5 35t40.5 94h79q-5 -91 -61.5 -145t-157.5 -54q-90 0 -148 51.5t-58 128.5zM305 694v-107h-107v107
h107z" />
    <glyph glyph-name="exclamdown.case" horiz-adv-x="277" 
d="M115 462h47l17 -330v-132h-81v132zM85 587v107h107v-107h-107z" />
    <glyph glyph-name="zero.tf" horiz-adv-x="650" 
d="M325 -11q-114 0 -181 88.5t-67 269.5t67 269.5t181 88.5t181 -88.5t67 -269.5t-67 -269.5t-181 -88.5zM154 347q0 -93 21 -161l265 395q-43 58 -115 58q-80 0 -125.5 -73t-45.5 -219zM325 55q80 0 125.5 73t45.5 219q0 92 -21 161l-265 -396q44 -57 115 -57z" />
    <glyph glyph-name="one.tf" horiz-adv-x="650" 
d="M103 0v73h211v529l-191 -116v87l196 121h76v-621h161v-73h-453z" />
    <glyph glyph-name="two.tf" horiz-adv-x="650" 
d="M114 0v74l260 274q88 92 88 169q0 53 -37.5 85.5t-96.5 32.5q-65 0 -104.5 -39.5t-39.5 -114.5h-82q1 106 62.5 165t163.5 59q98 0 156 -55t58 -133q0 -96 -116 -220l-213 -224h340v-73h-439z" />
    <glyph glyph-name="three.tf" horiz-adv-x="650" 
d="M324 -11q-106 0 -169.5 55.5t-65.5 149.5h82q3 -61 43 -98.5t110 -37.5q68 0 109.5 37.5t41.5 96.5q0 127 -168 127h-25v70h17q79 0 119 37.5t40 91.5q0 53 -37.5 85.5t-96.5 32.5q-63 0 -101.5 -37t-41.5 -99h-82q5 94 64 149.5t163 55.5q97 0 154.5 -54.5t57.5 -132.5
q0 -53 -31.5 -96.5t-81.5 -62.5q54 -11 92 -54t38 -113q0 -89 -63 -146t-168 -57z" />
    <glyph glyph-name="four.tf" horiz-adv-x="650" 
d="M485 0h-76v162h-350v70l328 462h98v-462h100v-70h-100v-162zM409 232v370l-263 -370h263z" />
    <glyph glyph-name="five.tf" horiz-adv-x="650" 
d="M322 -11q-106 0 -169 55t-65 150h82q3 -61 42.5 -98.5t109.5 -37.5q72 0 115.5 45t43.5 117q0 71 -42.5 116.5t-105.5 45.5q-50 0 -86 -23.5t-54 -64.5h-78l44 400h358v-73h-296l-26 -232q23 28 64 45t88 17q86 0 150 -64.5t64 -166.5t-64.5 -166.5t-174.5 -64.5z" />
    <glyph glyph-name="six.tf" horiz-adv-x="650" 
d="M336 -11q-113 0 -180 87.5t-67 276.5q0 184 71.5 268t180.5 84q92 0 149 -50.5t59 -126.5h-81q-5 49 -38.5 78.5t-90.5 29.5q-171 0 -175 -298q24 55 73.5 84.5t111.5 29.5q94 0 157.5 -62t63.5 -165q0 -110 -66 -173t-168 -63zM334 58q72 0 114 45t42 120q0 72 -42 116
t-107 44q-68 0 -111 -47t-43 -113q0 -75 40 -120t107 -45z" />
    <glyph glyph-name="seven.tf" horiz-adv-x="650" 
d="M87 620v74h467v-69l-282 -625h-86l280 620h-379z" />
    <glyph glyph-name="eight.tf" horiz-adv-x="650" 
d="M325 -11q-110 0 -174.5 54t-64.5 144q0 58 35 106t91 65q-48 22 -75 66t-27 90q0 81 59.5 136t155.5 55t155.5 -55t59.5 -136q0 -46 -27 -90t-75 -66q56 -17 91 -65t35 -106q0 -90 -64.5 -144t-174.5 -54zM325 57q73 0 115.5 37.5t42.5 95.5t-42.5 95.5t-115.5 37.5
t-115.5 -37.5t-42.5 -95.5t42.5 -95.5t115.5 -37.5zM325 390q61 0 98.5 35.5t37.5 90.5q0 53 -37.5 87t-98.5 34t-98.5 -34t-37.5 -87q0 -55 37.5 -90.5t98.5 -35.5z" />
    <glyph glyph-name="nine.tf" horiz-adv-x="650" 
d="M314 705q113 0 180 -87.5t67 -276.5q0 -184 -71.5 -268t-180.5 -84q-92 0 -149 50.5t-59 126.5h81q5 -49 38.5 -78.5t90.5 -29.5q171 0 175 298q-24 -55 -73.5 -84.5t-111.5 -29.5q-94 0 -157.5 62t-63.5 165q0 110 66 173t168 63zM316 636q-72 0 -114 -45t-42 -120
q0 -72 42 -116t107 -44q68 0 111 47t43 113q0 75 -40 120t-107 45z" />
    <glyph glyph-name="cent.tf" horiz-adv-x="650" 
d="M357 0h-63v95q-93 12 -148 77.5t-55 174.5t55 173.5t148 77.5v96h63v-94q82 -5 135 -51.5t62 -122.5h-78q-6 46 -39 74.5t-80 33.5v-375q47 5 80 33t39 75h78q-9 -76 -62 -123t-135 -52v-92zM170 347q0 -76 32 -123.5t92 -61.5v368q-60 -13 -92 -60t-32 -123z" />
    <glyph glyph-name="dollar.tf" horiz-adv-x="650" 
d="M107 507q0 77 53 128t138 59v106h61v-106q88 -9 144 -62t57 -135h-79q-10 113 -122 130v-247l69 -18q67 -18 105 -62t38 -110q0 -81 -57.5 -133.5t-154.5 -58.5v-104h-61v105q-98 8 -156 60t-63 144h78q4 -57 42 -92.5t99 -43.5v254l-48 13q-67 18 -105 62.5t-38 110.5z
M407 293l-48 12v-240q63 5 100 36.5t37 83.5q0 84 -89 108zM182 511q0 -84 89 -108l27 -7v231q-54 -6 -85 -36.5t-31 -79.5z" />
    <glyph glyph-name="yen.tf" horiz-adv-x="650" 
d="M97 267v61h150l-225 366h91l213 -353l215 353h87l-226 -366h150v-61h-189v-82h189v-62h-189v-123h-77v123h-189v62h189v82h-189z" />
    <glyph glyph-name="sterling.tf" horiz-adv-x="650" 
d="M86 276v63h79q-1 3 -14.5 34t-18 43.5t-10.5 39.5t-6 51q0 80 58.5 139t154.5 59q106 0 167.5 -60.5t61.5 -163.5h-80q0 74 -40.5 114t-106.5 40q-62 0 -97.5 -36t-35.5 -92q0 -29 8 -57t25 -65t21 -46h210v-63h-191q4 -24 4 -35q0 -119 -69 -168h358v-73h-478v73
q51 19 81 55t30 105q0 17 -7 43h-104z" />
    <glyph glyph-name="Euro.tf" horiz-adv-x="650" 
d="M42 390v62h81q20 118 85 185.5t164 67.5t161 -58t75 -166h-79q-11 77 -54 115.5t-103 38.5q-64 0 -109 -48t-62 -135h211v-62h-219q-1 -14 -1 -43q0 -31 1 -45h219v-62h-210q16 -85 61 -133t109 -48q60 0 103 38.5t54 115.5h79q-13 -108 -75 -166t-161 -58t-164 67
t-85 184h-81v62h73q-1 14 -1 45q0 29 1 43h-73z" />
    <glyph glyph-name="a.ord" horiz-adv-x="372" 
d="M324 320h-59v52q-37 -58 -122 -58q-48 0 -80 24.5t-32 69.5q0 82 107 100l123 21v15q0 63 -78 63q-73 0 -76 -54h-64q2 51 41 77t99 26q141 0 141 -117v-219zM157 364q44 0 74 24t30 71v24l-105 -18q-61 -10 -61 -55q0 -21 16 -33.5t46 -12.5z" />
    <glyph glyph-name="b.ord" horiz-adv-x="404" 
d="M224 656q64 0 106.5 -45.5t42.5 -125.5t-42 -125.5t-105 -45.5q-77 0 -113 53v-47h-61v465h64v-180q38 51 108 51zM208 605q-46 0 -71.5 -33.5t-25.5 -86.5t25.5 -86t71.5 -33t72 33t26 86t-26 86.5t-72 33.5z" />
    <glyph glyph-name="c.ord" horiz-adv-x="376" 
d="M98 485q0 -54 25.5 -86.5t70.5 -32.5q33 0 55.5 18t26.5 51h67q-5 -56 -45.5 -88.5t-103.5 -32.5q-74 0 -119 46t-45 125t45 125t119 46q63 0 103.5 -32.5t45.5 -88.5h-67q-4 33 -26.5 51.5t-55.5 18.5q-45 0 -70.5 -33t-25.5 -87z" />
    <glyph glyph-name="d.ord" horiz-adv-x="404" 
d="M179 656q71 0 109 -51v180h64v-465h-61v47q-36 -53 -113 -53q-63 0 -105 45.5t-42 125.5t42 125.5t106 45.5zM196 605q-46 0 -72 -33.5t-26 -86.5t26 -86t72 -33t71.5 33t25.5 86t-25.5 86.5t-71.5 33.5z" />
    <glyph glyph-name="e.ord" horiz-adv-x="382" 
d="M30 485q0 78 45 124.5t117 46.5t115 -44t43 -125q0 -15 -1 -21h-253q2 -43 27.5 -72t67.5 -29q70 0 86 58h67q-10 -53 -51.5 -81t-100.5 -28q-71 0 -116.5 45.5t-45.5 125.5zM97 512h187q-2 45 -27 69.5t-63 24.5q-40 0 -65.5 -24.5t-31.5 -69.5z" />
    <glyph glyph-name="f.ord" horiz-adv-x="248" 
d="M230 786v-53q-32 4 -40 4q-53 0 -53 -58v-29h93v-53h-93v-277h-64v277h-53v53h53v33q0 53 29 80.5t80 27.5q30 0 48 -5z" />
    <glyph glyph-name="g.ord" horiz-adv-x="399" 
d="M348 650v-315q0 -69 -42 -104.5t-114 -35.5t-111 29t-41 77h67q4 -56 83 -56q93 0 93 87v44q-38 -46 -102 -46q-62 0 -106 43.5t-44 118.5q0 76 43 120t106 44q68 0 106 -50v44h62zM98 493q0 -50 25 -81t69 -31q46 0 70.5 31t24.5 81t-24.5 81t-70.5 31q-45 0 -69.5 -31
t-24.5 -81z" />
    <glyph glyph-name="h.ord" horiz-adv-x="389" 
d="M277 320v194q0 89 -73 89q-41 0 -64.5 -28.5t-23.5 -71.5v-183h-64v465h64v-182q35 53 108 53q56 0 86.5 -34t30.5 -93v-209h-64z" />
    <glyph glyph-name="i.ord" horiz-adv-x="167" 
d="M52 650h64v-330h-64v330zM46 708v66h75v-66h-75z" />
    <glyph glyph-name="j.ord" horiz-adv-x="167" 
d="M-29 201v55q9 -2 30 -2q51 0 51 57v339h64v-344q0 -53 -28.5 -80t-79.5 -27q-24 0 -37 2zM46 708v66h76v-66h-76z" />
    <glyph glyph-name="k.ord" horiz-adv-x="362" 
d="M213 518l141 -198h-77l-113 157l-48 -47v-110h-64v465h64v-281l151 146h83z" />
    <glyph glyph-name="l.ord" horiz-adv-x="167" 
d="M52 785h64v-465h-64v465z" />
    <glyph glyph-name="m.ord" horiz-adv-x="588" 
d="M540 529v-209h-64v201q0 82 -70 82q-32 0 -55 -24.5t-23 -66.5v-192h-64v197q0 86 -70 86q-33 0 -55.5 -27t-22.5 -73v-183h-64v330h61v-49q34 55 101 55q72 0 100 -57q40 57 111 57q52 0 83.5 -31.5t31.5 -95.5z" />
    <glyph glyph-name="n.ord" horiz-adv-x="389" 
d="M116 320h-64v330h61v-49q37 55 111 55q56 0 86.5 -34t30.5 -93v-209h-64v194q0 89 -73 89q-41 0 -64.5 -28.5t-23.5 -71.5v-183z" />
    <glyph glyph-name="o.ord" horiz-adv-x="389" 
d="M194 314q-73 0 -118.5 46t-45.5 125q0 78 45.5 124.5t118.5 46.5q74 0 119.5 -46t45.5 -125t-45.5 -125t-119.5 -46zM194 366q47 0 72 32.5t25 86.5t-25 87t-72 33q-46 0 -71 -33t-25 -87q0 -53 25 -86t71 -33z" />
    <glyph glyph-name="p.ord" horiz-adv-x="404" 
d="M224 314q-70 0 -108 52v-163h-64v447h61v-47q36 53 113 53q63 0 105 -45.5t42 -125.5q0 -79 -42.5 -125t-106.5 -46zM208 366q46 0 72 33t26 86t-26 86.5t-72 33.5t-71.5 -33.5t-25.5 -86.5t25.5 -86t71.5 -33z" />
    <glyph glyph-name="q.ord" horiz-adv-x="404" 
d="M179 314q-64 0 -106 46t-42 125q0 80 42 125.5t105 45.5q77 0 113 -53v47h61v-447h-64v163q-38 -52 -109 -52zM196 366q46 0 71.5 33t25.5 86t-25.5 86.5t-71.5 33.5t-72 -33.5t-26 -86.5t26 -86t72 -33z" />
    <glyph glyph-name="r.ord" horiz-adv-x="256" 
d="M241 655v-64h-33q-40 0 -66 -26t-26 -71v-174h-64v330h61v-64q29 70 108 70q10 0 20 -1z" />
    <glyph glyph-name="s.ord" horiz-adv-x="353" 
d="M42 558q0 45 37.5 71.5t97.5 26.5q57 0 97 -26t41 -76h-64q-1 26 -21 40t-53 14q-32 0 -51 -12.5t-19 -33.5q0 -33 50 -42l71 -14q93 -19 93 -92q0 -45 -38 -72.5t-104 -27.5q-67 0 -106.5 29.5t-40.5 79.5h66q2 -28 23 -44.5t60 -16.5q74 0 74 48q0 33 -50 43l-70 13
q-93 18 -93 92z" />
    <glyph glyph-name="t.ord" horiz-adv-x="256" 
d="M21 597v53h54v86h63v-86h92v-53h-92v-167q0 -59 46 -59q19 0 46 5v-54q-29 -7 -63 -7q-45 0 -69 26.5t-24 75.5v180h-53z" />
    <glyph glyph-name="u.ord" horiz-adv-x="383" 
d="M267 650h65v-330h-62v50q-37 -56 -108 -56q-55 0 -84.5 34t-29.5 93v209h64v-193q0 -89 70 -89q40 0 62.5 28.5t22.5 71.5v182z" />
    <glyph glyph-name="v.ord" horiz-adv-x="352" 
d="M177 384l94 266h67l-123 -330h-78l-124 330h70z" />
    <glyph glyph-name="w.ord" horiz-adv-x="529" 
d="M264 582l-72 -262h-77l-98 330h67l73 -268l73 268h70l73 -268l73 268h65l-97 -330h-78z" />
    <glyph glyph-name="x.ord" horiz-adv-x="350" 
d="M90 320h-74l121 166l-122 164h76l85 -119l84 119h74l-120 -164l121 -166h-75l-86 120z" />
    <glyph glyph-name="y.ord" horiz-adv-x="351" 
d="M200 284q-18 -46 -46 -65.5t-73 -19.5q-25 0 -43 3v55q12 -3 38 -3q49 0 64 44l3 9l-129 343h69l94 -266l94 266h68z" />
    <glyph glyph-name="z.ord" horiz-adv-x="334" 
d="M37 650h266v-45l-190 -231h189v-54h-274v46l190 231h-181v53z" />
    </font>
</defs>
</svg>
